<?xml version="1.0" standalone="no"?>
<!DOCTYPE svg PUBLIC "-//W3C//DTD SVG 1.1//EN" "http://www.w3.org/Graphics/SVG/1.1/DTD/svg11.dtd" >
<svg xmlns="http://www.w3.org/2000/svg" xmlns:xlink="http://www.w3.org/1999/xlink" version="1.1">
<metadata>
Created by FontForge 20170731 at Tue Feb 18 18:00:08 2014
 By Aleksey,,,
Copyright (c) 2014 by .notdef All rights reserved.
</metadata>
<defs>
<font id="Danzza-Medium" horiz-adv-x="638" >
  <font-face 
    font-family="Danzza Medium"
    font-weight="500"
    font-stretch="normal"
    units-per-em="1000"
    panose-1="0 0 6 0 0 0 0 0 0 0"
    ascent="800"
    descent="-200"
    x-height="454"
    cap-height="705"
    bbox="-68.0506 -244.006 1634 985"
    underline-thickness="68"
    underline-position="-384"
    unicode-range="U+000D-2648"
  />
<missing-glyph horiz-adv-x="466" 
 />
    <glyph glyph-name="uni00660069.liga" unicode="fi" horiz-adv-x="668" 
d="M592 454v-454h-114v358h-242v-358h-114v358h-112v96h112v96q0 104 73.5 147.5t164.5 6.5l39 -16l-35 -92l-32 12q-41 15 -68.5 -3.5t-27.5 -56.5v-94h356zM534 521q-29 0 -48.5 19.5t-19.5 48.5t19.5 48.5t48.5 19.5q28 0 48 -19.5t20 -48.5t-19.5 -48.5t-48.5 -19.5z
" />
    <glyph glyph-name="uni0066006C.liga" unicode="fl" horiz-adv-x="677" 
d="M589 705v-705h-114v358h-239v-358h-114v358h-112v96h112v96q0 104 73.5 147.5t164.5 6.5l39 -16l-35 -92l-32 12q-41 15 -68.5 -3.5t-27.5 -56.5v-94h239v251h114z" />
    <glyph glyph-name="uni00660066.liga" unicode="ff" horiz-adv-x="747" 
d="M575 454h154v-96h-154v-358h-114v358h-225v-358h-114v358h-112v96h112v96q0 104 73.5 147.5t164.5 6.5l39 -16l-35 -92l-32 12q-41 15 -68.5 -3.5t-27.5 -56.5v-94h225v96q0 104 73.5 147.5t164.5 6.5l39 -16l-35 -92l-32 12q-41 15 -68.5 -3.5t-27.5 -56.5v-94z" />
    <glyph glyph-name="uni00660074.liga" unicode="ft" horiz-adv-x="780" 
d="M742 17l-39 -15q-91 -38 -164.5 5.5t-73.5 147.5v203h-229v-358h-114v358h-112v96h112v96q0 104 73.5 147.5t164.5 6.5l39 -16l-35 -92l-32 12q-41 15 -68.5 -3.5t-27.5 -56.5v-94h229v144h114v-144h159v-96h-159v-200q0 -38 27.5 -56.5t68.5 -4.5l32 12z" />
    <glyph glyph-name="uni006600660074.liga" unicode="fft" horiz-adv-x="1119" 
d="M1081 17l-39 -15q-91 -38 -164.5 5.5t-73.5 147.5v203h-229v-358h-114v358h-225v-358h-114v358h-112v96h112v96q0 104 73.5 147.5t164.5 6.5l39 -16l-35 -92l-32 12q-41 15 -68.5 -3.5t-27.5 -56.5v-94h225v96q0 104 73.5 147.5t164.5 6.5l39 -16l-35 -92l-32 12
q-41 15 -68.5 -3.5t-27.5 -56.5v-94h229v144h114v-144h159v-96h-159v-200q0 -38 27.5 -56.5t68.5 -4.5l32 12z" />
    <glyph glyph-name="uni006600660069.liga" unicode="ffi" horiz-adv-x="1008" 
d="M932 454v-454h-114v358h-242v-358h-114v358h-226v-358h-114v358h-112v96h112v96q0 104 73.5 147.5t164.5 6.5l39 -16l-35 -92l-32 12q-41 15 -68.5 -3.5t-27.5 -56.5v-94h226v96q0 104 73.5 147.5t164.5 6.5l39 -16l-35 -92l-32 12q-41 15 -68.5 -3.5t-27.5 -56.5v-94
h356zM874 521q-29 0 -48.5 19.5t-19.5 48.5t19.5 48.5t48.5 19.5q28 0 48 -19.5t20 -48.5t-19.5 -48.5t-48.5 -19.5z" />
    <glyph glyph-name="uni0069006A.liga" unicode="ij" horiz-adv-x="530" 
d="M138 657q28 0 48 -19.5t20 -48.5t-19.5 -48.5t-48.5 -19.5t-48.5 19.5t-19.5 48.5t19.5 48.5t48.5 19.5zM399 657q29 0 48.5 -19.5t19.5 -48.5t-19.5 -48.5t-48.5 -19.5t-48.5 19.5t-19.5 48.5t19.5 48.5t48.5 19.5zM196 0h-114v454h114v-454zM456 454v-527
q0 -104 -73 -147.5t-165 -6.5l-38 16l34 92l32 -12q41 -15 68.5 3.5t27.5 56.5v525h114z" />
    <glyph glyph-name="uni0049004A.liga" unicode="IJ" horiz-adv-x="635" 
d="M199 0h-119v705h119v-705zM565 705v-542q0 -102 -76.5 -152.5t-186.5 -4.5l24 91q52 -18 86 1.5t34 70.5v435h-115v101h234z" />
    <glyph glyph-name="uni00660066006C.liga" unicode="ffl" horiz-adv-x="1004" 
d="M930 705v-705h-114v358h-239v-358h-114v358h-227v-358h-114v358h-112v96h112v96q0 104 73.5 147.5t164.5 6.5l39 -16l-35 -92l-32 12q-41 15 -68.5 -3.5t-27.5 -56.5v-94h227v96q0 104 73.5 147.5t164.5 6.5l39 -16l-35 -92l-32 12q-41 15 -68.5 -3.5t-27.5 -56.5v-94
h239v251h114z" />
    <glyph glyph-name=".notdef" horiz-adv-x="466" 
 />
    <glyph glyph-name=".null" horiz-adv-x="0" 
 />
    <glyph glyph-name="nonmarkingreturn" horiz-adv-x="333" 
 />
    <glyph glyph-name="CR" unicode="&#xd;" horiz-adv-x="600" 
 />
    <glyph glyph-name="space" unicode=" " horiz-adv-x="230" 
 />
    <glyph glyph-name="exclam" unicode="!" horiz-adv-x="308" 
d="M199 217h-89l-24 488h137zM154 125q29 0 50 -20.5t21 -49.5t-21 -49.5t-50 -20.5t-49.5 20.5t-20.5 49.5t21 49.5t49 20.5z" />
    <glyph glyph-name="quotedbl" unicode="&#x22;" horiz-adv-x="392" 
d="M137 397h-78l-24 308h126zM333 397h-78l-24 308h126z" />
    <glyph glyph-name="numbersign" unicode="#" horiz-adv-x="768" 
d="M604 519h129l-12 -90h-132l-25 -150h129l-12 -91h-132l-31 -188h-108l32 188h-171l-31 -188h-108l32 188h-129l13 91h130l26 150h-129l13 90h131l31 186h107l-31 -186h171l31 186h107zM311 429l-25 -150h171l25 150h-171z" />
    <glyph glyph-name="dollar" unicode="$" horiz-adv-x="639" 
d="M607 198q0 -86 -63.5 -143t-162.5 -68v-99h-102v101q-192 28 -249 211l105 37q24 -76 79 -113.5t129 -37.5q63 0 104 29t41 77q0 36 -23 60.5t-59.5 38t-81 25t-89 26t-81 35.5t-59.5 59.5t-23 92.5q0 73 57.5 125.5t149.5 63.5v99h102v-103q71 -13 126 -57t85 -116
l-104 -37q-51 115 -173 115q-55 0 -90 -25t-35 -65q0 -32 23 -53.5t60 -33.5t81 -22.5t88.5 -26t81.5 -37t60 -62t23 -96.5z" />
    <glyph glyph-name="percent" unicode="%" horiz-adv-x="762" 
d="M188 710q44 0 75.5 -18t47 -47.5t22 -59t6.5 -62.5t-6.5 -62.5t-22 -59t-47 -47.5t-75.5 -18t-75 18t-46.5 47.5t-22 59t-6.5 62.5t6.5 62.5t22 59t46.5 47.5t75 18zM233 0h-90l387 705h90zM188 642q-67 0 -67 -119q0 -118 67 -118q68 0 68 118q0 119 -68 119zM573 368
q44 0 75.5 -18t47 -47.5t22 -59t6.5 -62.5q0 -32 -6.5 -62t-22 -59.5t-47 -47.5t-75.5 -18t-75 18t-46.5 47.5t-22 59.5t-6.5 62q0 33 6.5 62.5t22 59t46.5 47.5t75 18zM573 300q-67 0 -67 -119q0 -118 67 -118q68 0 68 118q0 119 -68 119z" />
    <glyph glyph-name="ampersand" unicode="&#x26;" horiz-adv-x="722" 
d="M307 720q89 0 146 -49.5t57 -125.5q0 -118 -159 -192l137 -148q75 92 107 279l98 -21q-35 -214 -135 -335l119 -128h-139l-53 58q-96 -73 -215 -73q-103 0 -167.5 57t-64.5 140q0 126 146 203q-78 85 -78 161q0 72 55.5 123t145.5 51zM307 626q-42 0 -68.5 -23.5
t-26.5 -57.5q0 -7 0.5 -13t3 -13t4.5 -11.5t7 -12t7.5 -11.5t9.5 -13t10.5 -13t13.5 -15t14 -16q67 28 94 55.5t27 61.5q0 35 -27 58.5t-69 23.5zM415 134l-162 177q-95 -47 -95 -122q0 -45 34 -75t88 -30q75 0 135 50z" />
    <glyph glyph-name="quotesingle" unicode="'" horiz-adv-x="196" 
d="M137 397h-78l-24 308h126z" />
    <glyph glyph-name="parenleft" unicode="(" horiz-adv-x="428" 
d="M274 794h129q-96 -91 -145 -205.5t-49 -236.5t49 -236.5t145 -205.5h-129q-174 187 -174 442t174 442z" />
    <glyph glyph-name="parenright" unicode=")" horiz-adv-x="428" 
d="M25 794h129q174 -187 174 -442t-174 -442h-129q96 91 145 205.5t49 236.5t-49 236.5t-145 205.5z" />
    <glyph glyph-name="asterisk" unicode="*" horiz-adv-x="415" 
d="M247 593l94 59l43 -74l-99 -53l99 -53l-43 -74l-94 59l4 -112h-86l4 112l-94 -59l-43 74l99 53l-99 53l43 74l94 -60l-4 113h86z" />
    <glyph glyph-name="plus" unicode="+" horiz-adv-x="678" 
d="M598 312h-210v-211h-96v211h-212v96h212v211h96v-211h210v-96z" />
    <glyph glyph-name="comma" unicode="," horiz-adv-x="253" 
d="M91 -141h-81l59 284h114z" />
    <glyph glyph-name="hyphen" unicode="-" horiz-adv-x="492" 
d="M412 213h-332v85h332v-85z" />
    <glyph glyph-name="period" unicode="." horiz-adv-x="221" 
d="M111 132q30 0 51.5 -21.5t21.5 -51.5q0 -31 -21.5 -52.5t-51.5 -21.5q-31 0 -52.5 21.5t-21.5 52.5q0 30 21.5 51.5t52.5 21.5z" />
    <glyph glyph-name="slash" unicode="/" horiz-adv-x="399" 
d="M87 -119h-107l334 943h105z" />
    <glyph glyph-name="zero" unicode="0" horiz-adv-x="621" 
d="M311 720q76 0 131 -34t84 -90.5t42 -117t13 -126.5q0 -52 -7.5 -100.5t-27 -98t-49 -86t-77.5 -59.5t-109 -23t-109.5 23t-78 59.5t-49 86t-27 98t-7.5 100.5q0 66 13 126.5t42 117t84.5 90.5t131.5 34zM311 619q-40 0 -70 -22.5t-47 -61.5t-25 -84.5t-8 -98.5
q0 -52 8 -97.5t25 -84.5t47 -61.5t70 -22.5q53 0 87.5 40.5t48 97.5t13.5 128q0 72 -13.5 129t-48 97.5t-87.5 40.5z" />
    <glyph glyph-name="one" unicode="1" horiz-adv-x="347" 
d="M276 0h-119v569l-125 -83v123l144 96h100v-705z" />
    <glyph glyph-name="two" unicode="2" horiz-adv-x="543" 
d="M275 720q115 0 175 -62t60 -143q0 -38 -12 -69.5t-41 -62.5t-47.5 -46.5t-62.5 -49.5q-6 -4 -25.5 -18.5t-26 -19.5t-23.5 -18t-24.5 -20t-20 -19.5t-18.5 -21.5t-13.5 -21t-11 -24t-4.5 -24h335v-101h-482q-5 50 5 93.5t30.5 77.5t51 65t65 58.5t72.5 56.5l4.5 3t4 3
t4.5 3q70 52 95.5 82.5t25.5 72.5q0 44 -31.5 74t-85.5 30q-71 0 -101.5 -51t-8.5 -109l-118 -22q-32 117 35.5 200t193.5 83z" />
    <glyph glyph-name="three" unicode="3" horiz-adv-x="568" 
d="M513 623l-178 -187q94 -15 147 -76.5t53 -141.5q0 -41 -15.5 -81t-45.5 -74.5t-81 -56t-114 -21.5q-109 0 -177.5 64t-76.5 153l115 24q2 -62 40 -101t100 -39q63 0 99.5 38.5t36.5 93.5q0 57 -38 94t-101 37q-26 0 -45 -5l-39 80l171 180h-302v101h451v-82z" />
    <glyph glyph-name="four" unicode="4" horiz-adv-x="589" 
d="M477 256h97v-101h-97v-155h-113v155h-332v99l314 451h131v-449zM152 256h211v301z" />
    <glyph glyph-name="five" unicode="5" horiz-adv-x="570" 
d="M496 604h-311l-25 -190q62 48 149 48q104 0 168 -67t64 -166q0 -100 -69.5 -172t-189.5 -72q-108 0 -175 60.5t-79 146.5l113 27q3 -56 41 -94.5t100 -38.5q63 0 101.5 40t38.5 100q0 61 -36.5 100.5t-98.5 39.5q-82 0 -130 -68l-109 44l47 363h401v-101z" />
    <glyph glyph-name="six" unicode="6" horiz-adv-x="573" 
d="M383 705l-140 -264q28 13 67 13q107 0 171 -68t64 -160q0 -96 -68 -168.5t-184 -72.5q-115 0 -184 71t-69 163q0 52 15.5 94.5t47.5 102.5l153 289h127zM294 359q-61 0 -98 -41t-37 -96t36.5 -95.5t97.5 -40.5q60 0 96.5 40.5t36.5 95.5q0 56 -36 96.5t-96 40.5z" />
    <glyph glyph-name="seven" unicode="7" horiz-adv-x="502" 
d="M497 618l-244 -618h-124l239 604h-249v-85h-114v186h492v-87z" />
    <glyph glyph-name="eight" unicode="8" horiz-adv-x="600" 
d="M300 720q113 0 173.5 -56t60.5 -130q0 -94 -95 -159q122 -61 122 -180q0 -86 -66.5 -148t-194.5 -62q-129 0 -195.5 62t-66.5 148q0 119 122 180q-95 65 -95 159q0 74 61 130t174 56zM300 619q-52 0 -84.5 -27t-32.5 -69q0 -41 32 -71.5t85 -30.5q52 0 84 30.5t32 71.5
q0 42 -32.5 69t-83.5 27zM300 324q-64 0 -103.5 -33t-39.5 -86t38 -86t105 -33q66 0 104 33t38 86t-39 86t-103 33z" />
    <glyph glyph-name="nine" unicode="9" horiz-adv-x="578" 
d="M286 720q114 0 183 -71t69 -163q0 -51 -15.5 -95t-47.5 -102l-156 -289h-128l141 260q-26 -11 -58 -11q-110 0 -175.5 68t-65.5 162q0 96 68 168.5t185 72.5zM286 619q-61 0 -97.5 -40.5t-36.5 -95.5q0 -56 36 -96.5t96 -40.5q61 0 98 41t37 96t-36.5 95.5t-96.5 40.5z
" />
    <glyph glyph-name="colon" unicode=":" horiz-adv-x="221" 
d="M111 445q30 0 51.5 -21.5t21.5 -51.5q0 -31 -21.5 -52.5t-51.5 -21.5q-31 0 -52.5 21.5t-21.5 52.5q0 30 21.5 51.5t52.5 21.5zM111 132q30 0 51.5 -21.5t21.5 -51.5q0 -31 -21.5 -52.5t-51.5 -21.5q-31 0 -52.5 21.5t-21.5 52.5q0 30 21.5 51.5t52.5 21.5z" />
    <glyph glyph-name="semicolon" unicode=";" horiz-adv-x="260" 
d="M117 445q30 0 51.5 -21.5t21.5 -51.5q0 -31 -21.5 -52.5t-51.5 -21.5q-31 0 -52.5 21.5t-21.5 52.5q0 30 21.5 51.5t52.5 21.5zM81 -141h-81l59 284h114z" />
    <glyph glyph-name="less" unicode="&#x3c;" horiz-adv-x="640" 
d="M560 508l-343 -127l343 -127v-101l-480 177v102l480 177v-101z" />
    <glyph glyph-name="equal" unicode="=" horiz-adv-x="683" 
d="M603 432h-523v97h523v-97zM603 189h-523v97h523v-97z" />
    <glyph glyph-name="greater" unicode="&#x3e;" horiz-adv-x="640" 
d="M560 432v-102l-480 -177v101l343 127l-343 127v101z" />
    <glyph glyph-name="question" unicode="?" horiz-adv-x="500" 
d="M247 720q105 0 164.5 -54.5t59.5 -125.5q0 -45 -21 -80.5t-50 -59t-57.5 -47.5t-45.5 -58.5t-11 -80.5h-104q-6 54 8.5 95.5t40 67t52 47.5t46 48.5t19.5 57.5q0 37 -27.5 63t-76.5 26q-52 0 -81.5 -32.5t-28.5 -77.5l-111 18q6 81 65 137t159 56zM235 125q29 0 50 -20.5
t21 -49.5t-21 -49.5t-50 -20.5t-49.5 20.5t-20.5 49.5t20.5 49.5t49.5 20.5z" />
    <glyph glyph-name="at" unicode="@" horiz-adv-x="955" 
d="M477 663q192 0 315.5 -126t123.5 -305q0 -112 -53 -172t-128 -60q-45 0 -80.5 23.5t-51.5 58.5q-29 -38 -73.5 -57.5t-86.5 -19.5q-91 0 -150 63t-59 156t59 156.5t150 63.5q40 0 79.5 -17.5t65.5 -51.5l14 56h78v-267q0 -32 15 -52.5t41 -20.5q36 0 56.5 37.5t20.5 99.5
q0 145 -92 243t-244 98q-151 0 -243.5 -98.5t-92.5 -240.5q0 -143 92 -241t245 -98q94 0 169 42l41 -86q-97 -50 -212 -50q-126 0 -227.5 59t-156 157.5t-54.5 216.5q0 87 32.5 166t89 138t139.5 94t178 35zM459 358q-57 0 -90 -38t-33 -96q0 -57 33 -95t90 -38
q52 0 85.5 39t33.5 94t-33.5 94.5t-85.5 39.5z" />
    <glyph glyph-name="A" unicode="A" horiz-adv-x="702" 
d="M702 0h-129l-65 162h-315l-64 -162h-129l301 705h99zM233 263h236l-118 294z" />
    <glyph glyph-name="B" unicode="B" horiz-adv-x="682" 
d="M80 705h298q98 0 156.5 -51.5t58.5 -129.5q0 -88 -79 -144q57 -22 93.5 -69t36.5 -108q0 -87 -65.5 -145t-170.5 -58h-328v705zM199 604v-186h174q47 0 75.5 26t28.5 67q0 42 -28.5 67.5t-78.5 25.5h-171zM199 317v-216h196q60 0 95 28t35 80t-34.5 80t-94.5 28h-197z
" />
    <glyph glyph-name="C" unicode="C" horiz-adv-x="775" 
d="M406 720q116 0 205.5 -61.5t125.5 -176.5l-109 -30q-25 78 -84 120t-139 42q-109 0 -177.5 -73t-68.5 -189q0 -115 68.5 -188t177.5 -73q80 0 139 42t84 120l109 -30q-36 -115 -125.5 -176.5t-205.5 -61.5q-164 0 -266 107t-102 260q0 154 102 261t266 107z" />
    <glyph glyph-name="D" unicode="D" horiz-adv-x="737" 
d="M80 705h264q108 0 190.5 -50.5t123 -129.5t40.5 -172t-40.5 -172t-123 -130t-190.5 -51h-264v705zM199 604v-503h136q107 0 175 68t68 184t-68 183.5t-175 67.5h-136z" />
    <glyph glyph-name="E" unicode="E" 
d="M582 604h-383v-186h316v-101h-316v-216h383v-101h-502v705h502v-101z" />
    <glyph glyph-name="F" unicode="F" horiz-adv-x="617" 
d="M582 604h-383v-186h316v-101h-316v-317h-119v705h502v-101z" />
    <glyph glyph-name="G" unicode="G" horiz-adv-x="811" 
d="M406 720q108 0 193.5 -53.5t127.5 -157.5l-107 -36q-29 69 -85 105t-130 36q-109 0 -177.5 -73t-68.5 -189q0 -115 68.5 -188t176.5 -73q94 0 153.5 53t73.5 137h-259v101h358v-384h-78l-20 91q-78 -104 -229 -104q-162 0 -263.5 107t-101.5 260q0 154 102 261t266 107z
" />
    <glyph glyph-name="H" unicode="H" horiz-adv-x="749" 
d="M669 0h-119v309h-351v-309h-119v705h119v-295h351v295h119v-705z" />
    <glyph glyph-name="I" unicode="I" horiz-adv-x="279" 
d="M199 0h-119v705h119v-705z" />
    <glyph glyph-name="J" unicode="J" horiz-adv-x="363" 
d="M293 705v-542q0 -102 -76.5 -152.5t-186.5 -4.5l24 91q52 -18 86 1.5t34 70.5v435h-115v101h234z" />
    <glyph glyph-name="K" unicode="K" horiz-adv-x="690" 
d="M375 424l300 -424h-143l-237 336l-96 -103v-233h-119v705h119v-309l287 309h148z" />
    <glyph glyph-name="L" unicode="L" horiz-adv-x="567" 
d="M199 101h343v-101h-462v705h119v-604z" />
    <glyph glyph-name="M" unicode="M" horiz-adv-x="913" 
d="M833 0h-119v443l-231 -443h-53l-231 443v-443h-119v705h100l277 -527l276 527h100v-705z" />
    <glyph glyph-name="N" unicode="N" horiz-adv-x="756" 
d="M675 0h-100l-376 498v-498h-119v705h100l376 -498v498h119v-705z" />
    <glyph glyph-name="O" unicode="O" horiz-adv-x="817" 
d="M408 720q164 0 267 -107t103 -261q0 -153 -103 -260t-267 -107t-267 107t-103 260q0 154 103 261t267 107zM408 614q-108 0 -178.5 -73.5t-70.5 -188.5q0 -114 70.5 -187.5t178.5 -73.5t179 73.5t71 187.5q0 115 -70.5 188.5t-179.5 73.5z" />
    <glyph glyph-name="P" unicode="P" horiz-adv-x="704" 
d="M80 705h361q109 0 167 -57.5t58 -142.5t-58 -142.5t-167 -57.5h-242v-305h-119v705zM199 604v-198h237q52 0 81.5 27.5t29.5 71.5t-29.5 71.5t-81.5 27.5h-237z" />
    <glyph glyph-name="Q" unicode="Q" horiz-adv-x="817" 
d="M408 720q164 0 267 -107t103 -261q0 -78 -29.5 -148t-83.5 -120l81 -112l-83 -60l-81 113q-77 -40 -174 -40q-164 0 -267 107t-103 260q0 154 103 261t267 107zM408 614q-108 0 -178.5 -73.5t-70.5 -188.5q0 -114 70.5 -187.5t178.5 -73.5q62 0 109 25l-170 235h126
l123 -171q62 72 62 172q0 115 -70.5 188.5t-179.5 73.5z" />
    <glyph glyph-name="R" unicode="R" horiz-adv-x="726" 
d="M80 705h306q109 0 167 -57.5t58 -142.5q0 -64 -35.5 -110.5t-103.5 -69.5l215 -325h-138l-202 305h-148v-305h-119v705zM199 604v-198h183q52 0 81 27.5t29 71.5q0 45 -29 72t-81 27h-183z" />
    <glyph glyph-name="S" unicode="S" 
d="M318 720q93 0 165 -46t109 -133l-104 -37q-51 115 -173 115q-55 0 -90 -25t-35 -65q0 -32 23 -53.5t60 -33.5t81 -22.5t88.5 -26t81.5 -37t60 -62t23 -96.5q0 -96 -76.5 -154.5t-191.5 -58.5q-48 0 -92 10.5t-87 34t-77 67t-53 103.5l105 37q24 -76 79 -113.5t129 -37.5
q63 0 104 29t41 77q0 36 -23 60.5t-59.5 38t-81 25t-89 26t-81 35.5t-59.5 59.5t-23 92.5q0 81 70 136t176 55z" />
    <glyph glyph-name="T" unicode="T" horiz-adv-x="557" 
d="M541 604h-203v-604h-119v604h-202v101h524v-101z" />
    <glyph glyph-name="U" unicode="U" horiz-adv-x="753" 
d="M672 705v-437q0 -52 -16 -100t-49 -90.5t-92.5 -67.5t-138.5 -25q-63 0 -114.5 17t-84.5 44.5t-55.5 65t-32 76.5t-9.5 80v437h119v-428q0 -88 44.5 -139.5t132.5 -51.5q89 0 133 51.5t44 139.5v428h119z" />
    <glyph glyph-name="V" unicode="V" horiz-adv-x="705" 
d="M402 0h-99l-293 705h129l214 -530l213 530h129z" />
    <glyph glyph-name="W" unicode="W" horiz-adv-x="981" 
d="M734 0h-100l-143 438l-144 -438h-100l-237 705h126l164 -496l166 496h49l166 -496l164 496h126z" />
    <glyph glyph-name="X" unicode="X" horiz-adv-x="712" 
d="M428 366l274 -366h-143l-203 268l-203 -268h-143l275 366l-255 339h144l182 -241l183 241h144z" />
    <glyph glyph-name="Y" unicode="Y" horiz-adv-x="696" 
d="M408 302v-302h-119v302l-279 403h143l195 -289l196 289h142z" />
    <glyph glyph-name="Z" unicode="Z" 
d="M579 619l-388 -518h403v-101h-556v86l388 518h-375v101h528v-86z" />
    <glyph glyph-name="bracketleft" unicode="[" horiz-adv-x="335" 
d="M310 699h-103v-694h103v-95h-210v884h210v-95z" />
    <glyph glyph-name="backslash" unicode="\" horiz-adv-x="399" 
d="M105 824l334 -943h-107l-332 943h105z" />
    <glyph glyph-name="bracketright" unicode="]" horiz-adv-x="335" 
d="M235 794v-884h-210v95h103v694h-103v95h210z" />
    <glyph glyph-name="asciicircum" unicode="^" horiz-adv-x="548" 
d="M498 449h-118l-106 166l-107 -166h-117l165 256h118z" />
    <glyph glyph-name="underscore" unicode="_" horiz-adv-x="558" 
d="M558 0h-558v80h558v-80z" />
    <glyph glyph-name="grave" unicode="`" horiz-adv-x="289" 
d="M174 693l65 -174h-81l-108 174h124z" />
    <glyph glyph-name="a" unicode="a" horiz-adv-x="597" 
d="M264 469q43 0 86.5 -19.5t72.5 -56.5l16 61h86v-454h-86l-16 60q-29 -36 -72.5 -55.5t-86.5 -19.5q-99 0 -165 70t-66 172q0 101 66 171.5t165 70.5zM281 373q-59 0 -96 -42t-37 -104t36.5 -104t96.5 -42q58 0 94.5 41.5t36.5 104.5q0 62 -36.5 104t-94.5 42z" />
    <glyph glyph-name="b" unicode="b" horiz-adv-x="596" 
d="M184 705v-300q62 64 149 64q98 0 163.5 -69.5t65.5 -172.5t-65 -172.5t-164 -69.5q-44 0 -87.5 19t-72.5 56l-16 -60h-87v705h114zM318 373q-59 0 -96.5 -42t-37.5 -104q0 -63 37.5 -104.5t96.5 -41.5q58 0 94 42t36 104q0 61 -36 103.5t-94 42.5z" />
    <glyph glyph-name="c" unicode="c" horiz-adv-x="536" 
d="M281 469q79 0 139 -43t82 -121l-105 -24q-12 42 -43 67t-76 25q-54 0 -92 -39t-38 -107t38 -107t92 -39q45 0 76 24.5t43 66.5l105 -23q-22 -78 -82 -121t-139 -43q-109 0 -178.5 70.5t-69.5 171.5t69.5 171.5t178.5 70.5z" />
    <glyph glyph-name="d" unicode="d" horiz-adv-x="596" 
d="M525 0h-86l-16 60q-29 -36 -72.5 -55.5t-86.5 -19.5q-99 0 -165 70t-66 172q0 101 66 171.5t165 70.5q39 0 79 -17t68 -47v300h114v-705zM281 373q-60 0 -96.5 -42.5t-36.5 -103.5t36.5 -103.5t96.5 -42.5q58 0 94.5 42.5t36.5 103.5t-36.5 103.5t-94.5 42.5z" />
    <glyph glyph-name="e" unicode="e" horiz-adv-x="546" 
d="M282 469q90 0 160 -64t70 -179l-2 -25h-361q4 -57 40.5 -90.5t89.5 -33.5q82 0 118 76l94 -45q-30 -58 -85.5 -90.5t-121.5 -32.5q-111 0 -181 70t-70 172q0 101 70 171.5t179 70.5zM280 383q-49 0 -83.5 -30.5t-40.5 -76.5h241q-5 48 -37 77.5t-80 29.5z" />
    <glyph glyph-name="f" unicode="f" horiz-adv-x="409" 
d="M399 688l-35 -92l-32 12q-41 15 -68.5 -3.5t-27.5 -56.5v-94h154v-96h-154v-358h-114v358h-112v96h112v96q0 104 73.5 147.5t164.5 6.5z" />
    <glyph glyph-name="g" unicode="g" horiz-adv-x="593" 
d="M265 469q44 0 87 -19t72 -55l16 59h86v-448q0 -103 -64 -175.5t-188 -72.5q-97 0 -164 54.5t-77 155.5l107 18q3 -64 41 -98t97 -34q70 0 102 41t32 97v78q-59 -61 -147 -61q-99 0 -164.5 65.5t-65.5 164.5t65.5 164.5t164.5 65.5zM282 373q-59 0 -96 -38t-37 -96
q0 -57 37.5 -95.5t95.5 -38.5q57 0 94 38.5t37 95.5q0 58 -37 96t-94 38z" />
    <glyph glyph-name="h" unicode="h" horiz-adv-x="607" 
d="M184 705v-302q64 66 159 66q90 0 145.5 -58.5t55.5 -151.5v-259h-114v247q0 58 -30 92t-84 34t-93 -39t-39 -101v-233h-114v705h114z" />
    <glyph glyph-name="i" unicode="i" horiz-adv-x="273" 
d="M138 657q28 0 48 -19.5t20 -48.5t-19.5 -48.5t-48.5 -19.5t-48.5 19.5t-19.5 48.5t19.5 48.5t48.5 19.5zM196 0h-114v454h114v-454z" />
    <glyph glyph-name="j" unicode="j" horiz-adv-x="282" 
d="M151 657q29 0 48.5 -19.5t19.5 -48.5t-19.5 -48.5t-48.5 -19.5t-48.5 19.5t-19.5 48.5t19.5 48.5t48.5 19.5zM208 454v-527q0 -104 -73 -147.5t-165 -6.5l-38 16l34 92l32 -12q41 -15 68.5 3.5t27.5 56.5v525h114z" />
    <glyph glyph-name="k" unicode="k" horiz-adv-x="562" 
d="M184 255l196 199h134l-173 -180l214 -274h-132l-155 196l-84 -84v-112h-114v705h114v-450z" />
    <glyph glyph-name="l" unicode="l" horiz-adv-x="254" 
d="M184 0h-114v705h114v-705z" />
    <glyph glyph-name="m" unicode="m" horiz-adv-x="908" 
d="M660 469q86 0 135.5 -54t49.5 -148v-267h-114v261q0 54 -25.5 83t-73.5 29q-49 0 -83.5 -35.5t-34.5 -94.5v-243h-114v261q0 54 -25 83t-73 29q-49 0 -83.5 -35.5t-34.5 -94.5v-243h-114v454h87l16 -59q66 74 158 74q55 0 95.5 -25t61.5 -67q30 43 77 67.5t95 24.5z" />
    <glyph glyph-name="n" unicode="n" horiz-adv-x="607" 
d="M343 469q90 0 145.5 -58.5t55.5 -151.5v-259h-114v247q0 58 -30 92t-84 34t-93 -39t-39 -101v-233h-114v454h87l16 -61q71 76 170 76z" />
    <glyph glyph-name="o" unicode="o" horiz-adv-x="563" 
d="M281 469q110 0 179 -70t69 -172q0 -103 -69 -172.5t-179 -69.5t-179 69.5t-69 172.5q0 102 69 172t179 70zM282 373q-59 0 -96.5 -41.5t-37.5 -104.5t37.5 -104.5t96.5 -41.5q58 0 95.5 41.5t37.5 104.5t-37.5 104.5t-95.5 41.5z" />
    <glyph glyph-name="p" unicode="p" horiz-adv-x="596" 
d="M333 469q99 0 164 -69.5t65 -172.5t-65.5 -172.5t-163.5 -69.5q-88 0 -149 64v-264h-114v669h87l16 -61q29 37 72.5 56.5t87.5 19.5zM318 373q-59 0 -96.5 -42t-37.5 -104t37.5 -104t96.5 -42q58 0 94 42t36 104t-36 104t-94 42z" />
    <glyph glyph-name="q" unicode="q" horiz-adv-x="592" 
d="M264 469q43 0 86.5 -19.5t72.5 -56.5l16 61h86v-669h-114v264q-28 -30 -68 -47t-79 -17q-99 0 -165 70t-66 172t66 172t165 70zM281 373q-60 0 -96.5 -42.5t-36.5 -103.5t36.5 -103.5t96.5 -42.5q58 0 94.5 42.5t36.5 103.5t-36.5 103.5t-94.5 42.5z" />
    <glyph glyph-name="r" unicode="r" horiz-adv-x="408" 
d="M157 454l15 -57q36 49 95.5 64.5t120.5 -9.5l-35 -96q-68 29 -118.5 -5.5t-50.5 -106.5v-244h-114v454h87z" />
    <glyph glyph-name="s" unicode="s" horiz-adv-x="462" 
d="M233 469q67 0 118.5 -28.5t80.5 -79.5l-85 -36q-40 68 -112 68q-30 0 -50.5 -12t-20.5 -32q0 -24 26 -37t83 -28q88 -24 128 -59.5t40 -97.5q0 -59 -54 -100.5t-141 -41.5q-70 0 -130.5 34t-87.5 98l89 38q17 -39 52.5 -64.5t80.5 -25.5q33 0 55 15t22 39q0 29 -24 44
t-80 29q-83 22 -126.5 57.5t-43.5 91.5q0 55 50 91.5t130 36.5z" />
    <glyph glyph-name="t" unicode="t" horiz-adv-x="440" 
d="M239 454h159v-96h-159v-200q0 -38 27.5 -56.5t68.5 -4.5l32 12l35 -92l-39 -15q-91 -38 -164.5 5.5t-73.5 147.5v203h-112v96h112v144h114v-144z" />
    <glyph glyph-name="u" unicode="u" horiz-adv-x="614" 
d="M544 0h-87l-16 60q-72 -75 -171 -75q-89 0 -144.5 58.5t-55.5 150.5v260h114v-248q0 -58 30 -91.5t84 -33.5t93 39t39 100v234h114v-454z" />
    <glyph glyph-name="v" unicode="v" horiz-adv-x="535" 
d="M311 0h-87l-214 454h125l132 -302l133 302h125z" />
    <glyph glyph-name="w" unicode="w" horiz-adv-x="738" 
d="M562 0h-93l-100 275l-100 -275h-93l-166 454h115l104 -285l104 285h73l104 -285l104 285h114z" />
    <glyph glyph-name="x" unicode="x" horiz-adv-x="499" 
d="M314 232l175 -232h-129l-111 144l-110 -144h-129l175 231l-167 223h128l104 -134l103 134h128z" />
    <glyph glyph-name="y" unicode="y" horiz-adv-x="547" 
d="M220 -215h-119l119 254l-210 415h126l145 -298l134 298h122z" />
    <glyph glyph-name="z" unicode="z" horiz-adv-x="470" 
d="M436 381l-259 -285h273v-96h-430v74l259 284h-245v96h402v-73z" />
    <glyph glyph-name="braceleft" unicode="{" horiz-adv-x="419" 
d="M394 699h-14q-64 0 -64 -73v-148q0 -97 -89 -124v-4q89 -27 89 -124v-148q0 -73 64 -73h14v-95h-35q-150 0 -150 154v132q0 59 -26.5 81.5t-82.5 22.5v104q56 0 82.5 23t26.5 81v132q0 154 150 154h35v-95z" />
    <glyph glyph-name="bar" unicode="|" horiz-adv-x="209" 
d="M164 -127h-119v959h119v-959z" />
    <glyph glyph-name="braceright" unicode="}" horiz-adv-x="419" 
d="M25 794h35q150 0 150 -154v-132q0 -58 26.5 -81t82.5 -23v-104q-56 0 -82.5 -22.5t-26.5 -81.5v-132q0 -154 -150 -154h-35v95h14q64 0 64 73v148q0 97 89 124v4q-89 27 -89 124v148q0 73 -64 73h-14v95z" />
    <glyph glyph-name="asciitilde" unicode="~" horiz-adv-x="741" 
d="M234 471q43 0 82 -21.5t63.5 -46.5t56.5 -46.5t63 -21.5q34 0 53 21t19 47.5t-6 51.5h91q17 -98 -28.5 -156.5t-125.5 -58.5q-37 0 -69 14t-55.5 34t-44.5 40t-46 34t-51 14q-47 0 -62.5 -37.5t-2.5 -82.5h-86q-18 101 27.5 158t121.5 57z" />
    <glyph glyph-name="uni00A0" unicode="&#xa0;" horiz-adv-x="230" 
 />
    <glyph glyph-name="exclamdown" unicode="&#xa1;" horiz-adv-x="308" 
d="M154 365q-28 0 -49 20.5t-21 49.5t20.5 49.5t49.5 20.5t50 -20.5t21 -49.5t-21 -49.5t-50 -20.5zM86 -215l24 488h89l24 -488h-137z" />
    <glyph glyph-name="cent" unicode="&#xa2;" horiz-adv-x="536" 
d="M278 81q45 0 76 25t43 67l105 -24q-19 -67 -66.5 -108.5t-112.5 -52.5v-102h-101v105q-86 18 -137.5 84t-51.5 152q0 87 51.5 152t137.5 84v105h101v-102q65 -11 112.5 -52.5t66.5 -108.5l-105 -23q-12 42 -43 66.5t-76 24.5q-54 0 -92 -39t-38 -107t38 -107t92 -39z" />
    <glyph glyph-name="sterling" unicode="&#xa3;" horiz-adv-x="666" 
d="M358 720q99 0 156.5 -54.5t64.5 -141.5l-110 -18q-3 57 -34 85t-76 28q-41 0 -69.5 -24t-34.5 -63q-11 -48 9 -133h168v-87h-154q25 -133 -42 -209v-2h365v-101h-536v79q138 36 100 233h-91v87h74q-36 155 35 245q58 76 175 76z" />
    <glyph glyph-name="currency" unicode="&#xa4;" horiz-adv-x="628" 
d="M590 418l-63 -63q36 -58 36 -128q0 -75 -38 -133l65 -64l-74 -73l-65 66q-60 -38 -137 -38q-78 0 -136 39l-67 -67l-73 73l65 65q-37 59 -37 132q0 69 35 128l-63 63l73 73l63 -63q60 41 140 41q79 0 141 -40l61 62zM315 373q-59 0 -96.5 -41.5t-37.5 -104.5t37.5 -104.5
t96.5 -41.5q58 0 95.5 41.5t37.5 104.5t-37.5 104.5t-95.5 41.5z" />
    <glyph glyph-name="yen" unicode="&#xa5;" horiz-adv-x="696" 
d="M487 417h88v-75h-139l-28 -40v-29h167v-74h-167v-199h-119v199h-207v74h207v29l-28 40h-179v75h127l-199 288h143l194 -288h2l195 288h142z" />
    <glyph glyph-name="brokenbar" unicode="&#xa6;" horiz-adv-x="209" 
d="M164 403h-119v429h119v-429zM164 -127h-119v429h119v-429z" />
    <glyph glyph-name="section" unicode="&#xa7;" 
d="M318 720q93 0 165 -46t109 -133l-104 -37q-51 115 -173 115q-55 0 -90 -25t-35 -65q0 -32 23 -53.5t60 -33.5t81 -22.5t88.5 -26t81.5 -37t60 -62t23 -96.5q0 -91 -70 -148q28 -42 28 -101q0 -81 -69.5 -136t-175.5 -55q-94 0 -166 46t-108 133l104 37q50 -115 173 -115
q55 0 90 25t35 65q0 32 -23 53.5t-60 33.5t-81.5 22.5t-89 26t-81.5 37t-60 62t-23 96.5q0 91 70 148q-28 42 -28 101q0 81 70 136t176 55zM187 361q-38 -29 -38 -75q0 -42 32 -69t73 -38t101.5 -27.5t95.5 -34.5q37 31 37 75q0 42 -32 69t-72.5 38t-101 27.5t-95.5 34.5z
" />
    <glyph glyph-name="dieresis" unicode="&#xa8;" horiz-adv-x="442" 
d="M118 668q28 0 48 -20t20 -48t-20 -47.5t-48 -19.5t-48 19.5t-20 47.5t20 48t48 20zM324 668q28 0 48 -20t20 -48t-20 -47.5t-48 -19.5t-48 19.5t-20 47.5t20 48t48 20z" />
    <glyph glyph-name="copyright" unicode="&#xa9;" horiz-adv-x="811" 
d="M405 719q152 0 259.5 -107.5t107.5 -259.5t-107.5 -259.5t-259.5 -107.5t-259.5 107.5t-107.5 259.5t107.5 259.5t259.5 107.5zM405 655q-125 0 -214 -88.5t-89 -214.5t89 -214.5t214 -88.5q126 0 214.5 88.5t88.5 214.5t-88.5 214.5t-214.5 88.5zM413 537
q59 0 104.5 -31t63.5 -90l-61 -18q-25 79 -107 79q-52 0 -84.5 -35.5t-32.5 -91.5q0 -55 32.5 -90t84.5 -35q82 0 107 79l61 -19q-18 -58 -63.5 -89t-104.5 -31q-83 0 -134 54t-51 131q0 78 51 132.5t134 54.5z" />
    <glyph glyph-name="ordfeminine" unicode="&#xaa;" horiz-adv-x="471" 
d="M209 716q71 0 114 -57l12 46h64v-338h-64l-12 45q-43 -57 -114 -57q-76 0 -126 52.5t-50 128.5q0 75 50 127.5t126 52.5zM218 641q-43 0 -69.5 -30.5t-26.5 -74.5q0 -45 26.5 -75.5t69.5 -30.5q42 0 68 30.5t26 75.5q0 44 -26 74.5t-68 30.5z" />
    <glyph glyph-name="guillemotleft" unicode="&#xab;" horiz-adv-x="478" 
d="M255 347l-150 -110l150 -110v-99l-225 169v80l225 169v-99zM463 347l-150 -110l150 -110v-99l-225 169v80l225 169v-99z" />
    <glyph glyph-name="logicalnot" unicode="&#xac;" horiz-adv-x="678" 
d="M598 105h-99v206h-419v96h518v-302z" />
    <glyph glyph-name="softhyphen" unicode="&#xad;" horiz-adv-x="492" 
d="M412 213h-332v85h332v-85z" />
    <glyph glyph-name="registered" unicode="&#xae;" horiz-adv-x="811" 
d="M405 719q152 0 259.5 -107.5t107.5 -259.5t-107.5 -259.5t-259.5 -107.5t-259.5 107.5t-107.5 259.5t107.5 259.5t259.5 107.5zM405 655q-125 0 -214 -88.5t-89 -214.5t89 -214.5t214 -88.5q126 0 214.5 88.5t88.5 214.5t-88.5 214.5t-214.5 88.5zM273 529h155
q55 0 85 -29.5t30 -72.5q0 -32 -19 -56.5t-53 -36.5l113 -160h-76l-107 151h-62v-151h-66v355zM340 472v-91h85q25 0 39 12.5t14 33.5t-14 33t-39 12h-85z" />
    <glyph glyph-name="macron" unicode="&#xaf;" horiz-adv-x="435" 
d="M385 556h-360v83h360v-83z" />
    <glyph glyph-name="degree" unicode="&#xb0;" horiz-adv-x="344" 
d="M172 702q61 0 99 -40t38 -98t-38 -98t-99 -40t-99 40t-38 98t38 98t99 40zM172 629q-26 0 -42 -18.5t-16 -46.5t16 -47t42 -19t42 19t16 47t-16 46.5t-42 18.5z" />
    <glyph glyph-name="plusminus" unicode="&#xb1;" horiz-adv-x="678" 
d="M598 464v-96h-210v-211h-96v211h-212v96h212v211h96v-211h210zM80 96h518v-96h-518v96z" />
    <glyph glyph-name="acute" unicode="&#xb4;" horiz-adv-x="289" 
d="M131 519h-81l65 174h124z" />
    <glyph glyph-name="paragraph" unicode="&#xb6;" horiz-adv-x="772" 
d="M713 604h-108v-814h-114v814h-138v-814h-113v543q-91 0 -146.5 53t-55.5 133q0 79 55.5 132.5t146.5 53.5h473v-101zM241 604h-9q-40 0 -65.5 -25t-25.5 -61q0 -37 25 -62t66 -25h9v173z" />
    <glyph glyph-name="periodcentered" unicode="&#xb7;" horiz-adv-x="308" 
d="M154 424q30 0 51.5 -21.5t21.5 -52.5t-21.5 -52.5t-51.5 -21.5q-31 0 -52.5 21.5t-21.5 52.5t21.5 52.5t52.5 21.5z" />
    <glyph glyph-name="cedilla" unicode="&#xb8;" horiz-adv-x="225" 
d="M155 -169h-105l42 169h83z" />
    <glyph glyph-name="ordmasculine" unicode="&#xba;" horiz-adv-x="436" 
d="M218 716q81 0 132.5 -52.5t51.5 -127.5q0 -77 -51 -129t-133 -52t-133.5 52t-51.5 129q0 75 51.5 127.5t133.5 52.5zM219 640q-43 0 -70 -30t-27 -74q0 -46 27 -76t70 -30q42 0 68.5 30t26.5 76q0 44 -27 74t-68 30z" />
    <glyph glyph-name="guillemotright" unicode="&#xbb;" horiz-adv-x="478" 
d="M240 277v-80l-225 -169v99l150 110l-150 110v99zM448 277v-80l-225 -169v99l150 110l-150 110v99z" />
    <glyph glyph-name="onequarter" unicode="&#xbc;" horiz-adv-x="710" 
d="M204 285h-91v314l-81 -52v94l100 64h72v-420zM211 0h-90l387 705h90zM637 161h58v-78h-58v-83h-87v83h-183v65l162 272h108v-259zM453 161h96v154z" />
    <glyph glyph-name="onehalf" unicode="&#xbd;" horiz-adv-x="757" 
d="M204 285h-91v314l-81 -52v94l100 64h72v-420zM211 0h-90l387 705h90zM581 425q73 0 109.5 -38t36.5 -86q0 -34 -17 -61t-42 -44.5t-51 -33t-46 -37t-24 -47.5h183v-78h-297q-6 72 24.5 122t99.5 96q6 4 18.5 11.5l17.5 10.5t14 9.5t12.5 11t8 10.5t6 12.5t1.5 14.5
q0 23 -15 36t-40 13q-35 0 -49.5 -24t-2.5 -54l-87 -15q-22 72 26 126q42 45 114 45z" />
    <glyph glyph-name="threequarters" unicode="&#xbe;" horiz-adv-x="817" 
d="M322 651l-94 -104q47 -12 76.5 -45.5t29.5 -81.5q0 -59 -44 -99.5t-111 -40.5q-62 0 -103 34.5t-51 85.5l84 22q3 -27 21.5 -45.5t47.5 -18.5q31 0 49 18.5t18 45.5t-17.5 45t-48.5 18q-16 0 -32 -7l-26 56l86 93h-163v78h278v-54zM316 0h-90l387 705h90zM744 161h58v-78
h-58v-83h-87v83h-183v65l162 272h108v-259zM560 161h96v154z" />
    <glyph glyph-name="questiondown" unicode="&#xbf;" horiz-adv-x="503" 
d="M267 353q-29 0 -50 20.5t-21 49.5t21 49.5t50 20.5t49.5 -20.5t20.5 -49.5t-20.5 -49.5t-49.5 -20.5zM255 -242q-105 0 -164.5 54.5t-59.5 125.5q0 45 21 80.5t50 59t57.5 47.5t45.5 58.5t11 80.5h104q6 -54 -8.5 -95.5t-40 -67t-52 -47.5t-46 -48.5t-19.5 -57.5
q0 -37 27.5 -63t76.5 -26q52 0 81.5 32.5t28.5 77.5l111 -18q-6 -81 -65 -137t-159 -56z" />
    <glyph glyph-name="Agrave" unicode="&#xc0;" horiz-adv-x="702" 
d="M317 909l68 -162h-81l-116 162h129zM702 0h-129l-65 162h-315l-64 -162h-129l301 705h99zM233 263h236l-118 294z" />
    <glyph glyph-name="Aacute" unicode="&#xc1;" horiz-adv-x="702" 
d="M396 747h-81l68 162h129zM702 0h-129l-65 162h-315l-64 -162h-129l301 705h99zM233 263h236l-118 294z" />
    <glyph glyph-name="Acircumflex" unicode="&#xc2;" horiz-adv-x="702" 
d="M429 747l-79 96l-78 -96h-82l99 162h123l99 -162h-82zM702 0h-129l-65 162h-315l-64 -162h-129l301 705h99zM233 263h236l-118 294z" />
    <glyph glyph-name="Atilde" unicode="&#xc3;" horiz-adv-x="702" 
d="M260 920q30 0 57 -14t43 -30t37 -30t40 -14q52 0 43 72h65q10 -67 -21 -107.5t-85 -40.5q-39 0 -71 22t-57 44t-47 22q-28 0 -38.5 -21.5t-4.5 -49.5h-66q-9 67 21.5 107t83.5 40zM702 0h-129l-65 162h-315l-64 -162h-129l301 705h99zM233 263h236l-118 294z" />
    <glyph glyph-name="Adieresis" unicode="&#xc4;" horiz-adv-x="702" 
d="M242 899q30 0 51.5 -21t21.5 -51q0 -29 -22 -50t-51 -21q-30 0 -51.5 21t-21.5 50q0 30 21.5 51t51.5 21zM461 899q29 0 50.5 -21t21.5 -51q0 -29 -21.5 -50t-50.5 -21q-30 0 -51.5 21t-21.5 50q0 30 21.5 51t51.5 21zM702 0h-129l-65 162h-315l-64 -162h-129l301 705h99
zM233 263h236l-118 294z" />
    <glyph glyph-name="Aring" unicode="&#xc5;" horiz-adv-x="702" 
d="M702 0h-129l-65 162h-315l-64 -162h-129l298 698q-36 15 -57 47t-21 73q0 55 38 92.5t93 37.5t93 -37.5t38 -92.5q0 -41 -21.5 -73.5t-57.5 -47.5zM351 876q-25 0 -41.5 -17t-16.5 -42q0 -24 16.5 -41t41.5 -17t41.5 17t16.5 41q0 25 -16.5 42t-41.5 17zM469 263
l-118 294l-118 -294h236z" />
    <glyph glyph-name="AE" unicode="&#xc6;" horiz-adv-x="1092" 
d="M653 604v-186h316v-101h-316v-216h383v-101h-522v166h-276l-106 -166h-132l448 705h588v-101h-383zM513 599l-214 -336h214v336z" />
    <glyph glyph-name="Ccedilla" unicode="&#xc7;" horiz-adv-x="775" 
d="M405 91q80 0 139 42t84 120l109 -30q-32 -104 -109.5 -164.5t-179.5 -71.5l-18 -156h-105l39 156q-147 15 -236.5 119t-89.5 246q0 154 102 261t266 107q116 0 205.5 -61.5t125.5 -176.5l-109 -30q-25 78 -84 120t-139 42q-109 0 -177.5 -73t-68.5 -189q0 -115 68.5 -188
t177.5 -73z" />
    <glyph glyph-name="Egrave" unicode="&#xc8;" 
d="M311 909l68 -162h-81l-116 162h129zM582 604h-383v-186h316v-101h-316v-216h383v-101h-502v705h502v-101z" />
    <glyph glyph-name="Eacute" unicode="&#xc9;" 
d="M356 747h-81l68 162h129zM582 604h-383v-186h316v-101h-316v-216h383v-101h-502v705h502v-101z" />
    <glyph glyph-name="Ecircumflex" unicode="&#xca;" 
d="M410 747l-79 96l-78 -96h-82l99 162h123l99 -162h-82zM582 604h-383v-186h316v-101h-316v-216h383v-101h-502v705h502v-101z" />
    <glyph glyph-name="Edieresis" unicode="&#xcb;" 
d="M222 899q30 0 51.5 -21t21.5 -51q0 -29 -22 -50t-51 -21q-30 0 -51.5 21t-21.5 50q0 30 21.5 51t51.5 21zM441 899q29 0 50.5 -21t21.5 -51q0 -29 -21.5 -50t-50.5 -21q-30 0 -51.5 21t-21.5 50q0 30 21.5 51t51.5 21zM582 604h-383v-186h316v-101h-316v-216h383v-101
h-502v705h502v-101z" />
    <glyph glyph-name="Igrave" unicode="&#xcc;" horiz-adv-x="279" 
d="M111 909l68 -162h-81l-116 162h129zM199 0h-119v705h119v-705z" />
    <glyph glyph-name="Iacute" unicode="&#xcd;" horiz-adv-x="279" 
d="M179 747h-81l68 162h129zM199 0h-119v705h119v-705z" />
    <glyph glyph-name="Icircumflex" unicode="&#xce;" horiz-adv-x="279" 
d="M218 747l-79 96l-78 -96h-82l99 162h123l99 -162h-82zM199 0h-119v705h119v-705z" />
    <glyph glyph-name="Idieresis" unicode="&#xcf;" horiz-adv-x="280" 
d="M31 899q30 0 51.5 -21t21.5 -51q0 -29 -22 -50t-51 -21q-30 0 -51.5 21t-21.5 50q0 30 21.5 51t51.5 21zM250 899q29 0 50.5 -21t21.5 -51q0 -29 -21.5 -50t-50.5 -21q-30 0 -51.5 21t-21.5 50q0 30 21.5 51t51.5 21zM200 0h-119v705h119v-705z" />
    <glyph glyph-name="Eth" unicode="&#xd0;" horiz-adv-x="786" 
d="M129 705h264q108 0 190.5 -50.5t123 -129.5t40.5 -172t-40.5 -172t-123 -130t-190.5 -51h-264v311h-129v93h129v301zM248 101h136q107 0 175 68t68 184t-68 183.5t-175 67.5h-136v-200h161v-93h-161v-210z" />
    <glyph glyph-name="Ntilde" unicode="&#xd1;" horiz-adv-x="756" 
d="M287 920q30 0 57 -14t43 -30t37 -30t40 -14q52 0 43 72h65q10 -67 -21 -107.5t-85 -40.5q-39 0 -71 22t-57 44t-47 22q-28 0 -38.5 -21.5t-4.5 -49.5h-66q-9 67 21.5 107t83.5 40zM675 0h-100l-376 498v-498h-119v705h100l376 -498v498h119v-705z" />
    <glyph glyph-name="Ograve" unicode="&#xd2;" horiz-adv-x="817" 
d="M378 909l68 -162h-81l-116 162h129zM408 720q164 0 267 -107t103 -261q0 -153 -103 -260t-267 -107t-267 107t-103 260q0 154 103 261t267 107zM408 614q-108 0 -178.5 -73.5t-70.5 -188.5q0 -114 70.5 -187.5t178.5 -73.5t179 73.5t71 187.5q0 115 -70.5 188.5
t-179.5 73.5z" />
    <glyph glyph-name="Oacute" unicode="&#xd3;" horiz-adv-x="817" 
d="M452 747h-81l68 162h129zM408 720q164 0 267 -107t103 -261q0 -153 -103 -260t-267 -107t-267 107t-103 260q0 154 103 261t267 107zM408 614q-108 0 -178.5 -73.5t-70.5 -188.5q0 -114 70.5 -187.5t178.5 -73.5t179 73.5t71 187.5q0 115 -70.5 188.5t-179.5 73.5z" />
    <glyph glyph-name="Ocircumflex" unicode="&#xd4;" horiz-adv-x="817" 
d="M487 747l-79 96l-78 -96h-82l99 162h123l99 -162h-82zM408 720q164 0 267 -107t103 -261q0 -153 -103 -260t-267 -107t-267 107t-103 260q0 154 103 261t267 107zM408 614q-108 0 -178.5 -73.5t-70.5 -188.5q0 -114 70.5 -187.5t178.5 -73.5t179 73.5t71 187.5
q0 115 -70.5 188.5t-179.5 73.5z" />
    <glyph glyph-name="Otilde" unicode="&#xd5;" horiz-adv-x="817" 
d="M318 920q30 0 57 -14t43 -30t37 -30t40 -14q52 0 43 72h65q10 -67 -21 -107.5t-85 -40.5q-39 0 -71 22t-57 44t-47 22q-28 0 -38.5 -21.5t-4.5 -49.5h-66q-9 67 21.5 107t83.5 40zM408 720q164 0 267 -107t103 -261q0 -153 -103 -260t-267 -107t-267 107t-103 260
q0 154 103 261t267 107zM408 614q-108 0 -178.5 -73.5t-70.5 -188.5q0 -114 70.5 -187.5t178.5 -73.5t179 73.5t71 187.5q0 115 -70.5 188.5t-179.5 73.5z" />
    <glyph glyph-name="Odieresis" unicode="&#xd6;" horiz-adv-x="817" 
d="M299 899q30 0 51.5 -21t21.5 -51q0 -29 -22 -50t-51 -21q-30 0 -51.5 21t-21.5 50q0 30 21.5 51t51.5 21zM518 899q29 0 50.5 -21t21.5 -51q0 -29 -21.5 -50t-50.5 -21q-30 0 -51.5 21t-21.5 50q0 30 21.5 51t51.5 21zM408 720q164 0 267 -107t103 -261q0 -153 -103 -260
t-267 -107t-267 107t-103 260q0 154 103 261t267 107zM408 614q-108 0 -178.5 -73.5t-70.5 -188.5q0 -114 70.5 -187.5t178.5 -73.5t179 73.5t71 187.5q0 115 -70.5 188.5t-179.5 73.5z" />
    <glyph glyph-name="multiply" unicode="&#xd7;" horiz-adv-x="622" 
d="M542 524l-163 -163l163 -164l-68 -68l-163 164l-163 -164l-68 68l163 164l-163 162l68 68l163 -162l163 162z" />
    <glyph glyph-name="Oslash" unicode="&#xd8;" horiz-adv-x="858" 
d="M812 705l-99 -111q86 -102 86 -242q0 -153 -103 -260t-267 -107q-115 0 -207 58l-39 -43h-137l99 111q-86 102 -86 241q0 154 103 261t267 107q116 0 205 -57l38 42h140zM180 352q0 -86 43 -153l337 380q-56 35 -131 35q-108 0 -178.5 -73.5t-70.5 -188.5zM679 352
q0 89 -44 155l-338 -380q58 -36 132 -36q108 0 179 73.5t71 187.5z" />
    <glyph glyph-name="Ugrave" unicode="&#xd9;" horiz-adv-x="753" 
d="M350 909l68 -162h-81l-116 162h129zM672 705v-437q0 -52 -16 -100t-49 -90.5t-92.5 -67.5t-138.5 -25q-63 0 -114.5 17t-84.5 44.5t-55.5 65t-32 76.5t-9.5 80v437h119v-428q0 -88 44.5 -139.5t132.5 -51.5q89 0 133 51.5t44 139.5v428h119z" />
    <glyph glyph-name="Uacute" unicode="&#xda;" horiz-adv-x="753" 
d="M409 747h-81l68 162h129zM672 705v-437q0 -52 -16 -100t-49 -90.5t-92.5 -67.5t-138.5 -25q-63 0 -114.5 17t-84.5 44.5t-55.5 65t-32 76.5t-9.5 80v437h119v-428q0 -88 44.5 -139.5t132.5 -51.5q89 0 133 51.5t44 139.5v428h119z" />
    <glyph glyph-name="Ucircumflex" unicode="&#xdb;" horiz-adv-x="753" 
d="M455 747l-79 96l-78 -96h-82l99 162h123l99 -162h-82zM672 705v-437q0 -52 -16 -100t-49 -90.5t-92.5 -67.5t-138.5 -25q-63 0 -114.5 17t-84.5 44.5t-55.5 65t-32 76.5t-9.5 80v437h119v-428q0 -88 44.5 -139.5t132.5 -51.5q89 0 133 51.5t44 139.5v428h119z" />
    <glyph glyph-name="Udieresis" unicode="&#xdc;" horiz-adv-x="753" 
d="M267 899q30 0 51.5 -21t21.5 -51q0 -29 -22 -50t-51 -21q-30 0 -51.5 21t-21.5 50q0 30 21.5 51t51.5 21zM486 899q29 0 50.5 -21t21.5 -51q0 -29 -21.5 -50t-50.5 -21q-30 0 -51.5 21t-21.5 50q0 30 21.5 51t51.5 21zM672 705v-437q0 -52 -16 -100t-49 -90.5
t-92.5 -67.5t-138.5 -25q-63 0 -114.5 17t-84.5 44.5t-55.5 65t-32 76.5t-9.5 80v437h119v-428q0 -88 44.5 -139.5t132.5 -51.5q89 0 133 51.5t44 139.5v428h119z" />
    <glyph glyph-name="Yacute" unicode="&#xdd;" horiz-adv-x="696" 
d="M382 747h-81l68 162h129zM408 302v-302h-119v302l-279 403h143l195 -289l196 289h142z" />
    <glyph glyph-name="Thorn" unicode="&#xde;" horiz-adv-x="704" 
d="M199 553h242q109 0 167 -57.5t58 -142.5t-58 -142.5t-167 -57.5h-242v-153h-119v705h119v-152zM199 452v-198h237q52 0 81.5 27.5t29.5 71.5t-29.5 71.5t-81.5 27.5h-237z" />
    <glyph glyph-name="germandbls" unicode="&#xdf;" horiz-adv-x="624" 
d="M308 720q98 0 156.5 -54t58.5 -128q0 -91 -79 -143q66 -21 106.5 -72.5t40.5 -119.5q0 -93 -61 -155.5t-170 -62.5q-75 0 -129 36l42 91q35 -27 84 -27q57 0 88 35.5t31 84.5q0 56 -37 90t-97 34h-67v97h31q50 0 77.5 29.5t27.5 70.5q0 42 -27.5 69.5t-76.5 27.5
q-52 0 -83.5 -32.5t-31.5 -78.5v-512h-115v504q0 90 61 153t170 63z" />
    <glyph glyph-name="agrave" unicode="&#xe0;" horiz-adv-x="597" 
d="M280 693l65 -174h-81l-108 174h124zM264 469q43 0 86.5 -19.5t72.5 -56.5l16 61h86v-454h-86l-16 60q-29 -36 -72.5 -55.5t-86.5 -19.5q-99 0 -165 70t-66 172q0 101 66 171.5t165 70.5zM281 373q-59 0 -96 -42t-37 -104t36.5 -104t96.5 -42q58 0 94.5 41.5t36.5 104.5
q0 62 -36.5 104t-94.5 42z" />
    <glyph glyph-name="aacute" unicode="&#xe1;" horiz-adv-x="597" 
d="M332 519h-81l65 174h124zM264 469q43 0 86.5 -19.5t72.5 -56.5l16 61h86v-454h-86l-16 60q-29 -36 -72.5 -55.5t-86.5 -19.5q-99 0 -165 70t-66 172q0 101 66 171.5t165 70.5zM281 373q-59 0 -96 -42t-37 -104t36.5 -104t96.5 -42q58 0 94.5 41.5t36.5 104.5
q0 62 -36.5 104t-94.5 42z" />
    <glyph glyph-name="acircumflex" unicode="&#xe2;" horiz-adv-x="597" 
d="M372 519l-79 108l-78 -108h-82l99 174h123l99 -174h-82zM264 469q43 0 86.5 -19.5t72.5 -56.5l16 61h86v-454h-86l-16 60q-29 -36 -72.5 -55.5t-86.5 -19.5q-99 0 -165 70t-66 172q0 101 66 171.5t165 70.5zM281 373q-59 0 -96 -42t-37 -104t36.5 -104t96.5 -42
q58 0 94.5 41.5t36.5 104.5q0 62 -36.5 104t-94.5 42z" />
    <glyph glyph-name="atilde" unicode="&#xe3;" horiz-adv-x="597" 
d="M204 684q30 0 57 -14t43 -30t37 -30t40 -14q52 0 43 72h65q10 -67 -21 -107.5t-85 -40.5q-39 0 -71 22t-57 44t-47 22q-28 0 -38.5 -21.5t-4.5 -49.5h-66q-9 67 21.5 107t83.5 40zM264 469q43 0 86.5 -19.5t72.5 -56.5l16 61h86v-454h-86l-16 60q-29 -36 -72.5 -55.5
t-86.5 -19.5q-99 0 -165 70t-66 172q0 101 66 171.5t165 70.5zM281 373q-59 0 -96 -42t-37 -104t36.5 -104t96.5 -42q58 0 94.5 41.5t36.5 104.5q0 62 -36.5 104t-94.5 42z" />
    <glyph glyph-name="adieresis" unicode="&#xe4;" horiz-adv-x="597" 
d="M189 668q28 0 48 -20t20 -48t-20 -47.5t-48 -19.5t-48 19.5t-20 47.5t20 48t48 20zM395 668q28 0 48 -20t20 -48t-20 -47.5t-48 -19.5t-48 19.5t-20 47.5t20 48t48 20zM264 469q43 0 86.5 -19.5t72.5 -56.5l16 61h86v-454h-86l-16 60q-29 -36 -72.5 -55.5t-86.5 -19.5
q-99 0 -165 70t-66 172q0 101 66 171.5t165 70.5zM281 373q-59 0 -96 -42t-37 -104t36.5 -104t96.5 -42q58 0 94.5 41.5t36.5 104.5q0 62 -36.5 104t-94.5 42z" />
    <glyph glyph-name="aring" unicode="&#xe5;" horiz-adv-x="597" 
d="M297 770q55 0 93 -37.5t38 -92.5t-38 -93t-93 -38t-93 37.5t-38 93.5q0 55 38 92.5t93 37.5zM297 698q-25 0 -41.5 -17t-16.5 -41q0 -25 16.5 -42t41.5 -17t41.5 17t16.5 42q0 24 -16.5 41t-41.5 17zM264 469q43 0 86.5 -19.5t72.5 -56.5l16 61h86v-454h-86l-16 60
q-29 -36 -72.5 -55.5t-86.5 -19.5q-99 0 -165 70t-66 172q0 101 66 171.5t165 70.5zM281 373q-59 0 -96 -42t-37 -104t36.5 -104t96.5 -42q58 0 94.5 41.5t36.5 104.5q0 62 -36.5 104t-94.5 42z" />
    <glyph glyph-name="ae" unicode="&#xe6;" horiz-adv-x="882" 
d="M620 469q86 0 157 -64t71 -179l-1 -25h-362q4 -57 41 -90.5t89 -33.5q86 0 123 83l94 -43q-27 -60 -84 -96t-128 -36q-61 0 -111.5 27.5t-81.5 74.5q-73 -102 -206 -102q-83 0 -135.5 40.5t-52.5 104.5q0 63 49.5 104.5t133.5 41.5h167q-3 49 -32 78t-77 29
q-83 0 -110 -74l-95 43q25 56 78 86.5t120 30.5q51 0 98 -21t75 -60q66 81 180 81zM615 383q-49 0 -82.5 -30t-40.5 -77h241q-5 48 -37.5 77.5t-80.5 29.5zM383 201h-145q-45 0 -69 -18t-24 -48q0 -27 23 -45t65 -18q67 0 106 41.5t44 87.5z" />
    <glyph glyph-name="ccedilla" unicode="&#xe7;" horiz-adv-x="536" 
d="M278 81q45 0 76 24.5t43 66.5l105 -23q-19 -67 -66 -108t-110 -52l-19 -158h-105l39 157q-93 13 -150.5 80.5t-57.5 158.5q0 101 69.5 171.5t178.5 70.5q79 0 139 -43t82 -121l-105 -24q-12 42 -43 67t-76 25q-54 0 -92 -39t-38 -107t38 -107t92 -39z" />
    <glyph glyph-name="egrave" unicode="&#xe8;" horiz-adv-x="546" 
d="M261 693l65 -174h-81l-108 174h124zM282 469q90 0 160 -64t70 -179l-2 -25h-361q4 -57 40.5 -90.5t89.5 -33.5q82 0 118 76l94 -45q-30 -58 -85.5 -90.5t-121.5 -32.5q-111 0 -181 70t-70 172q0 101 70 171.5t179 70.5zM280 383q-49 0 -83.5 -30.5t-40.5 -76.5h241
q-5 48 -37 77.5t-80 29.5z" />
    <glyph glyph-name="eacute" unicode="&#xe9;" horiz-adv-x="546" 
d="M322 519h-81l65 174h124zM282 469q90 0 160 -64t70 -179l-2 -25h-361q4 -57 40.5 -90.5t89.5 -33.5q82 0 118 76l94 -45q-30 -58 -85.5 -90.5t-121.5 -32.5q-111 0 -181 70t-70 172q0 101 70 171.5t179 70.5zM280 383q-49 0 -83.5 -30.5t-40.5 -76.5h241q-5 48 -37 77.5
t-80 29.5z" />
    <glyph glyph-name="ecircumflex" unicode="&#xea;" horiz-adv-x="546" 
d="M353 519l-79 108l-78 -108h-82l99 174h123l99 -174h-82zM282 469q90 0 160 -64t70 -179l-2 -25h-361q4 -57 40.5 -90.5t89.5 -33.5q82 0 118 76l94 -45q-30 -58 -85.5 -90.5t-121.5 -32.5q-111 0 -181 70t-70 172q0 101 70 171.5t179 70.5zM280 383q-49 0 -83.5 -30.5
t-40.5 -76.5h241q-5 48 -37 77.5t-80 29.5z" />
    <glyph glyph-name="edieresis" unicode="&#xeb;" horiz-adv-x="546" 
d="M170 668q28 0 48 -20t20 -48t-20 -47.5t-48 -19.5t-48 19.5t-20 47.5t20 48t48 20zM376 668q28 0 48 -20t20 -48t-20 -47.5t-48 -19.5t-48 19.5t-20 47.5t20 48t48 20zM282 469q90 0 160 -64t70 -179l-2 -25h-361q4 -57 40.5 -90.5t89.5 -33.5q82 0 118 76l94 -45
q-30 -58 -85.5 -90.5t-121.5 -32.5q-111 0 -181 70t-70 172q0 101 70 171.5t179 70.5zM280 383q-49 0 -83.5 -30.5t-40.5 -76.5h241q-5 48 -37 77.5t-80 29.5z" />
    <glyph glyph-name="igrave" unicode="&#xec;" horiz-adv-x="254" 
d="M102 693l65 -174h-81l-108 174h124zM184 0h-114v454h114v-454z" />
    <glyph glyph-name="iacute" unicode="&#xed;" horiz-adv-x="254" 
d="M167 519h-81l65 174h124zM184 0h-114v454h114v-454z" />
    <glyph glyph-name="icircumflex" unicode="&#xee;" horiz-adv-x="254" 
d="M205 519l-79 108l-78 -108h-82l99 174h123l99 -174h-82zM184 0h-114v454h114v-454z" />
    <glyph glyph-name="idieresis" unicode="&#xef;" horiz-adv-x="254" 
d="M24 668q28 0 48 -20t20 -48t-20 -47.5t-48 -19.5t-48 19.5t-20 47.5t20 48t48 20zM230 668q28 0 48 -20t20 -48t-20 -47.5t-48 -19.5t-48 19.5t-20 47.5t20 48t48 20zM184 0h-114v454h114v-454z" />
    <glyph glyph-name="eth" unicode="&#xf0;" horiz-adv-x="552" 
d="M93 705h140q45 -31 81 -65l115 59l28 -55l-97 -50q162 -169 162 -360q0 -106 -67.5 -177.5t-178.5 -71.5q-113 0 -179.5 71.5t-66.5 169.5q0 94 65.5 160t169.5 66q56 0 97 -29q-31 67 -87 128l-133 -69l-29 55l119 61q-59 58 -139 107zM275 359q-59 0 -92.5 -40.5
t-33.5 -96.5t34 -96t93 -40t93 40t34 96t-34.5 96.5t-93.5 40.5z" />
    <glyph glyph-name="ntilde" unicode="&#xf1;" horiz-adv-x="607" 
d="M212 684q30 0 57 -14t43 -30t37 -30t40 -14q52 0 43 72h65q10 -67 -21 -107.5t-85 -40.5q-39 0 -71 22t-57 44t-47 22q-28 0 -38.5 -21.5t-4.5 -49.5h-66q-9 67 21.5 107t83.5 40zM343 469q90 0 145.5 -58.5t55.5 -151.5v-259h-114v247q0 58 -30 92t-84 34t-93 -39
t-39 -101v-233h-114v454h87l16 -61q71 76 170 76z" />
    <glyph glyph-name="ograve" unicode="&#xf2;" horiz-adv-x="563" 
d="M263 693l65 -174h-81l-108 174h124zM281 469q110 0 179 -70t69 -172q0 -103 -69 -172.5t-179 -69.5t-179 69.5t-69 172.5q0 102 69 172t179 70zM282 373q-59 0 -96.5 -41.5t-37.5 -104.5t37.5 -104.5t96.5 -41.5q58 0 95.5 41.5t37.5 104.5t-37.5 104.5t-95.5 41.5z" />
    <glyph glyph-name="oacute" unicode="&#xf3;" horiz-adv-x="563" 
d="M330 519h-81l65 174h124zM281 469q110 0 179 -70t69 -172q0 -103 -69 -172.5t-179 -69.5t-179 69.5t-69 172.5q0 102 69 172t179 70zM282 373q-59 0 -96.5 -41.5t-37.5 -104.5t37.5 -104.5t96.5 -41.5q58 0 95.5 41.5t37.5 104.5t-37.5 104.5t-95.5 41.5z" />
    <glyph glyph-name="ocircumflex" unicode="&#xf4;" horiz-adv-x="563" 
d="M360 519l-79 108l-78 -108h-82l99 174h123l99 -174h-82zM281 469q110 0 179 -70t69 -172q0 -103 -69 -172.5t-179 -69.5t-179 69.5t-69 172.5q0 102 69 172t179 70zM282 373q-59 0 -96.5 -41.5t-37.5 -104.5t37.5 -104.5t96.5 -41.5q58 0 95.5 41.5t37.5 104.5
t-37.5 104.5t-95.5 41.5z" />
    <glyph glyph-name="otilde" unicode="&#xf5;" horiz-adv-x="563" 
d="M191 684q30 0 57 -14t43 -30t37 -30t40 -14q52 0 43 72h65q10 -67 -21 -107.5t-85 -40.5q-39 0 -71 22t-57 44t-47 22q-28 0 -38.5 -21.5t-4.5 -49.5h-66q-9 67 21.5 107t83.5 40zM281 469q110 0 179 -70t69 -172q0 -103 -69 -172.5t-179 -69.5t-179 69.5t-69 172.5
q0 102 69 172t179 70zM282 373q-59 0 -96.5 -41.5t-37.5 -104.5t37.5 -104.5t96.5 -41.5q58 0 95.5 41.5t37.5 104.5t-37.5 104.5t-95.5 41.5z" />
    <glyph glyph-name="odieresis" unicode="&#xf6;" horiz-adv-x="563" 
d="M179 668q28 0 48 -20t20 -48t-20 -47.5t-48 -19.5t-48 19.5t-20 47.5t20 48t48 20zM385 668q28 0 48 -20t20 -48t-20 -47.5t-48 -19.5t-48 19.5t-20 47.5t20 48t48 20zM281 469q110 0 179 -70t69 -172q0 -103 -69 -172.5t-179 -69.5t-179 69.5t-69 172.5q0 102 69 172
t179 70zM282 373q-59 0 -96.5 -41.5t-37.5 -104.5t37.5 -104.5t96.5 -41.5q58 0 95.5 41.5t37.5 104.5t-37.5 104.5t-95.5 41.5z" />
    <glyph glyph-name="divide" unicode="&#xf7;" horiz-adv-x="678" 
d="M339 641q28 0 48 -20t20 -47q0 -28 -20 -48t-48 -20q-27 0 -47 20t-20 48q0 27 20 47t47 20zM598 311h-518v96h518v-96zM339 212q28 0 48 -19.5t20 -47.5t-20 -47.5t-48 -19.5q-27 0 -47 19.5t-20 47.5t20 47.5t47 19.5z" />
    <glyph glyph-name="oslash" unicode="&#xf8;" horiz-adv-x="563" 
d="M486 497l-48 -78q91 -71 91 -192q0 -103 -69 -172.5t-179 -69.5q-55 0 -99 18l-51 -82l-53 32l49 80q-94 70 -94 194q0 102 69 172t179 70q56 0 104 -20l49 79zM148 227q0 -62 36 -103l148 239q-21 10 -50 10q-59 0 -96.5 -41.5t-37.5 -104.5zM282 81q58 0 95.5 41.5
t37.5 104.5q0 60 -34 100l-146 -238q22 -8 47 -8z" />
    <glyph glyph-name="ugrave" unicode="&#xf9;" horiz-adv-x="614" 
d="M286 693l65 -174h-81l-108 174h124zM544 0h-87l-16 60q-72 -75 -171 -75q-89 0 -144.5 58.5t-55.5 150.5v260h114v-248q0 -58 30 -91.5t84 -33.5t93 39t39 100v234h114v-454z" />
    <glyph glyph-name="uacute" unicode="&#xfa;" horiz-adv-x="614" 
d="M333 519h-81l65 174h124zM544 0h-87l-16 60q-72 -75 -171 -75q-89 0 -144.5 58.5t-55.5 150.5v260h114v-248q0 -58 30 -91.5t84 -33.5t93 39t39 100v234h114v-454z" />
    <glyph glyph-name="ucircumflex" unicode="&#xfb;" horiz-adv-x="614" 
d="M386 519l-79 108l-78 -108h-82l99 174h123l99 -174h-82zM544 0h-87l-16 60q-72 -75 -171 -75q-89 0 -144.5 58.5t-55.5 150.5v260h114v-248q0 -58 30 -91.5t84 -33.5t93 39t39 100v234h114v-454z" />
    <glyph glyph-name="udieresis" unicode="&#xfc;" horiz-adv-x="614" 
d="M204 668q28 0 48 -20t20 -48t-20 -47.5t-48 -19.5t-48 19.5t-20 47.5t20 48t48 20zM410 668q28 0 48 -20t20 -48t-20 -47.5t-48 -19.5t-48 19.5t-20 47.5t20 48t48 20zM544 0h-87l-16 60q-72 -75 -171 -75q-89 0 -144.5 58.5t-55.5 150.5v260h114v-248q0 -58 30 -91.5
t84 -33.5t93 39t39 100v234h114v-454z" />
    <glyph glyph-name="yacute" unicode="&#xfd;" horiz-adv-x="547" 
d="M312 519h-81l65 174h124zM220 -215h-119l119 254l-210 415h126l145 -298l134 298h122z" />
    <glyph glyph-name="thorn" unicode="&#xfe;" horiz-adv-x="595" 
d="M184 705v-300q61 64 149 64q98 0 163.5 -69.5t65.5 -172.5t-65.5 -172.5t-163.5 -69.5q-88 0 -149 64v-264h-114v920h114zM318 372q-59 0 -96.5 -41.5t-37.5 -103.5t37.5 -104t96.5 -42q58 0 94 42t36 104t-35.5 103.5t-94.5 41.5z" />
    <glyph glyph-name="ydieresis" unicode="&#xff;" horiz-adv-x="547" 
d="M170 668q28 0 48 -20t20 -48t-20 -47.5t-48 -19.5t-48 19.5t-20 47.5t20 48t48 20zM376 668q28 0 48 -20t20 -48t-20 -47.5t-48 -19.5t-48 19.5t-20 47.5t20 48t48 20zM220 -215h-119l119 254l-210 415h126l145 -298l134 298h122z" />
    <glyph glyph-name="Amacron" unicode="&#x100;" horiz-adv-x="702" 
d="M531 776h-360v83h360v-83zM702 0h-129l-65 162h-315l-64 -162h-129l301 705h99zM233 263h236l-118 294z" />
    <glyph glyph-name="amacron" unicode="&#x101;" horiz-adv-x="597" 
d="M473 556h-360v83h360v-83zM264 469q43 0 86.5 -19.5t72.5 -56.5l16 61h86v-454h-86l-16 60q-29 -36 -72.5 -55.5t-86.5 -19.5q-99 0 -165 70t-66 172q0 101 66 171.5t165 70.5zM281 373q-59 0 -96 -42t-37 -104t36.5 -104t96.5 -42q58 0 94.5 41.5t36.5 104.5
q0 62 -36.5 104t-94.5 42z" />
    <glyph glyph-name="Abreve" unicode="&#x102;" horiz-adv-x="702" 
d="M431 905h91q-2 -66 -48 -113.5t-123 -47.5t-123.5 48t-47.5 113h91q0 -32 20 -57t60 -25q39 0 59.5 25t20.5 57zM702 0h-129l-65 162h-315l-64 -162h-129l301 705h99zM233 263h236l-118 294z" />
    <glyph glyph-name="abreve" unicode="&#x103;" horiz-adv-x="597" 
d="M365 691h91q2 -70 -45 -121t-126 -51t-126 51t-45 121h91q-3 -36 17 -64.5t63 -28.5t63 28.5t17 64.5zM264 469q43 0 86.5 -19.5t72.5 -56.5l16 61h86v-454h-86l-16 60q-29 -36 -72.5 -55.5t-86.5 -19.5q-99 0 -165 70t-66 172q0 101 66 171.5t165 70.5zM281 373
q-59 0 -96 -42t-37 -104t36.5 -104t96.5 -42q58 0 94.5 41.5t36.5 104.5q0 62 -36.5 104t-94.5 42z" />
    <glyph glyph-name="Aogonek" unicode="&#x104;" horiz-adv-x="707" 
d="M400 705l302 -705q-92 -55 -92 -108q0 -21 13.5 -33.5t35.5 -12.5q20 0 48 16l29 -65q-43 -30 -100 -30q-51 0 -86 27t-35 73q0 64 64 116l-71 179h-315l-64 -162h-129l301 705h99zM233 263h237l-119 294z" />
    <glyph glyph-name="aogonek" unicode="&#x105;" horiz-adv-x="627" 
d="M531 -138l28 -65q-43 -30 -100 -30q-51 0 -86 27t-35 73q0 76 99 141l-14 52q-29 -36 -72.5 -55.5t-86.5 -19.5q-99 0 -165 70t-66 172q0 101 66 171.5t165 70.5q43 0 86.5 -19.5t72.5 -56.5l16 61h86v-454q-91 -55 -91 -108q0 -21 13.5 -33.5t35.5 -12.5q20 0 48 16z
M281 81q58 0 94.5 41.5t36.5 104.5q0 62 -36.5 104t-94.5 42q-59 0 -96 -42t-37 -104t36.5 -104t96.5 -42z" />
    <glyph glyph-name="Cacute" unicode="&#x106;" horiz-adv-x="775" 
d="M449 747h-81l68 162h129zM406 720q116 0 205.5 -61.5t125.5 -176.5l-109 -30q-25 78 -84 120t-139 42q-109 0 -177.5 -73t-68.5 -189q0 -115 68.5 -188t177.5 -73q80 0 139 42t84 120l109 -30q-36 -115 -125.5 -176.5t-205.5 -61.5q-164 0 -266 107t-102 260
q0 154 102 261t266 107z" />
    <glyph glyph-name="cacute" unicode="&#x107;" horiz-adv-x="536" 
d="M324 519h-81l65 174h124zM281 469q79 0 139 -43t82 -121l-105 -24q-12 42 -43 67t-76 25q-54 0 -92 -39t-38 -107t38 -107t92 -39q45 0 76 24.5t43 66.5l105 -23q-22 -78 -82 -121t-139 -43q-109 0 -178.5 70.5t-69.5 171.5t69.5 171.5t178.5 70.5z" />
    <glyph glyph-name="Ccircumflex" unicode="&#x108;" horiz-adv-x="775" 
d="M490 747l-79 96l-78 -96h-82l99 162h123l99 -162h-82zM406 720q116 0 205.5 -61.5t125.5 -176.5l-109 -30q-25 78 -84 120t-139 42q-109 0 -177.5 -73t-68.5 -189q0 -115 68.5 -188t177.5 -73q80 0 139 42t84 120l109 -30q-36 -115 -125.5 -176.5t-205.5 -61.5
q-164 0 -266 107t-102 260q0 154 102 261t266 107z" />
    <glyph glyph-name="ccircumflex" unicode="&#x109;" horiz-adv-x="536" 
d="M356 519l-79 108l-78 -108h-82l99 174h123l99 -174h-82zM281 469q79 0 139 -43t82 -121l-105 -24q-12 42 -43 67t-76 25q-54 0 -92 -39t-38 -107t38 -107t92 -39q45 0 76 24.5t43 66.5l105 -23q-22 -78 -82 -121t-139 -43q-109 0 -178.5 70.5t-69.5 171.5t69.5 171.5
t178.5 70.5z" />
    <glyph glyph-name="Cdotaccent" unicode="&#x10a;" horiz-adv-x="775" 
d="M405 911q32 0 55 -22.5t23 -53.5q0 -32 -23 -54t-55 -22t-54.5 22t-22.5 54q0 31 22.5 53.5t54.5 22.5zM406 720q116 0 205.5 -61.5t125.5 -176.5l-109 -30q-25 78 -84 120t-139 42q-109 0 -177.5 -73t-68.5 -189q0 -115 68.5 -188t177.5 -73q80 0 139 42t84 120l109 -30
q-36 -115 -125.5 -176.5t-205.5 -61.5q-164 0 -266 107t-102 260q0 154 102 261t266 107z" />
    <glyph glyph-name="cdotaccent" unicode="&#x10b;" horiz-adv-x="536" 
d="M280 671q29 0 50.5 -21t21.5 -50t-21.5 -50t-50.5 -21t-50 21t-21 50t21 50t50 21zM281 469q79 0 139 -43t82 -121l-105 -24q-12 42 -43 67t-76 25q-54 0 -92 -39t-38 -107t38 -107t92 -39q45 0 76 24.5t43 66.5l105 -23q-22 -78 -82 -121t-139 -43q-109 0 -178.5 70.5
t-69.5 171.5t69.5 171.5t178.5 70.5z" />
    <glyph glyph-name="Ccaron" unicode="&#x10c;" horiz-adv-x="775" 
d="M467 747h-123l-99 162h82l78 -96l79 96h82zM406 720q116 0 205.5 -61.5t125.5 -176.5l-109 -30q-25 78 -84 120t-139 42q-109 0 -177.5 -73t-68.5 -189q0 -115 68.5 -188t177.5 -73q80 0 139 42t84 120l109 -30q-36 -115 -125.5 -176.5t-205.5 -61.5q-164 0 -266 107
t-102 260q0 154 102 261t266 107z" />
    <glyph glyph-name="ccaron" unicode="&#x10d;" horiz-adv-x="536" 
d="M338 519h-123l-99 174h82l78 -108l79 108h82zM281 469q79 0 139 -43t82 -121l-105 -24q-12 42 -43 67t-76 25q-54 0 -92 -39t-38 -107t38 -107t92 -39q45 0 76 24.5t43 66.5l105 -23q-22 -78 -82 -121t-139 -43q-109 0 -178.5 70.5t-69.5 171.5t69.5 171.5t178.5 70.5z
" />
    <glyph glyph-name="Dcaron" unicode="&#x10e;" horiz-adv-x="737" 
d="M388 747h-123l-99 162h82l78 -96l79 96h82zM80 705h264q108 0 190.5 -50.5t123 -129.5t40.5 -172t-40.5 -172t-123 -130t-190.5 -51h-264v705zM199 604v-503h136q107 0 175 68t68 184t-68 183.5t-175 67.5h-136z" />
    <glyph glyph-name="dcaron" unicode="&#x10f;" horiz-adv-x="712" 
d="M525 0h-86l-16 60q-29 -36 -72.5 -55.5t-86.5 -19.5q-99 0 -165 70t-66 172q0 101 66 171.5t165 70.5q39 0 79 -17t68 -47v300h114v-705zM650 491h-77l25 214h114zM281 373q-60 0 -96.5 -42.5t-36.5 -103.5t36.5 -103.5t96.5 -42.5q58 0 94.5 42.5t36.5 103.5
t-36.5 103.5t-94.5 42.5z" />
    <glyph glyph-name="Dcroat" unicode="&#x110;" horiz-adv-x="786" 
d="M129 705h264q108 0 190.5 -50.5t123 -129.5t40.5 -172t-40.5 -172t-123 -130t-190.5 -51h-264v311h-129v93h129v301zM248 101h136q107 0 175 68t68 184t-68 183.5t-175 67.5h-136v-200h161v-93h-161v-210z" />
    <glyph glyph-name="dcroat" unicode="&#x111;" horiz-adv-x="596" 
d="M579 541h-54v-541h-86l-16 60q-29 -36 -72.5 -55.5t-86.5 -19.5q-99 0 -165 70t-66 172q0 101 66 171.5t165 70.5q39 0 79 -17t68 -47v136h-192v83h192v81h114v-81h54v-83zM281 81q58 0 94.5 42.5t36.5 103.5t-36.5 103.5t-94.5 42.5q-60 0 -96.5 -42.5t-36.5 -103.5
t36.5 -103.5t96.5 -42.5z" />
    <glyph glyph-name="Emacron" unicode="&#x112;" 
d="M511 776h-360v83h360v-83zM582 604h-383v-186h316v-101h-316v-216h383v-101h-502v705h502v-101z" />
    <glyph glyph-name="emacron" unicode="&#x113;" horiz-adv-x="546" 
d="M453 556h-360v83h360v-83zM282 469q90 0 160 -64t70 -179l-2 -25h-361q4 -57 40.5 -90.5t89.5 -33.5q82 0 118 76l94 -45q-30 -58 -85.5 -90.5t-121.5 -32.5q-111 0 -181 70t-70 172q0 101 70 171.5t179 70.5zM280 383q-49 0 -83.5 -30.5t-40.5 -76.5h241q-5 48 -37 77.5
t-80 29.5z" />
    <glyph glyph-name="Ebreve" unicode="&#x114;" 
d="M411 905h91q-2 -66 -48 -113.5t-123 -47.5t-123.5 48t-47.5 113h91q0 -32 20 -57t60 -25q39 0 59.5 25t20.5 57zM582 604h-383v-186h316v-101h-316v-216h383v-101h-502v705h502v-101z" />
    <glyph glyph-name="ebreve" unicode="&#x115;" horiz-adv-x="546" 
d="M353 691h91q2 -70 -45 -121t-126 -51t-126 51t-45 121h91q-3 -36 17 -64.5t63 -28.5t63 28.5t17 64.5zM282 469q90 0 160 -64t70 -179l-2 -25h-361q4 -57 40.5 -90.5t89.5 -33.5q82 0 118 76l94 -45q-30 -58 -85.5 -90.5t-121.5 -32.5q-111 0 -181 70t-70 172
q0 101 70 171.5t179 70.5zM280 383q-49 0 -83.5 -30.5t-40.5 -76.5h241q-5 48 -37 77.5t-80 29.5z" />
    <glyph glyph-name="Edotaccent" unicode="&#x116;" 
d="M329 911q32 0 55 -22.5t23 -53.5q0 -32 -23 -54t-55 -22t-54.5 22t-22.5 54q0 31 22.5 53.5t54.5 22.5zM582 604h-383v-186h316v-101h-316v-216h383v-101h-502v705h502v-101z" />
    <glyph glyph-name="edotaccent" unicode="&#x117;" horiz-adv-x="546" 
d="M272 671q29 0 50.5 -21t21.5 -50t-21.5 -50t-50.5 -21t-50 21t-21 50t21 50t50 21zM282 469q90 0 160 -64t70 -179l-2 -25h-361q4 -57 40.5 -90.5t89.5 -33.5q82 0 118 76l94 -45q-30 -58 -85.5 -90.5t-121.5 -32.5q-111 0 -181 70t-70 172q0 101 70 171.5t179 70.5z
M280 383q-49 0 -83.5 -30.5t-40.5 -76.5h241q-5 48 -37 77.5t-80 29.5z" />
    <glyph glyph-name="Eogonek" unicode="&#x118;" 
d="M588 -138l28 -65q-43 -30 -100 -30q-51 0 -86 27t-35 73q0 74 87 133h-402v705h502v-101h-383v-186h316v-101h-316v-216h383v-101q-91 -55 -91 -108q0 -21 13.5 -33.5t35.5 -12.5q20 0 48 16z" />
    <glyph glyph-name="eogonek" unicode="&#x119;" horiz-adv-x="546" 
d="M510 201h-361q4 -57 40.5 -90.5t89.5 -33.5q82 0 118 76l94 -45q-41 -78 -124 -108q-90 -55 -90 -108q0 -21 13.5 -33.5t35.5 -12.5q20 0 48 16l28 -65q-43 -30 -100 -30q-51 0 -86 27t-35 73q0 65 69 120q-98 11 -157.5 79t-59.5 161q0 101 70 171.5t179 70.5
q90 0 160 -64t70 -179zM156 276h241q-5 48 -37 77.5t-80 29.5q-49 0 -83.5 -30.5t-40.5 -76.5z" />
    <glyph glyph-name="Ecaron" unicode="&#x11a;" 
d="M393 747h-123l-99 162h82l78 -96l79 96h82zM582 604h-383v-186h316v-101h-316v-216h383v-101h-502v705h502v-101z" />
    <glyph glyph-name="ecaron" unicode="&#x11b;" horiz-adv-x="546" 
d="M338 519h-123l-99 174h82l78 -108l79 108h82zM282 469q90 0 160 -64t70 -179l-2 -25h-361q4 -57 40.5 -90.5t89.5 -33.5q82 0 118 76l94 -45q-30 -58 -85.5 -90.5t-121.5 -32.5q-111 0 -181 70t-70 172q0 101 70 171.5t179 70.5zM280 383q-49 0 -83.5 -30.5t-40.5 -76.5
h241q-5 48 -37 77.5t-80 29.5z" />
    <glyph glyph-name="Gcircumflex" unicode="&#x11c;" horiz-adv-x="811" 
d="M483 747l-79 96l-78 -96h-82l99 162h123l99 -162h-82zM406 720q108 0 193.5 -53.5t127.5 -157.5l-107 -36q-29 69 -85 105t-130 36q-109 0 -177.5 -73t-68.5 -189q0 -115 68.5 -188t176.5 -73q94 0 153.5 53t73.5 137h-259v101h358v-384h-78l-20 91q-78 -104 -229 -104
q-162 0 -263.5 107t-101.5 260q0 154 102 261t266 107z" />
    <glyph glyph-name="gcircumflex" unicode="&#x11d;" horiz-adv-x="593" 
d="M374 519l-79 108l-78 -108h-82l99 174h123l99 -174h-82zM265 469q44 0 87 -19t72 -55l16 59h86v-448q0 -103 -64 -175.5t-188 -72.5q-97 0 -164 54.5t-77 155.5l107 18q3 -64 41 -98t97 -34q70 0 102 41t32 97v78q-59 -61 -147 -61q-99 0 -164.5 65.5t-65.5 164.5
t65.5 164.5t164.5 65.5zM282 373q-59 0 -96 -38t-37 -96q0 -57 37.5 -95.5t95.5 -38.5q57 0 94 38.5t37 95.5q0 58 -37 96t-94 38z" />
    <glyph glyph-name="Gbreve" unicode="&#x11e;" horiz-adv-x="811" 
d="M483 905h91q-2 -66 -48 -113.5t-123 -47.5t-123.5 48t-47.5 113h91q0 -32 20 -57t60 -25q39 0 59.5 25t20.5 57zM406 720q108 0 193.5 -53.5t127.5 -157.5l-107 -36q-29 69 -85 105t-130 36q-109 0 -177.5 -73t-68.5 -189q0 -115 68.5 -188t176.5 -73q94 0 153.5 53
t73.5 137h-259v101h358v-384h-78l-20 91q-78 -104 -229 -104q-162 0 -263.5 107t-101.5 260q0 154 102 261t266 107z" />
    <glyph glyph-name="gbreve" unicode="&#x11f;" horiz-adv-x="593" 
d="M363 691h91q2 -70 -45 -121t-126 -51t-126 51t-45 121h91q-3 -36 17 -64.5t63 -28.5t63 28.5t17 64.5zM265 469q44 0 87 -19t72 -55l16 59h86v-448q0 -103 -64 -175.5t-188 -72.5q-97 0 -164 54.5t-77 155.5l107 18q3 -64 41 -98t97 -34q70 0 102 41t32 97v78
q-59 -61 -147 -61q-99 0 -164.5 65.5t-65.5 164.5t65.5 164.5t164.5 65.5zM282 373q-59 0 -96 -38t-37 -96q0 -57 37.5 -95.5t95.5 -38.5q57 0 94 38.5t37 95.5q0 58 -37 96t-94 38z" />
    <glyph glyph-name="Gdotaccent" unicode="&#x120;" horiz-adv-x="811" 
d="M393 911q32 0 55 -22.5t23 -53.5q0 -32 -23 -54t-55 -22t-54.5 22t-22.5 54q0 31 22.5 53.5t54.5 22.5zM406 720q108 0 193.5 -53.5t127.5 -157.5l-107 -36q-29 69 -85 105t-130 36q-109 0 -177.5 -73t-68.5 -189q0 -115 68.5 -188t176.5 -73q94 0 153.5 53t73.5 137
h-259v101h358v-384h-78l-20 91q-78 -104 -229 -104q-162 0 -263.5 107t-101.5 260q0 154 102 261t266 107z" />
    <glyph glyph-name="gdotaccent" unicode="&#x121;" horiz-adv-x="593" 
d="M295 671q29 0 50.5 -21t21.5 -50t-21.5 -50t-50.5 -21t-50 21t-21 50t21 50t50 21zM265 469q44 0 87 -19t72 -55l16 59h86v-448q0 -103 -64 -175.5t-188 -72.5q-97 0 -164 54.5t-77 155.5l107 18q3 -64 41 -98t97 -34q70 0 102 41t32 97v78q-59 -61 -147 -61
q-99 0 -164.5 65.5t-65.5 164.5t65.5 164.5t164.5 65.5zM282 373q-59 0 -96 -38t-37 -96q0 -57 37.5 -95.5t95.5 -38.5q57 0 94 38.5t37 95.5q0 58 -37 96t-94 38z" />
    <glyph glyph-name="Gcommaaccent" unicode="&#x122;" horiz-adv-x="811" 
d="M406 720q108 0 193.5 -53.5t127.5 -157.5l-107 -36q-29 69 -85 105t-130 36q-109 0 -177.5 -73t-68.5 -189q0 -115 68.5 -188t176.5 -73q94 0 153.5 53t73.5 137h-259v101h358v-384h-78l-20 91q-78 -104 -229 -104q-162 0 -263.5 107t-101.5 260q0 154 102 261t266 107z
M419 -206h-82l18 151h117z" />
    <glyph glyph-name="gcommaaccent" unicode="&#x123;" horiz-adv-x="593" 
d="M291 672h82l-18 -151h-117zM265 469q44 0 87 -19t72 -55l16 59h86v-448q0 -103 -64 -175.5t-188 -72.5q-97 0 -164 54.5t-77 155.5l107 18q3 -64 41 -98t97 -34q70 0 102 41t32 97v78q-59 -61 -147 -61q-99 0 -164.5 65.5t-65.5 164.5t65.5 164.5t164.5 65.5zM282 373
q-59 0 -96 -38t-37 -96q0 -57 37.5 -95.5t95.5 -38.5q57 0 94 38.5t37 95.5q0 58 -37 96t-94 38z" />
    <glyph glyph-name="Hcircumflex" unicode="&#x124;" horiz-adv-x="749" 
d="M453 747l-79 96l-78 -96h-82l99 162h123l99 -162h-82zM669 0h-119v309h-351v-309h-119v705h119v-295h351v295h119v-705z" />
    <glyph glyph-name="hcircumflex" unicode="&#x125;" horiz-adv-x="607" 
d="M206 748l-79 96l-78 -96h-82l99 162h123l99 -162h-82zM184 705v-302q64 66 159 66q90 0 145.5 -58.5t55.5 -151.5v-259h-114v247q0 58 -30 92t-84 34t-93 -39t-39 -101v-233h-114v705h114z" />
    <glyph glyph-name="Hbar" unicode="&#x126;" horiz-adv-x="775" 
d="M775 523h-93v-523h-119v309h-351v-309h-119v523h-93v87h93v95h119v-95h351v95h119v-95h93v-87zM563 523h-351v-113h351v113z" />
    <glyph glyph-name="hbar" unicode="&#x127;" horiz-adv-x="607" 
d="M343 469q90 0 145.5 -58.5t55.5 -151.5v-259h-114v247q0 58 -30 92t-84 34t-93 -39t-39 -101v-233h-114v541h-117v83h117v81h114v-81h129v-83h-129v-138q64 66 159 66z" />
    <glyph glyph-name="Itilde" unicode="&#x128;" horiz-adv-x="280" 
d="M50 920q30 0 57 -14t43 -30t37 -30t40 -14q52 0 43 72h65q10 -67 -21 -107.5t-85 -40.5q-39 0 -71 22t-57 44t-47 22q-28 0 -38.5 -21.5t-4.5 -49.5h-66q-9 67 21.5 107t83.5 40zM200 0h-119v705h119v-705z" />
    <glyph glyph-name="itilde" unicode="&#x129;" horiz-adv-x="256" 
d="M39 684q30 0 57 -14t43 -30t37 -30t40 -14q52 0 43 72h65q10 -67 -21 -107.5t-85 -40.5q-39 0 -71 22t-57 44t-47 22q-28 0 -38.5 -21.5t-4.5 -49.5h-66q-9 67 21.5 107t83.5 40zM186 0h-114v454h114v-454z" />
    <glyph glyph-name="Imacron" unicode="&#x12a;" horiz-adv-x="279" 
d="M319 776h-360v83h360v-83zM199 0h-119v705h119v-705z" />
    <glyph glyph-name="imacron" unicode="&#x12b;" horiz-adv-x="254" 
d="M307 556h-360v83h360v-83zM183 0h-114v454h114v-454z" />
    <glyph glyph-name="Ibreve" unicode="&#x12c;" horiz-adv-x="280" 
d="M220 905h91q-2 -66 -48 -113.5t-123 -47.5t-123.5 48t-47.5 113h91q0 -32 20 -57t60 -25q39 0 59.5 25t20.5 57zM200 0h-119v705h119v-705z" />
    <glyph glyph-name="ibreve" unicode="&#x12d;" horiz-adv-x="255" 
d="M208 691h91q2 -70 -45 -121t-126 -51t-126 51t-45 121h91q-3 -36 17 -64.5t63 -28.5t63 28.5t17 64.5zM185 0h-114v454h114v-454z" />
    <glyph glyph-name="Iogonek" unicode="&#x12e;" horiz-adv-x="279" 
d="M205 -138l28 -65q-43 -30 -100 -30q-51 0 -86 27t-35 73q0 74 87 133h-19v705h119v-705q-91 -55 -91 -108q0 -21 13.5 -33.5t35.5 -12.5q20 0 48 16z" />
    <glyph glyph-name="iogonek" unicode="&#x12f;" horiz-adv-x="250" 
d="M123 521q-29 0 -48.5 19.5t-19.5 48.5t19.5 48.5t48.5 19.5t48.5 -19.5t19.5 -48.5t-19.5 -48.5t-48.5 -19.5zM186 -138l28 -65q-43 -30 -100 -30q-51 0 -86 27t-35 73q0 74 87 133h-13v454h114v-454h-1q-91 -55 -91 -108q0 -21 13.5 -33.5t35.5 -12.5q20 0 48 16z" />
    <glyph glyph-name="Idotaccent" unicode="&#x130;" horiz-adv-x="279" 
d="M139 911q32 0 55 -22.5t23 -53.5q0 -32 -23 -54t-55 -22t-54.5 22t-22.5 54q0 31 22.5 53.5t54.5 22.5zM199 0h-119v705h119v-705z" />
    <glyph glyph-name="dotlessi" unicode="&#x131;" horiz-adv-x="254" 
d="M184 0h-114v454h114v-454z" />
    <glyph glyph-name="IJ" unicode="&#x132;" horiz-adv-x="635" 
d="M199 0h-119v705h119v-705zM565 705v-542q0 -102 -76.5 -152.5t-186.5 -4.5l24 91q52 -18 86 1.5t34 70.5v435h-115v101h234z" />
    <glyph glyph-name="ij" unicode="&#x133;" horiz-adv-x="530" 
d="M138 657q28 0 48 -19.5t20 -48.5t-19.5 -48.5t-48.5 -19.5t-48.5 19.5t-19.5 48.5t19.5 48.5t48.5 19.5zM399 657q29 0 48.5 -19.5t19.5 -48.5t-19.5 -48.5t-48.5 -19.5t-48.5 19.5t-19.5 48.5t19.5 48.5t48.5 19.5zM196 0h-114v454h114v-454zM456 454v-527
q0 -104 -73 -147.5t-165 -6.5l-38 16l34 92l32 -12q41 -15 68.5 3.5t27.5 56.5v525h114z" />
    <glyph glyph-name="Jcircumflex" unicode="&#x134;" horiz-adv-x="363" 
d="M266 747l-79 96l-78 -96h-82l99 162h123l99 -162h-82zM293 705v-542q0 -102 -76.5 -152.5t-186.5 -4.5l24 91q52 -18 86 1.5t34 70.5v435h-115v101h234z" />
    <glyph glyph-name="jcircumflex" unicode="&#x135;" horiz-adv-x="279" 
d="M231 519l-79 108l-78 -108h-82l99 174h123l99 -174h-82zM209 454v-527q0 -103 -71.5 -146t-166.5 -8l-39 15l35 93l32 -12q42 -15 69 4.5t27 59.5v521h114z" />
    <glyph glyph-name="Kcommaaccent" unicode="&#x136;" horiz-adv-x="690" 
d="M375 424l300 -424h-143l-237 336l-96 -103v-233h-119v705h119v-309l287 309h148zM360 -206h-82l18 151h117z" />
    <glyph glyph-name="kcommaaccent" unicode="&#x137;" horiz-adv-x="562" 
d="M184 255l196 199h134l-173 -180l214 -274h-132l-155 196l-84 -84v-112h-114v705h114v-450zM304 -206h-82l18 151h117z" />
    <glyph glyph-name="Lacute" unicode="&#x139;" horiz-adv-x="567" 
d="M178 747h-81l68 162h129zM199 101h343v-101h-462v705h119v-604z" />
    <glyph glyph-name="lacute" unicode="&#x13a;" horiz-adv-x="254" 
d="M167 747h-81l68 162h129zM184 0h-114v705h114v-705z" />
    <glyph glyph-name="Lcommaaccent" unicode="&#x13b;" horiz-adv-x="567" 
d="M199 101h343v-101h-462v705h119v-604zM314 -206h-82l18 151h117z" />
    <glyph glyph-name="lcommaaccent" unicode="&#x13c;" horiz-adv-x="254" 
d="M184 0h-114v705h114v-705zM131 -206h-82l18 151h117z" />
    <glyph glyph-name="Lcaron" unicode="&#x13d;" horiz-adv-x="567" 
d="M199 101h343v-101h-462v705h119v-604zM343 537h-81l43 168h124z" />
    <glyph glyph-name="lcaron" unicode="&#x13e;" horiz-adv-x="373" 
d="M184 0h-114v705h114v-705zM314 491h-77l25 214h114z" />
    <glyph glyph-name="Ldot" unicode="&#x13f;" horiz-adv-x="567" 
d="M199 101h343v-101h-462v705h119v-604zM360 421q29 0 49.5 -20t20.5 -49q0 -28 -20.5 -48t-49.5 -20t-49.5 20t-20.5 48q0 29 20.5 49t49.5 20z" />
    <glyph glyph-name="ldot" unicode="&#x140;" horiz-adv-x="396" 
d="M184 0h-114v705h114v-705zM294 447q29 0 50.5 -21t21.5 -50t-21.5 -50t-50.5 -21t-50 21t-21 50t21 50t50 21z" />
    <glyph glyph-name="Lslash" unicode="&#x141;" horiz-adv-x="567" 
d="M542 101v-101h-462v285l-114 -73v114l114 73v306h119v-230l128 82v-114l-128 -82v-260h343z" />
    <glyph glyph-name="lslash" unicode="&#x142;" horiz-adv-x="253" 
d="M275 395l-91 -57v-338h-114v268l-88 -55v98l88 55v339h114v-269l91 57v-98z" />
    <glyph glyph-name="Nacute" unicode="&#x143;" horiz-adv-x="756" 
d="M399 747h-81l68 162h129zM675 0h-100l-376 498v-498h-119v705h100l376 -498v498h119v-705z" />
    <glyph glyph-name="nacute" unicode="&#x144;" horiz-adv-x="607" 
d="M344 519h-81l65 174h124zM343 469q90 0 145.5 -58.5t55.5 -151.5v-259h-114v247q0 58 -30 92t-84 34t-93 -39t-39 -101v-233h-114v454h87l16 -61q71 76 170 76z" />
    <glyph glyph-name="Ncommaaccent" unicode="&#x145;" horiz-adv-x="756" 
d="M675 0h-100l-376 498v-498h-119v705h100l376 -498v498h119v-705zM391 -206h-82l18 151h117z" />
    <glyph glyph-name="ncommaaccent" unicode="&#x146;" horiz-adv-x="607" 
d="M343 469q90 0 145.5 -58.5t55.5 -151.5v-259h-114v247q0 58 -30 92t-84 34t-93 -39t-39 -101v-233h-114v454h87l16 -61q71 76 170 76zM310 -206h-82l18 151h117z" />
    <glyph glyph-name="Ncaron" unicode="&#x147;" horiz-adv-x="756" 
d="M439 747h-123l-99 162h82l78 -96l79 96h82zM675 0h-100l-376 498v-498h-119v705h100l376 -498v498h119v-705z" />
    <glyph glyph-name="ncaron" unicode="&#x148;" horiz-adv-x="607" 
d="M369 519h-123l-99 174h82l78 -108l79 108h82zM343 469q90 0 145.5 -58.5t55.5 -151.5v-259h-114v247q0 58 -30 92t-84 34t-93 -39t-39 -101v-233h-114v454h87l16 -61q71 76 170 76z" />
    <glyph glyph-name="Eng" unicode="&#x14a;" horiz-adv-x="756" 
d="M675 705v-774q0 -99 -72.5 -148t-177.5 -6l25 90q47 -16 76.5 3t29.5 63v92l-357 473v-498h-119v705h100l376 -498v498h119z" />
    <glyph glyph-name="eng" unicode="&#x14b;" horiz-adv-x="607" 
d="M343 469q90 0 145.5 -58.5t55.5 -151.5v-332q0 -103 -71.5 -146t-166.5 -8l-39 15l35 93l32 -12q42 -15 69 4.5t27 59.5v314q0 58 -30 92t-84 34t-93 -39t-39 -101v-233h-114v454h87l16 -61q71 76 170 76z" />
    <glyph glyph-name="Omacron" unicode="&#x14c;" horiz-adv-x="817" 
d="M588 776h-360v83h360v-83zM408 720q164 0 267 -107t103 -261q0 -153 -103 -260t-267 -107t-267 107t-103 260q0 154 103 261t267 107zM408 614q-108 0 -178.5 -73.5t-70.5 -188.5q0 -114 70.5 -187.5t178.5 -73.5t179 73.5t71 187.5q0 115 -70.5 188.5t-179.5 73.5z" />
    <glyph glyph-name="omacron" unicode="&#x14d;" horiz-adv-x="563" 
d="M462 556h-360v83h360v-83zM281 469q110 0 179 -70t69 -172q0 -103 -69 -172.5t-179 -69.5t-179 69.5t-69 172.5q0 102 69 172t179 70zM282 373q-59 0 -96.5 -41.5t-37.5 -104.5t37.5 -104.5t96.5 -41.5q58 0 95.5 41.5t37.5 104.5t-37.5 104.5t-95.5 41.5z" />
    <glyph glyph-name="Obreve" unicode="&#x14e;" horiz-adv-x="817" 
d="M489 905h91q-2 -66 -48 -113.5t-123 -47.5t-123.5 48t-47.5 113h91q0 -32 20 -57t60 -25q39 0 59.5 25t20.5 57zM408 720q164 0 267 -107t103 -261q0 -153 -103 -260t-267 -107t-267 107t-103 260q0 154 103 261t267 107zM408 614q-108 0 -178.5 -73.5t-70.5 -188.5
q0 -114 70.5 -187.5t178.5 -73.5t179 73.5t71 187.5q0 115 -70.5 188.5t-179.5 73.5z" />
    <glyph glyph-name="obreve" unicode="&#x14f;" horiz-adv-x="563" 
d="M361 691h91q2 -70 -45 -121t-126 -51t-126 51t-45 121h91q-3 -36 17 -64.5t63 -28.5t63 28.5t17 64.5zM281 469q110 0 179 -70t69 -172q0 -103 -69 -172.5t-179 -69.5t-179 69.5t-69 172.5q0 102 69 172t179 70zM282 373q-59 0 -96.5 -41.5t-37.5 -104.5t37.5 -104.5
t96.5 -41.5q58 0 95.5 41.5t37.5 104.5t-37.5 104.5t-95.5 41.5z" />
    <glyph glyph-name="Ohungarumlaut" unicode="&#x150;" horiz-adv-x="817" 
d="M352 747h-84l59 162h117zM543 747h-84l59 162h117zM408 720q164 0 267 -107t103 -261q0 -153 -103 -260t-267 -107t-267 107t-103 260q0 154 103 261t267 107zM408 614q-108 0 -178.5 -73.5t-70.5 -188.5q0 -114 70.5 -187.5t178.5 -73.5t179 73.5t71 187.5
q0 115 -70.5 188.5t-179.5 73.5z" />
    <glyph glyph-name="ohungarumlaut" unicode="&#x151;" horiz-adv-x="563" 
d="M230 519h-84l59 174h117zM421 519h-84l59 174h117zM281 469q110 0 179 -70t69 -172q0 -103 -69 -172.5t-179 -69.5t-179 69.5t-69 172.5q0 102 69 172t179 70zM282 373q-59 0 -96.5 -41.5t-37.5 -104.5t37.5 -104.5t96.5 -41.5q58 0 95.5 41.5t37.5 104.5t-37.5 104.5
t-95.5 41.5z" />
    <glyph glyph-name="OE" unicode="&#x152;" horiz-adv-x="1216" 
d="M408 720q155 0 250 -107v92h501v-101h-382v-186h316v-101h-316v-216h382v-101h-501v92q-95 -107 -250 -107q-164 0 -267 107t-103 260q0 154 103 261t267 107zM408 614q-108 0 -178.5 -73.5t-70.5 -188.5q0 -114 70.5 -187.5t178.5 -73.5t179 73.5t71 187.5
q0 115 -70.5 188.5t-179.5 73.5z" />
    <glyph glyph-name="oe" unicode="&#x153;" horiz-adv-x="927" 
d="M892 201h-361q4 -57 40.5 -90.5t89.5 -33.5q82 0 118 76l94 -45q-30 -58 -85.5 -90.5t-121.5 -32.5q-121 0 -193 83q-72 -83 -192 -83q-110 0 -179 69.5t-69 172.5q0 102 69 172t179 70q120 0 192 -84q72 84 191 84q90 0 160 -64t70 -179zM538 276h241q-5 48 -37 77.5
t-80 29.5q-49 0 -83.5 -30.5t-40.5 -76.5zM282 81q58 0 95.5 41.5t37.5 104.5t-37.5 104.5t-95.5 41.5q-59 0 -96.5 -41.5t-37.5 -104.5t37.5 -104.5t96.5 -41.5z" />
    <glyph glyph-name="Racute" unicode="&#x154;" horiz-adv-x="726" 
d="M326 747h-81l68 162h129zM80 705h306q109 0 167 -57.5t58 -142.5q0 -64 -35.5 -110.5t-103.5 -69.5l215 -325h-138l-202 305h-148v-305h-119v705zM199 604v-198h183q52 0 81 27.5t29 71.5q0 45 -29 72t-81 27h-183z" />
    <glyph glyph-name="racute" unicode="&#x155;" horiz-adv-x="408" 
d="M246 519h-81l65 174h124zM157 454l15 -57q36 49 95.5 64.5t120.5 -9.5l-35 -96q-68 29 -118.5 -5.5t-50.5 -106.5v-244h-114v454h87z" />
    <glyph glyph-name="Rcommaaccent" unicode="&#x156;" horiz-adv-x="726" 
d="M80 705h306q109 0 167 -57.5t58 -142.5q0 -64 -35.5 -110.5t-103.5 -69.5l215 -325h-138l-202 305h-148v-305h-119v705zM199 604v-198h183q52 0 81 27.5t29 71.5q0 45 -29 72t-81 27h-183zM357 -206h-82l18 151h117z" />
    <glyph glyph-name="rcommaaccent" unicode="&#x157;" horiz-adv-x="408" 
d="M157 454l15 -57q36 49 95.5 64.5t120.5 -9.5l-35 -96q-68 29 -118.5 -5.5t-50.5 -106.5v-244h-114v454h87zM132 -206h-82l18 151h117z" />
    <glyph glyph-name="Rcaron" unicode="&#x158;" horiz-adv-x="726" 
d="M359 747h-123l-99 162h82l78 -96l79 96h82zM80 705h306q109 0 167 -57.5t58 -142.5q0 -64 -35.5 -110.5t-103.5 -69.5l215 -325h-138l-202 305h-148v-305h-119v705zM199 604v-198h183q52 0 81 27.5t29 71.5q0 45 -29 72t-81 27h-183z" />
    <glyph glyph-name="rcaron" unicode="&#x159;" horiz-adv-x="408" 
d="M266 519h-123l-99 174h82l78 -108l79 108h82zM157 454l15 -57q36 49 95.5 64.5t120.5 -9.5l-35 -96q-68 29 -118.5 -5.5t-50.5 -106.5v-244h-114v454h87z" />
    <glyph glyph-name="Sacute" unicode="&#x15a;" 
d="M356 747h-81l68 162h129zM318 720q93 0 165 -46t109 -133l-104 -37q-51 115 -173 115q-55 0 -90 -25t-35 -65q0 -32 23 -53.5t60 -33.5t81 -22.5t88.5 -26t81.5 -37t60 -62t23 -96.5q0 -96 -76.5 -154.5t-191.5 -58.5q-48 0 -92 10.5t-87 34t-77 67t-53 103.5l105 37
q24 -76 79 -113.5t129 -37.5q63 0 104 29t41 77q0 36 -23 60.5t-59.5 38t-81 25t-89 26t-81 35.5t-59.5 59.5t-23 92.5q0 81 70 136t176 55z" />
    <glyph glyph-name="sacute" unicode="&#x15b;" horiz-adv-x="462" 
d="M280 519h-81l65 174h124zM233 469q67 0 118.5 -28.5t80.5 -79.5l-85 -36q-40 68 -112 68q-30 0 -50.5 -12t-20.5 -32q0 -24 26 -37t83 -28q88 -24 128 -59.5t40 -97.5q0 -59 -54 -100.5t-141 -41.5q-70 0 -130.5 34t-87.5 98l89 38q17 -39 52.5 -64.5t80.5 -25.5
q33 0 55 15t22 39q0 29 -24 44t-80 29q-83 22 -126.5 57.5t-43.5 91.5q0 55 50 91.5t130 36.5z" />
    <glyph glyph-name="Scircumflex" unicode="&#x15c;" 
d="M409 747l-79 96l-78 -96h-82l99 162h123l99 -162h-82zM318 720q93 0 165 -46t109 -133l-104 -37q-51 115 -173 115q-55 0 -90 -25t-35 -65q0 -32 23 -53.5t60 -33.5t81 -22.5t88.5 -26t81.5 -37t60 -62t23 -96.5q0 -96 -76.5 -154.5t-191.5 -58.5q-48 0 -92 10.5t-87 34
t-77 67t-53 103.5l105 37q24 -76 79 -113.5t129 -37.5q63 0 104 29t41 77q0 36 -23 60.5t-59.5 38t-81 25t-89 26t-81 35.5t-59.5 59.5t-23 92.5q0 81 70 136t176 55z" />
    <glyph glyph-name="scircumflex" unicode="&#x15d;" horiz-adv-x="462" 
d="M321 519l-79 108l-78 -108h-82l99 174h123l99 -174h-82zM233 469q67 0 118.5 -28.5t80.5 -79.5l-85 -36q-40 68 -112 68q-30 0 -50.5 -12t-20.5 -32q0 -24 26 -37t83 -28q88 -24 128 -59.5t40 -97.5q0 -59 -54 -100.5t-141 -41.5q-70 0 -130.5 34t-87.5 98l89 38
q17 -39 52.5 -64.5t80.5 -25.5q33 0 55 15t22 39q0 29 -24 44t-80 29q-83 22 -126.5 57.5t-43.5 91.5q0 55 50 91.5t130 36.5z" />
    <glyph glyph-name="Scedilla" unicode="&#x15e;" 
d="M607 198q0 -88 -65.5 -145t-167.5 -66l-18 -156h-105l39 157q-57 6 -105 27.5t-91 68.5t-64 116l105 37q24 -76 79 -113.5t129 -37.5q63 0 104 29t41 77q0 36 -23 60.5t-59.5 38t-81 25t-89 26t-81 35.5t-59.5 59.5t-23 92.5q0 81 70 136t176 55q93 0 165 -46t109 -133
l-104 -37q-51 115 -173 115q-55 0 -90 -25t-35 -65q0 -32 23 -53.5t60 -33.5t81 -22.5t88.5 -26t81.5 -37t60 -62t23 -96.5z" />
    <glyph glyph-name="scedilla" unicode="&#x15f;" horiz-adv-x="462" 
d="M441 127q0 -51 -40.5 -89.5t-108.5 -49.5l-19 -157h-105l39 157q-59 9 -107.5 41.5t-71.5 87.5l89 38q17 -39 52.5 -64.5t80.5 -25.5q33 0 55 15t22 39q0 29 -24 44t-80 29q-83 22 -126.5 57.5t-43.5 91.5q0 55 50 91.5t130 36.5q67 0 118.5 -28.5t80.5 -79.5l-85 -36
q-40 68 -112 68q-30 0 -50.5 -12t-20.5 -32q0 -24 26 -37t83 -28q88 -24 128 -59.5t40 -97.5z" />
    <glyph glyph-name="Scaron" unicode="&#x160;" 
d="M383 747h-123l-99 162h82l78 -96l79 96h82zM318 720q93 0 165 -46t109 -133l-104 -37q-51 115 -173 115q-55 0 -90 -25t-35 -65q0 -32 23 -53.5t60 -33.5t81 -22.5t88.5 -26t81.5 -37t60 -62t23 -96.5q0 -96 -76.5 -154.5t-191.5 -58.5q-48 0 -92 10.5t-87 34t-77 67
t-53 103.5l105 37q24 -76 79 -113.5t129 -37.5q63 0 104 29t41 77q0 36 -23 60.5t-59.5 38t-81 25t-89 26t-81 35.5t-59.5 59.5t-23 92.5q0 81 70 136t176 55z" />
    <glyph glyph-name="scaron" unicode="&#x161;" horiz-adv-x="462" 
d="M297 519h-123l-99 174h82l78 -108l79 108h82zM233 469q67 0 118.5 -28.5t80.5 -79.5l-85 -36q-40 68 -112 68q-30 0 -50.5 -12t-20.5 -32q0 -24 26 -37t83 -28q88 -24 128 -59.5t40 -97.5q0 -59 -54 -100.5t-141 -41.5q-70 0 -130.5 34t-87.5 98l89 38q17 -39 52.5 -64.5
t80.5 -25.5q33 0 55 15t22 39q0 29 -24 44t-80 29q-83 22 -126.5 57.5t-43.5 91.5q0 55 50 91.5t130 36.5z" />
    <glyph glyph-name="Tcedilla" unicode="&#x162;" horiz-adv-x="557" 
d="M310 0l-5 -47q34 -7 54 -31t20 -56q0 -34 -27 -62.5t-74 -28.5q-46 0 -72.5 28.5t-26.5 64.5l63 2q-1 -19 9 -30.5t27 -11.5q16 0 25.5 10.5t9.5 27.5q0 16 -10 27t-28 11h-15l-20 30l7 66h-28v604h-202v101h524v-101h-203v-604h-28z" />
    <glyph glyph-name="tcedilla" unicode="&#x163;" horiz-adv-x="372" 
d="M206 0l-5 -47q35 -7 55 -31t20 -56q0 -34 -27 -62.5t-74 -28.5q-46 0 -72.5 28.5t-26.5 64.5l63 2q-1 -19 9 -30.5t27 -11.5q16 0 25.5 10.5t9.5 27.5t-10.5 27.5t-28.5 10.5h-15l-19 30l7 66h-26v358h-105v96h105v164h114v-164h130v-96h-130v-358h-26z" />
    <glyph glyph-name="Tcaron" unicode="&#x164;" horiz-adv-x="557" 
d="M340 747h-123l-99 162h82l78 -96l79 96h82zM541 604h-203v-604h-119v604h-202v101h524v-101z" />
    <glyph glyph-name="tcaron" unicode="&#x165;" horiz-adv-x="478" 
d="M359 512h-74l25 193h111zM239 454h159v-96h-159v-200q0 -38 27.5 -56.5t68.5 -4.5l32 12l35 -92l-39 -15q-91 -38 -164.5 5.5t-73.5 147.5v203h-112v96h112v144h114v-144z" />
    <glyph glyph-name="Tbar" unicode="&#x166;" horiz-adv-x="557" 
d="M338 604v-180h180v-87h-180v-337h-119v337h-179v87h179v180h-202v101h524v-101h-203z" />
    <glyph glyph-name="tbar" unicode="&#x167;" horiz-adv-x="440" 
d="M402 17l-39 -15q-91 -38 -164.5 5.5t-73.5 147.5v64h-92v61h92v78h-112v96h112v144h114v-144h159v-96h-159v-78h143v-61h-143v-61q0 -38 27.5 -56.5t68.5 -4.5l32 12z" />
    <glyph glyph-name="Utilde" unicode="&#x168;" horiz-adv-x="753" 
d="M286 920q30 0 57 -14t43 -30t37 -30t40 -14q52 0 43 72h65q10 -67 -21 -107.5t-85 -40.5q-39 0 -71 22t-57 44t-47 22q-28 0 -38.5 -21.5t-4.5 -49.5h-66q-9 67 21.5 107t83.5 40zM672 705v-437q0 -52 -16 -100t-49 -90.5t-92.5 -67.5t-138.5 -25q-63 0 -114.5 17
t-84.5 44.5t-55.5 65t-32 76.5t-9.5 80v437h119v-428q0 -88 44.5 -139.5t132.5 -51.5q89 0 133 51.5t44 139.5v428h119z" />
    <glyph glyph-name="utilde" unicode="&#x169;" horiz-adv-x="614" 
d="M216 684q30 0 57 -14t43 -30t37 -30t40 -14q52 0 43 72h65q10 -67 -21 -107.5t-85 -40.5q-39 0 -71 22t-57 44t-47 22q-28 0 -38.5 -21.5t-4.5 -49.5h-66q-9 67 21.5 107t83.5 40zM544 0h-87l-16 60q-72 -75 -171 -75q-89 0 -144.5 58.5t-55.5 150.5v260h114v-248
q0 -58 30 -91.5t84 -33.5t93 39t39 100v234h114v-454z" />
    <glyph glyph-name="Umacron" unicode="&#x16a;" horiz-adv-x="753" 
d="M556 776h-360v83h360v-83zM672 705v-437q0 -52 -16 -100t-49 -90.5t-92.5 -67.5t-138.5 -25q-63 0 -114.5 17t-84.5 44.5t-55.5 65t-32 76.5t-9.5 80v437h119v-428q0 -88 44.5 -139.5t132.5 -51.5q89 0 133 51.5t44 139.5v428h119z" />
    <glyph glyph-name="umacron" unicode="&#x16b;" horiz-adv-x="614" 
d="M488 556h-360l-1 83h360zM548 0h-87l-17 60q-70 -75 -170 -75q-89 0 -145 58.5t-57 150.5l-3 260h114l3 -248q1 -58 31 -91.5t84 -33.5t92.5 39t38.5 100l-3 234h114z" />
    <glyph glyph-name="Ubreve" unicode="&#x16c;" horiz-adv-x="753" 
d="M457 905h91q-2 -66 -48 -113.5t-123 -47.5t-123.5 48t-47.5 113h91q0 -32 20 -57t60 -25q39 0 59.5 25t20.5 57zM672 705v-437q0 -52 -16 -100t-49 -90.5t-92.5 -67.5t-138.5 -25q-63 0 -114.5 17t-84.5 44.5t-55.5 65t-32 76.5t-9.5 80v437h119v-428q0 -88 44.5 -139.5
t132.5 -51.5q89 0 133 51.5t44 139.5v428h119z" />
    <glyph glyph-name="ubreve" unicode="&#x16d;" horiz-adv-x="614" 
d="M387 691h91q2 -70 -45 -121t-126 -51t-126 51t-45 121h91q-3 -36 17 -64.5t63 -28.5t63 28.5t17 64.5zM544 0h-87l-16 60q-72 -75 -171 -75q-89 0 -144.5 58.5t-55.5 150.5v260h114v-248q0 -58 30 -91.5t84 -33.5t93 39t39 100v234h114v-454z" />
    <glyph glyph-name="Uring" unicode="&#x16e;" horiz-adv-x="753" 
d="M376 985q55 0 93 -37.5t38 -92.5t-38 -93t-93 -38q-56 0 -93.5 38t-37.5 93t38 92.5t93 37.5zM376 913q-25 0 -41.5 -17t-16.5 -42q0 -24 16.5 -41t41.5 -17t41.5 17t16.5 41q0 25 -16.5 42t-41.5 17zM672 705v-437q0 -52 -16 -100t-49 -90.5t-92.5 -67.5t-138.5 -25
q-63 0 -114.5 17t-84.5 44.5t-55.5 65t-32 76.5t-9.5 80v437h119v-428q0 -88 44.5 -139.5t132.5 -51.5q89 0 133 51.5t44 139.5v428h119z" />
    <glyph glyph-name="uring" unicode="&#x16f;" horiz-adv-x="614" 
d="M307 770q55 0 93 -37.5t38 -92.5t-38 -93t-93 -38t-93 37.5t-38 93.5q0 55 38 92.5t93 37.5zM307 698q-25 0 -41.5 -17t-16.5 -41q0 -25 16.5 -42t41.5 -17t41.5 17t16.5 42q0 24 -16.5 41t-41.5 17zM544 0h-87l-16 60q-72 -75 -171 -75q-89 0 -144.5 58.5t-55.5 150.5
v260h114v-248q0 -58 30 -91.5t84 -33.5t93 39t39 100v234h114v-454z" />
    <glyph glyph-name="Uhungarumlaut" unicode="&#x170;" horiz-adv-x="753" 
d="M308 747h-84l59 162h117zM499 747h-84l59 162h117zM672 705v-437q0 -52 -16 -100t-49 -90.5t-92.5 -67.5t-138.5 -25q-63 0 -114.5 17t-84.5 44.5t-55.5 65t-32 76.5t-9.5 80v437h119v-428q0 -88 44.5 -139.5t132.5 -51.5q89 0 133 51.5t44 139.5v428h119z" />
    <glyph glyph-name="uhungarumlaut" unicode="&#x171;" horiz-adv-x="614" 
d="M245 519h-84l59 174h117zM436 519h-84l59 174h117zM544 0h-87l-16 60q-72 -75 -171 -75q-89 0 -144.5 58.5t-55.5 150.5v260h114v-248q0 -58 30 -91.5t84 -33.5t93 39t39 100v234h114v-454z" />
    <glyph glyph-name="Uogonek" unicode="&#x172;" horiz-adv-x="753" 
d="M672 705v-437q0 -99 -55 -178t-170 -99q-76 -50 -76 -99q0 -21 13.5 -33.5t35.5 -12.5q20 0 48 16l28 -65q-43 -30 -100 -30q-51 0 -86 27t-35 73q0 65 68 119q-70 5 -122.5 32t-82 68t-44 87t-14.5 95v437h119v-428q0 -88 44.5 -139.5t132.5 -51.5q89 0 133 51.5
t44 139.5v428h119z" />
    <glyph glyph-name="uogonek" unicode="&#x173;" horiz-adv-x="623" 
d="M550 -138l28 -65q-43 -30 -100 -30q-51 0 -86 27t-35 73q0 79 98 141l-14 52q-72 -75 -171 -75q-89 0 -144.5 58.5t-55.5 150.5v260h114v-248q0 -58 30 -91.5t84 -33.5t93 39t39 100v234h114v-454q-91 -55 -91 -108q0 -21 13.5 -33.5t35.5 -12.5q20 0 48 16z" />
    <glyph glyph-name="Wcircumflex" unicode="&#x174;" horiz-adv-x="981" 
d="M569 747l-79 96l-78 -96h-82l99 162h123l99 -162h-82zM734 0h-100l-143 438l-144 -438h-100l-237 705h126l164 -496l166 496h49l166 -496l164 496h126z" />
    <glyph glyph-name="wcircumflex" unicode="&#x175;" horiz-adv-x="738" 
d="M448 519l-79 108l-78 -108h-82l99 174h123l99 -174h-82zM562 0h-93l-100 275l-100 -275h-93l-166 454h115l104 -285l104 285h73l104 -285l104 285h114z" />
    <glyph glyph-name="Ycircumflex" unicode="&#x176;" horiz-adv-x="696" 
d="M427 747l-79 96l-78 -96h-82l99 162h123l99 -162h-82zM408 302v-302h-119v302l-279 403h143l195 -289l196 289h142z" />
    <glyph glyph-name="ycircumflex" unicode="&#x177;" horiz-adv-x="547" 
d="M352 519l-79 108l-78 -108h-82l99 174h123l99 -174h-82zM220 -215h-119l119 254l-210 415h126l145 -298l134 298h122z" />
    <glyph glyph-name="Ydieresis" unicode="&#x178;" horiz-adv-x="696" 
d="M239 899q30 0 51.5 -21t21.5 -51q0 -29 -22 -50t-51 -21q-30 0 -51.5 21t-21.5 50q0 30 21.5 51t51.5 21zM458 899q29 0 50.5 -21t21.5 -51q0 -29 -21.5 -50t-50.5 -21q-30 0 -51.5 21t-21.5 50q0 30 21.5 51t51.5 21zM408 302v-302h-119v302l-279 403h143l195 -289
l196 289h142z" />
    <glyph glyph-name="Zacute" unicode="&#x179;" 
d="M333 747h-81l68 162h129zM579 619l-388 -518h403v-101h-556v86l388 518h-375v101h528v-86z" />
    <glyph glyph-name="zacute" unicode="&#x17a;" horiz-adv-x="470" 
d="M270 519h-81l65 174h124zM436 381l-259 -285h273v-96h-430v74l259 284h-245v96h402v-73z" />
    <glyph glyph-name="Zdotaccent" unicode="&#x17b;" 
d="M308 911q32 0 55 -22.5t23 -53.5q0 -32 -23 -54t-55 -22t-54.5 22t-22.5 54q0 31 22.5 53.5t54.5 22.5zM579 619l-388 -518h403v-101h-556v86l388 518h-375v101h528v-86z" />
    <glyph glyph-name="zdotaccent" unicode="&#x17c;" horiz-adv-x="470" 
d="M235 671q29 0 50.5 -21t21.5 -50t-21.5 -50t-50.5 -21t-50 21t-21 50t21 50t50 21zM436 381l-259 -285h273v-96h-430v74l259 284h-245v96h402v-73z" />
    <glyph glyph-name="Zcaron" unicode="&#x17d;" 
d="M369 747h-123l-99 162h82l78 -96l79 96h82zM579 619l-388 -518h403v-101h-556v86l388 518h-375v101h528v-86z" />
    <glyph glyph-name="zcaron" unicode="&#x17e;" horiz-adv-x="470" 
d="M297 519h-123l-99 174h82l78 -108l79 108h82zM436 381l-259 -285h273v-96h-430v74l259 284h-245v96h402v-73z" />
    <glyph glyph-name="longs" unicode="&#x17f;" horiz-adv-x="400" 
d="M390 691l-35 -93l-32 11q-42 15 -69 -4.5t-27 -58.5v-546h-114v358h-103v96h103v98q0 103 71.5 145.5t166.5 7.5z" />
    <glyph glyph-name="florin" unicode="&#x192;" horiz-adv-x="548" 
d="M538 691l-35 -93l-33 11q-81 30 -96 -61l-13 -94h162v-96h-175l-62 -446q-14 -97 -80.5 -134.5t-153.5 -6.5l-42 16l35 93l32 -12q82 -29 95 61l61 429h-103v96h116l15 111q14 98 80 135t154 6z" />
    <glyph glyph-name="Scommaaccent" unicode="&#x218;" 
d="M318 720q93 0 165 -46t109 -133l-104 -37q-51 115 -173 115q-55 0 -90 -25t-35 -65q0 -32 23 -53.5t60 -33.5t81 -22.5t88.5 -26t81.5 -37t60 -62t23 -96.5q0 -96 -76.5 -154.5t-191.5 -58.5q-48 0 -92 10.5t-87 34t-77 67t-53 103.5l105 37q24 -76 79 -113.5t129 -37.5
q63 0 104 29t41 77q0 36 -23 60.5t-59.5 38t-81 25t-89 26t-81 35.5t-59.5 59.5t-23 92.5q0 81 70 136t176 55zM347 -206h-82l18 151h117z" />
    <glyph glyph-name="scommaaccent" unicode="&#x219;" horiz-adv-x="462" 
d="M233 469q67 0 118.5 -28.5t80.5 -79.5l-85 -36q-40 68 -112 68q-30 0 -50.5 -12t-20.5 -32q0 -24 26 -37t83 -28q88 -24 128 -59.5t40 -97.5q0 -59 -54 -100.5t-141 -41.5q-70 0 -130.5 34t-87.5 98l89 38q17 -39 52.5 -64.5t80.5 -25.5q33 0 55 15t22 39q0 29 -24 44
t-80 29q-83 22 -126.5 57.5t-43.5 91.5q0 55 50 91.5t130 36.5zM252 -206h-82l18 151h117z" />
    <glyph glyph-name="uni021A" unicode="&#x21a;" horiz-adv-x="557" 
d="M541 604h-203v-604h-119v604h-202v101h524v-101zM283 -206h-82l18 151h117z" />
    <glyph glyph-name="uni021B" unicode="&#x21b;" horiz-adv-x="372" 
d="M232 454h130v-96h-130v-358h-114v358h-105v96h105v164h114v-164zM182 -206h-82l18 151h117z" />
    <glyph glyph-name="dotlessj" unicode="&#x237;" horiz-adv-x="272" 
d="M209 454v-527q0 -103 -71.5 -146t-166.5 -8l-39 15l35 93l32 -12q42 -15 69 4.5t27 59.5v521h114z" />
    <glyph glyph-name="circumflex" unicode="&#x2c6;" horiz-adv-x="421" 
d="M289 519l-79 108l-78 -108h-82l99 174h123l99 -174h-82z" />
    <glyph glyph-name="caron" unicode="&#x2c7;" horiz-adv-x="421" 
d="M272 519h-123l-99 174h82l78 -108l79 108h82z" />
    <glyph glyph-name="breve" unicode="&#x2d8;" horiz-adv-x="442" 
d="M301 691h91q2 -70 -45 -121t-126 -51t-126 51t-45 121h91q-3 -36 17 -64.5t63 -28.5t63 28.5t17 64.5z" />
    <glyph glyph-name="dotaccent" unicode="&#x2d9;" horiz-adv-x="243" 
d="M121 671q29 0 50.5 -21t21.5 -50t-21.5 -50t-50.5 -21t-50 21t-21 50t21 50t50 21z" />
    <glyph glyph-name="ring" unicode="&#x2da;" horiz-adv-x="362" 
d="M181 770q55 0 93 -37.5t38 -92.5t-38 -93t-93 -38t-93 37.5t-38 93.5q0 55 38 92.5t93 37.5zM181 698q-25 0 -41.5 -17t-16.5 -41q0 -25 16.5 -42t41.5 -17t41.5 17t16.5 42q0 24 -16.5 41t-41.5 17z" />
    <glyph glyph-name="ogonek" unicode="&#x2db;" horiz-adv-x="321" 
d="M144 5l93 -5q-91 -55 -91 -108q0 -21 13.5 -33.5t35.5 -12.5q20 0 48 16l28 -65q-43 -30 -100 -30q-51 0 -86 27t-35 73q0 76 94 138z" />
    <glyph glyph-name="tilde" unicode="&#x2dc;" horiz-adv-x="494" 
d="M157 684q30 0 57 -14t43 -30t37 -30t40 -14q52 0 43 72h65q10 -67 -21 -107.5t-85 -40.5q-39 0 -71 22t-57 44t-47 22q-28 0 -38.5 -21.5t-4.5 -49.5h-66q-9 67 21.5 107t83.5 40z" />
    <glyph glyph-name="hungarumlaut" unicode="&#x2dd;" horiz-adv-x="467" 
d="M134 519h-84l59 174h117zM325 519h-84l59 174h117z" />
    <glyph glyph-name="commaaccentcomb" unicode="&#x326;" horiz-adv-x="0" 
d="M132 -206h-82l18 151h117z" />
    <glyph glyph-name="Delta" unicode="&#x394;" horiz-adv-x="698" 
d="M692 0h-685l293 705h99zM522 101l-172 429l-173 -429h345z" />
    <glyph glyph-name="Omega" unicode="&#x3a9;" horiz-adv-x="830" 
d="M415 720q160 0 265 -104.5t105 -251.5q0 -163 -131 -263h128v-101h-308v90q91 39 140.5 109.5t49.5 162.5q0 109 -70.5 180.5t-178.5 71.5t-178.5 -71.5t-70.5 -180.5q0 -92 49.5 -162.5t140.5 -109.5v-90h-308v101h128q-131 100 -131 263q0 147 105 251.5t265 104.5z
" />
    <glyph glyph-name="mu" unicode="&#x3bc;" horiz-adv-x="614" 
d="M544 454v-454h-87l-16 60q-72 -75 -171 -75q-47 0 -86 17v-212h-114v664h114v-248q0 -58 30 -91.5t84 -33.5t93 39t39 100v234h114z" />
    <glyph glyph-name="pi" unicode="&#x3c0;" horiz-adv-x="734" 
d="M639 462h-108v-303q0 -31 17 -50.5t46 -19.5q15 0 42 9l27 -95q-50 -19 -89 -19q-68 0 -112.5 45t-44.5 124v309h-126v-462h-115v462h-106v101h569v-101z" />
    <glyph glyph-name="Wgrave" unicode="&#x1e80;" horiz-adv-x="981" 
d="M462 909l68 -162h-81l-116 162h129zM734 0h-100l-143 438l-144 -438h-100l-237 705h126l164 -496l166 496h49l166 -496l164 496h126z" />
    <glyph glyph-name="wgrave" unicode="&#x1e81;" horiz-adv-x="738" 
d="M338 693l65 -174h-81l-108 174h124zM562 0h-93l-100 275l-100 -275h-93l-166 454h115l104 -285l104 285h73l104 -285l104 285h114z" />
    <glyph glyph-name="Wacute" unicode="&#x1e82;" horiz-adv-x="981" 
d="M531 747h-81l68 162h129zM734 0h-100l-143 438l-144 -438h-100l-237 705h126l164 -496l166 496h49l166 -496l164 496h126z" />
    <glyph glyph-name="wacute" unicode="&#x1e83;" horiz-adv-x="738" 
d="M412 519h-81l65 174h124zM562 0h-93l-100 275l-100 -275h-93l-166 454h115l104 -285l104 285h73l104 -285l104 285h114z" />
    <glyph glyph-name="Wdieresis" unicode="&#x1e84;" horiz-adv-x="981" 
d="M382 899q30 0 51.5 -21t21.5 -51q0 -29 -22 -50t-51 -21q-30 0 -51.5 21t-21.5 50q0 30 21.5 51t51.5 21zM601 899q29 0 50.5 -21t21.5 -51q0 -29 -21.5 -50t-50.5 -21q-30 0 -51.5 21t-21.5 50q0 30 21.5 51t51.5 21zM734 0h-100l-143 438l-144 -438h-100l-237 705h126
l164 -496l166 496h49l166 -496l164 496h126z" />
    <glyph glyph-name="wdieresis" unicode="&#x1e85;" horiz-adv-x="738" 
d="M267 668q28 0 48 -20t20 -48t-20 -47.5t-48 -19.5t-48 19.5t-20 47.5t20 48t48 20zM473 668q28 0 48 -20t20 -48t-20 -47.5t-48 -19.5t-48 19.5t-20 47.5t20 48t48 20zM562 0h-93l-100 275l-100 -275h-93l-166 454h115l104 -285l104 285h73l104 -285l104 285h114z" />
    <glyph glyph-name="uni1E9E" unicode="&#x1e9e;" horiz-adv-x="709" 
d="M353 720q165 0 256 -144l-149 -162q99 -9 155 -68.5t56 -138.5q0 -89 -64 -155.5t-182 -66.5q-97 0 -171 42l42 97q54 -34 120 -34q64 0 100 34.5t36 84.5q0 54 -38 84t-99 30q-32 0 -62 -8l-39 81l151 167q-40 52 -115 52q-66 0 -108.5 -43t-42.5 -115v-457h-119v446
q0 122 72 198t201 76z" />
    <glyph glyph-name="Ygrave" unicode="&#x1ef2;" horiz-adv-x="696" 
d="M324 909l68 -162h-81l-116 162h129zM408 302v-302h-119v302l-279 403h143l195 -289l196 289h142z" />
    <glyph glyph-name="ygrave" unicode="&#x1ef3;" horiz-adv-x="547" 
d="M249 693l65 -174h-81l-108 174h124zM220 -215h-119l119 254l-210 415h126l145 -298l134 298h122z" />
    <glyph glyph-name="endash" unicode="&#x2013;" horiz-adv-x="615" 
d="M535 213h-455v85h455v-85z" />
    <glyph glyph-name="emdash" unicode="&#x2014;" horiz-adv-x="1058" 
d="M978 213h-898v85h898v-85z" />
    <glyph glyph-name="quoteleft" unicode="&#x2018;" horiz-adv-x="230" 
d="M117 798h83l-37 -268h-123z" />
    <glyph glyph-name="quoteright" unicode="&#x2019;" horiz-adv-x="230" 
d="M118 527h-83l37 268h123z" />
    <glyph glyph-name="quotesinglbase" unicode="&#x201a;" horiz-adv-x="230" 
d="M118 -94h-83l37 267h123z" />
    <glyph glyph-name="quotedblleft" unicode="&#x201c;" horiz-adv-x="415" 
d="M117 798h83l-37 -268h-123zM302 798h83l-37 -268h-123z" />
    <glyph glyph-name="quotedblright" unicode="&#x201d;" horiz-adv-x="415" 
d="M113 527h-83l37 268h123zM298 527h-83l37 268h123z" />
    <glyph glyph-name="quotedblbase" unicode="&#x201e;" horiz-adv-x="415" 
d="M108 -93h-83l37 268h123zM293 -93h-83l37 268h123z" />
    <glyph glyph-name="dagger" unicode="&#x2020;" horiz-adv-x="702" 
d="M408 445h214v-96h-214v-559h-114v559h-214v96h214v260h114v-260z" />
    <glyph glyph-name="daggerdbl" unicode="&#x2021;" horiz-adv-x="719" 
d="M424 349v-203h198v-96h-198v-260h-114v260h-230v96h230v203h-214v96h214v260h114v-260h214v-96h-214z" />
    <glyph glyph-name="bullet" unicode="&#x2022;" horiz-adv-x="369" 
d="M184 396q43 0 74 -31t31 -74t-31 -73.5t-74 -30.5t-73.5 30.5t-30.5 73.5t30.5 74t73.5 31z" />
    <glyph glyph-name="twodotenleader" unicode="&#x2025;" horiz-adv-x="441" 
d="M111 132q30 0 51.5 -21.5t21.5 -51.5q0 -31 -21.5 -52.5t-51.5 -21.5q-31 0 -52.5 21.5t-21.5 52.5q0 30 21.5 51.5t52.5 21.5zM331 132q30 0 51.5 -21.5t21.5 -51.5q0 -31 -21.5 -52.5t-51.5 -21.5q-31 0 -52.5 21.5t-21.5 52.5q0 30 21.5 51.5t52.5 21.5z" />
    <glyph glyph-name="ellipsis" unicode="&#x2026;" horiz-adv-x="668" 
d="M111 132q30 0 51.5 -21.5t21.5 -51.5q0 -31 -21.5 -52.5t-51.5 -21.5q-31 0 -52.5 21.5t-21.5 52.5q0 30 21.5 51.5t52.5 21.5zM335 132q30 0 51.5 -21.5t21.5 -51.5q0 -31 -21.5 -52.5t-51.5 -21.5q-31 0 -52.5 21.5t-21.5 52.5q0 30 21.5 51.5t52.5 21.5zM558 132
q30 0 51.5 -21.5t21.5 -51.5q0 -31 -21.5 -52.5t-51.5 -21.5q-31 0 -52.5 21.5t-21.5 52.5q0 30 21.5 51.5t52.5 21.5z" />
    <glyph glyph-name="perthousand" unicode="&#x2030;" horiz-adv-x="984" 
d="M188 710q44 0 75.5 -18t47 -47.5t22 -59t6.5 -62.5t-6.5 -62.5t-22 -59t-47 -47.5t-75.5 -18t-75 18t-46.5 47.5t-22 59t-6.5 62.5t6.5 62.5t22 59t46.5 47.5t75 18zM233 0h-90l387 705h90zM188 644q-67 0 -67 -120q0 -118 67 -118q68 0 68 118q0 120 -68 120zM795 368
q44 0 75.5 -18t47 -47.5t22 -59t6.5 -62.5q0 -32 -6.5 -62t-22 -59.5t-47 -47.5t-75.5 -18q-74 0 -111 61q-37 -61 -111 -61q-44 0 -75 18t-46.5 47.5t-22 59.5t-6.5 62q0 33 6.5 62.5t22 59t46.5 47.5t75 18q74 0 111 -60q37 60 111 60zM573 300q-67 0 -67 -119
q0 -118 67 -118q68 0 68 118q0 119 -68 119zM795 300q-67 0 -67 -119q0 -118 67 -118q68 0 68 118q0 119 -68 119z" />
    <glyph glyph-name="guilsinglleft" unicode="&#x2039;" horiz-adv-x="280" 
d="M260 348l-159 -111l159 -111v-98l-235 169v80l235 169v-98z" />
    <glyph glyph-name="guilsinglright" unicode="&#x203a;" horiz-adv-x="280" 
d="M255 277v-80l-235 -169v98l159 111l-159 111v98z" />
    <glyph glyph-name="fraction" unicode="&#x2044;" horiz-adv-x="470" 
d="M84 0h-90l387 705h90z" />
    <glyph glyph-name="zero.superior" unicode="&#x2070;" horiz-adv-x="419" 
d="M210 710q49 0 84.5 -20.5t52.5 -54.5t24.5 -68.5t7.5 -71.5t-7.5 -71.5t-24.5 -68.5t-52.5 -54.5t-84.5 -20.5t-84.5 20.5t-53 54.5t-25 68.5t-7.5 71.5t7.5 71.5t25 68.5t53 54.5t84.5 20.5zM209 630q-36 0 -55.5 -36t-19.5 -99t19.5 -99t55.5 -36q37 0 56.5 36t19.5 99
t-19.5 99t-56.5 36z" />
    <glyph glyph-name="four.superior" unicode="&#x2074;" horiz-adv-x="375" 
d="M302 446h58v-78h-58v-83h-87v83h-183v65l162 272h108v-259zM118 446h96v154z" />
    <glyph glyph-name="five.superior" unicode="&#x2075;" horiz-adv-x="367" 
d="M308 627h-175l-11 -81q35 19 76 19q61 0 100.5 -38.5t39.5 -99.5q0 -63 -42.5 -105t-114.5 -42q-63 0 -103.5 34.5t-49.5 85.5l85 21q2 -26 21 -44.5t47 -18.5q33 0 50.5 20t17.5 50q0 28 -17.5 47.5t-47.5 19.5q-40 0 -66 -31l-79 32l29 209h240v-78z" />
    <glyph glyph-name="six.superior" unicode="&#x2076;" horiz-adv-x="380" 
d="M264 705l-85 -151q31 5 61 2q50 -9 80.5 -45.5t30.5 -85.5q0 -58 -42.5 -101.5t-113.5 -43.5q-70 0 -112.5 42t-42.5 99q0 53 41 126l87 158h96zM195 491q-32 0 -51.5 -20t-19.5 -49t19.5 -49.5t51.5 -20.5t51.5 21t19.5 50t-20 48.5t-51 19.5z" />
    <glyph glyph-name="seven.superior" unicode="&#x2077;" horiz-adv-x="303" 
d="M298 649l-138 -364h-92l131 342h-194v78h293v-56z" />
    <glyph glyph-name="eight.superior" unicode="&#x2078;" horiz-adv-x="400" 
d="M200 710q69 0 106.5 -33t37.5 -77q0 -57 -56 -91q30 -14 51.5 -41t21.5 -63q0 -50 -39.5 -87.5t-121.5 -37.5q-83 0 -122.5 37.5t-39.5 87.5q0 36 22 63t52 41q-56 33 -56 91q0 44 37 77t107 33zM200 639q-27 0 -45 -14t-18 -35t18 -35.5t45 -14.5t45 14.5t18 35.5
t-18 35t-45 14zM200 472q-34 0 -55 -16t-21 -42q0 -27 20.5 -44.5t55.5 -17.5t55.5 17.5t20.5 44.5q0 26 -21 42t-55 16z" />
    <glyph glyph-name="nine.superior" unicode="&#x2079;" horiz-adv-x="385" 
d="M189 710q70 0 112.5 -42t42.5 -99q0 -55 -41 -126l-90 -158h-96l86 151q-34 -6 -68 2q-46 10 -74 45.5t-28 81.5q0 58 42.5 101.5t113.5 43.5zM189 638q-33 0 -52 -20.5t-19 -50.5q0 -29 20 -48.5t51 -19.5q32 0 51.5 20t19.5 49t-19.5 49.5t-51.5 20.5z" />
    <glyph glyph-name="zero.inferior" unicode="&#x2080;" horiz-adv-x="419" 
d="M210 425q49 0 84.5 -20.5t52.5 -54.5t24.5 -68.5t7.5 -71.5t-7.5 -71.5t-24.5 -68.5t-52.5 -54.5t-84.5 -20.5t-84.5 20.5t-53 54.5t-25 68.5t-7.5 71.5t7.5 71.5t25 68.5t53 54.5t84.5 20.5zM209 345q-36 0 -55.5 -36t-19.5 -99t19.5 -99t55.5 -36q37 0 56.5 36t19.5 99
t-19.5 99t-56.5 36z" />
    <glyph glyph-name="one.inferior" unicode="&#x2081;" horiz-adv-x="275" 
d="M204 0h-91v314l-81 -52v94l100 64h72v-420z" />
    <glyph glyph-name="two.inferior" unicode="&#x2082;" horiz-adv-x="356" 
d="M180 425q73 0 109.5 -38t36.5 -86q0 -34 -17 -61t-42 -44.5t-51 -33t-46 -37t-24 -47.5h183v-78h-297q-6 72 24.5 122t99.5 96q6 4 18.5 11.5l17.5 10.5t14 9.5t12.5 11t8 10.5t6 12.5t1.5 14.5q0 23 -15 36t-40 13q-35 0 -49.5 -24t-2.5 -54l-87 -15q-22 72 26 126
q42 45 114 45z" />
    <glyph glyph-name="three.inferior" unicode="&#x2083;" horiz-adv-x="368" 
d="M322 366l-94 -104q47 -12 76.5 -45.5t29.5 -81.5q0 -59 -44 -99.5t-111 -40.5q-62 0 -103 34.5t-51 85.5l84 22q3 -27 21.5 -45.5t47.5 -18.5q31 0 49 18.5t18 45.5t-17.5 45t-48.5 18q-16 0 -32 -7l-26 56l86 93h-163v78h278v-54z" />
    <glyph glyph-name="four.inferior" unicode="&#x2084;" horiz-adv-x="375" 
d="M302 161h58v-78h-58v-83h-87v83h-183v65l162 272h108v-259zM118 161h96v154z" />
    <glyph glyph-name="five.inferior" unicode="&#x2085;" horiz-adv-x="367" 
d="M308 342h-175l-11 -81q35 19 76 19q61 0 100.5 -38.5t39.5 -99.5q0 -63 -42.5 -105t-114.5 -42q-63 0 -103.5 34.5t-49.5 85.5l85 21q2 -26 21 -44.5t47 -18.5q33 0 50.5 20t17.5 50q0 28 -17.5 47.5t-47.5 19.5q-40 0 -66 -31l-79 32l29 209h240v-78z" />
    <glyph glyph-name="six.inferior" unicode="&#x2086;" horiz-adv-x="380" 
d="M264 420l-85 -151q31 5 61 2q50 -9 80.5 -45.5t30.5 -85.5q0 -58 -42.5 -101.5t-113.5 -43.5q-70 0 -112.5 42t-42.5 99q0 53 41 126l87 158h96zM195 206q-32 0 -51.5 -20t-19.5 -49t19.5 -49.5t51.5 -20.5t51.5 21t19.5 50q0 28 -20 48t-51 20z" />
    <glyph glyph-name="seven.inferior" unicode="&#x2087;" horiz-adv-x="303" 
d="M298 364l-138 -364h-92l131 342h-194v78h293v-56z" />
    <glyph glyph-name="eight.inferior" unicode="&#x2088;" horiz-adv-x="400" 
d="M200 425q69 0 106.5 -33.5t37.5 -76.5q0 -57 -56 -91q30 -14 51.5 -41t21.5 -63q0 -50 -39.5 -87.5t-121.5 -37.5q-83 0 -122.5 37.5t-39.5 87.5q0 36 22 63t52 41q-56 33 -56 91q0 44 37 77t107 33zM200 354q-27 0 -45 -14t-18 -35t18 -35.5t45 -14.5t45 14.5t18 35.5
t-18 35t-45 14zM200 187q-34 0 -55 -16t-21 -42q0 -27 20.5 -44.5t55.5 -17.5t55.5 17.5t20.5 44.5q0 26 -21 42t-55 16z" />
    <glyph glyph-name="nine.inferior" unicode="&#x2089;" horiz-adv-x="385" 
d="M189 425q70 0 112.5 -42t42.5 -99q0 -55 -41 -126l-90 -158h-96l86 151q-34 -6 -68 2q-46 10 -74 45.5t-28 81.5q0 58 42.5 101.5t113.5 43.5zM189 353q-33 0 -52 -20.5t-19 -50.5q0 -28 20 -48t51 -20q32 0 51.5 20t19.5 49t-19.5 49.5t-51.5 20.5z" />
    <glyph glyph-name="Euro" unicode="&#x20ac;" horiz-adv-x="696" 
d="M387 91q121 0 168 129l103 -46q-37 -94 -107.5 -141.5t-163.5 -47.5q-115 0 -196 71t-109 186h-82v75h70q-1 12 -1 35t1 35h-70v75h82q28 115 109 186.5t196 71.5q93 0 163.5 -47.5t107.5 -141.5l-103 -46q-47 129 -168 129q-68 0 -115 -40t-68 -112h226v-75h-239
q-1 -11 -1 -35t1 -35h199v-75h-186q21 -72 68 -111.5t115 -39.5z" />
    <glyph glyph-name="uni2116" unicode="&#x2116;" horiz-adv-x="1077" 
d="M597 0h-94l-304 466v-466h-119v705h93l305 -468v468h119v-705zM848 618q87 0 141 -68.5t54 -170.5q0 -101 -54 -169.5t-141 -68.5t-141 68.5t-54 169.5q0 102 54 170.5t141 68.5zM848 522q-43 0 -69 -39.5t-26 -103.5q0 -63 26 -102t69 -39q44 0 70 39t26 102
q0 64 -26 103.5t-70 39.5zM1036 0h-374v83h374v-83z" />
    <glyph glyph-name="uni2117" unicode="&#x2117;" horiz-adv-x="811" 
d="M405 719q152 0 259.5 -107.5t107.5 -259.5t-107.5 -259.5t-259.5 -107.5t-259.5 107.5t-107.5 259.5t107.5 259.5t259.5 107.5zM405 655q-125 0 -214 -88.5t-89 -214.5t89 -214.5t214 -88.5q126 0 214.5 88.5t88.5 214.5t-88.5 214.5t-214.5 88.5zM275 528h183
q56 0 86 -29.5t30 -72.5t-30 -73t-86 -30h-117v-150h-66v355zM341 472v-91h113q53 0 53 45q0 21 -14 33.5t-39 12.5h-113z" />
    <glyph glyph-name="trademark" unicode="&#x2122;" horiz-adv-x="853" 
d="M351 650h-104v-300h-64v300h-103v55h271v-55zM773 350h-66v224l-109 -224h-26l-109 224v-224h-65v355h63l124 -251l126 251h62v-355z" />
    <glyph glyph-name="Oneroman" unicode="&#x2160;" horiz-adv-x="439" 
d="M359 670h-80v-635h80v-35h-279v35h80v635h-80v35h279v-35z" />
    <glyph glyph-name="Tworoman" unicode="&#x2161;" horiz-adv-x="645" 
d="M565 670h-80v-635h80v-35h-485v35h80v635h-80v35h485v-35zM279 670v-635h87v635h-87z" />
    <glyph glyph-name="Threeroman" unicode="&#x2162;" horiz-adv-x="851" 
d="M771 670h-80v-635h80v-35h-691v35h80v635h-80v35h691v-35zM279 670v-635h87v635h-87zM485 670v-635h87v635h-87z" />
    <glyph glyph-name="Fourroman" unicode="&#x2163;" horiz-adv-x="1173" 
d="M1093 670h-73l-264 -635h337v-35h-1013v35h80v635h-80v35h1013v-35zM279 670v-635h348l-263 635h-85zM492 670l200 -495l200 495h-400z" />
    <glyph glyph-name="Fiveroman" unicode="&#x2164;" horiz-adv-x="962" 
d="M881 670h-72l-264 -635h336v-35h-801v35h336l-263 635h-73v35h801v-35zM281 670l200 -495l200 495h-400z" />
    <glyph glyph-name="Sixroman" unicode="&#x2165;" horiz-adv-x="1130" 
d="M1050 670h-81v-635h81v-35h-1013v35h336l-263 635h-73v35h1013v-35zM238 670l200 -495l200 495h-400zM766 670l-264 -635h348v635h-84z" />
    <glyph glyph-name="Sevenroman" unicode="&#x2166;" horiz-adv-x="1335" 
d="M1255 670h-80v-635h80v-35h-1218v35h336l-263 635h-73v35h1218v-35zM238 670l200 -495l200 495h-400zM766 670l-264 -635h348v635h-84zM969 670v-635h87v635h-87z" />
    <glyph glyph-name="Eightroman" unicode="&#x2167;" horiz-adv-x="1541" 
d="M1461 670h-80v-635h80v-35h-1424v35h336l-263 635h-73v35h1424v-35zM238 670l200 -495l200 495h-400zM766 670l-264 -635h348v635h-84zM969 670v-635h87v635h-87zM1175 670v-635h87v635h-87z" />
    <glyph glyph-name="Nineroman" unicode="&#x2168;" horiz-adv-x="1120" 
d="M1025 670h-71l-229 -304l249 -331h66v-35h-960v35h80v635h-80v35h945v-35zM279 670v-635h54l249 331l-229 304h-74zM497 670l157 -206l156 206h-313zM477 35h354l-177 233z" />
    <glyph glyph-name="Tenroman" unicode="&#x2169;" horiz-adv-x="933" 
d="M837 670h-70l-229 -304l249 -331h66v-35h-773v35h66l249 331l-229 304h-71v35h742v-35zM310 670l156 -206l157 206h-313zM289 35h354l-177 233z" />
    <glyph glyph-name="Elevenroman" unicode="&#x216a;" horiz-adv-x="1077" 
d="M997 670h-80v-635h80v-35h-960v35h66l249 331l-229 304h-71v35h945v-35zM267 670l156 -206l157 206h-313zM724 670l-229 -304l249 -331h54v635h-74zM246 35h354l-177 233z" />
    <glyph glyph-name="Twelveroman" unicode="&#x216b;" horiz-adv-x="1283" 
d="M1203 670h-80v-635h80v-35h-1166v35h66l249 331l-229 304h-71v35h1151v-35zM267 670l156 -206l157 206h-313zM724 670l-229 -304l249 -331h54v635h-74zM917 670v-635h87v635h-87zM246 35h354l-177 233z" />
    <glyph glyph-name="uni216C" unicode="&#x216c;" horiz-adv-x="783" 
d="M696 670h-417v-569h343v-66h81v-35h-623v35h80v635h-80v35h616v-35z" />
    <glyph glyph-name="uni216D" unicode="&#x216d;" horiz-adv-x="994" 
d="M914 670h-220q105 -63 143 -188l-108 -30q-25 78 -84 120t-140 42q-108 0 -177 -73.5t-69 -188.5t69 -188t177 -73q81 0 140 42t84 120l108 -30q-37 -125 -144 -188h221v-35h-834v35h234q-82 48 -128.5 132.5t-46.5 184.5q0 101 46.5 185.5t128.5 132.5h-234v35h834v-35z
" />
    <glyph glyph-name="uni216E" unicode="&#x216e;" horiz-adv-x="908" 
d="M828 670h-244q92 -42 143.5 -128.5t51.5 -188.5t-52 -189t-144 -129h245v-35h-748v35h80v635h-80v35h748v-35zM279 604v-503h136q107 0 175 68t68 184t-68 183.5t-175 67.5h-136z" />
    <glyph glyph-name="uni216F" unicode="&#x216f;" horiz-adv-x="1074" 
d="M993 670h-80v-635h80v-35h-913v35h80v635h-80v35h913v-35zM280 670l257 -492l257 492h-514zM279 35h212l-212 408v-408zM583 35h212v408z" />
    <glyph glyph-name="oneroman" unicode="&#x2170;" horiz-adv-x="416" 
d="M345 418h-80v-383h80v-35h-275v35h80v383h-80v36h275v-36z" />
    <glyph glyph-name="tworoman" unicode="&#x2171;" horiz-adv-x="617" 
d="M547 418h-80v-383h80v-35h-477v35h80v383h-80v36h477v-36zM265 418v-383h87v383h-87z" />
    <glyph glyph-name="threeroman" unicode="&#x2172;" horiz-adv-x="819" 
d="M749 418h-80v-383h80v-35h-679v35h80v383h-80v36h679v-36zM265 418v-383h87v383h-87zM467 418v-383h87v383h-87z" />
    <glyph glyph-name="fourroman" unicode="&#x2173;" horiz-adv-x="944" 
d="M874 418h-65l-181 -383h246v-35h-804v35h80v383h-80v36h804v-36zM265 418v-383h244l-182 383h-62zM450 418l118 -266l118 266h-236z" />
    <glyph glyph-name="fiveroman" unicode="&#x2174;" horiz-adv-x="751" 
d="M681 418h-65l-181 -383h246v-35h-611v35h246l-182 383h-64v36h611v-36zM257 418l118 -266l118 266h-236z" />
    <glyph glyph-name="sixroman" unicode="&#x2175;" horiz-adv-x="908" 
d="M838 418h-80v-383h80v-35h-804v35h246l-181 383h-65v36h804v-36zM222 418l118 -266l118 266h-236zM581 418l-182 -383h244v383h-62z" />
    <glyph glyph-name="sevenroman" unicode="&#x2176;" horiz-adv-x="1110" 
d="M1040 418h-80v-383h80v-35h-1006v35h246l-181 383h-65v36h1006v-36zM222 418l118 -266l118 266h-236zM581 418l-182 -383h244v383h-62zM758 418v-383h87v383h-87z" />
    <glyph glyph-name="eightroman" unicode="&#x2177;" horiz-adv-x="1311" 
d="M1242 418h-81v-383h81v-35h-1208v35h246l-181 383h-65v36h1208v-36zM222 418l118 -266l118 266h-236zM581 418l-182 -383h244v383h-62zM758 418v-383h87v383h-87zM959 418v-383h87v383h-87z" />
    <glyph glyph-name="nineroman" unicode="&#x2178;" horiz-adv-x="885" 
d="M815 418h-76l-141 -186l149 -197h68v-35h-745v35h80v383h-80v36h745v-36zM265 418v-383h54l150 196l-142 187h-62zM448 418l86 -111l85 111h-171zM441 35h184l-92 122z" />
    <glyph glyph-name="tenroman" unicode="&#x2179;" horiz-adv-x="702" 
d="M632 418h-75l-142 -187l150 -196h67v-35h-562v35h68l149 197l-141 186h-76v36h562v-36zM266 418l85 -111l86 111h-171zM259 35h184l-92 122z" />
    <glyph glyph-name="elevenroman" unicode="&#x217a;" horiz-adv-x="848" 
d="M779 418h-81v-383h81v-35h-745v35h68l149 197l-141 186h-76v36h745v-36zM229 418l85 -111l86 111h-171zM521 418l-142 -187l150 -196h54v383h-62zM223 35h184l-92 122z" />
    <glyph glyph-name="twelveroman" unicode="&#x217b;" horiz-adv-x="1051" 
d="M981 418h-80v-383h80v-35h-947v35h68l149 197l-141 186h-76v36h947v-36zM229 418l85 -111l86 111h-171zM521 418l-142 -187l150 -196h54v383h-62zM698 418v-383h87v383h-87zM223 35h184l-92 122z" />
    <glyph glyph-name="uni217C" unicode="&#x217c;" horiz-adv-x="586" 
d="M535 418h-290v-332h210v-51h80v-35h-485v35h80v383h-80v36h485v-36z" />
    <glyph glyph-name="uni217D" unicode="&#x217d;" horiz-adv-x="712" 
d="M642 418h-133q54 -42 75 -113l-106 -24q-12 42 -43 67t-76 25q-54 0 -92.5 -39.5t-38.5 -106.5q0 -68 38.5 -107t92.5 -39q45 0 76 24.5t43 66.5l106 -23q-21 -70 -75 -114h133v-35h-572v35h137q-92 69 -92 192t93 191h-138v36h572v-36z" />
    <glyph glyph-name="uni217E" unicode="&#x217e;" horiz-adv-x="687" 
d="M617 418h-148q50 -28 75.5 -79t25.5 -112t-26 -112t-76 -80h149v-35h-547v35h80v383h-80v36h547v-36zM265 374v-294h58q65 0 99.5 37.5t34.5 109.5q0 147 -134 147h-58z" />
    <glyph glyph-name="uni217F" unicode="&#x217f;" horiz-adv-x="837" 
d="M767 418h-80v-383h80v-35h-697v35h80v383h-80v36h697v-36zM296 418l123 -267l122 267h-245zM258 35h121l-121 268v-268zM459 35h121v268z" />
    <glyph glyph-name="arrowleft" unicode="&#x2190;" horiz-adv-x="832" 
d="M230 295h522v-96h-522l196 -199h-131l-215 216v62l215 216h131z" />
    <glyph glyph-name="arrowup" unicode="&#x2191;" horiz-adv-x="654" 
d="M375 478v-522h-96v522l-199 -196v131l216 215h62l216 -215v-131z" />
    <glyph glyph-name="arrowright" unicode="&#x2192;" horiz-adv-x="832" 
d="M537 494l215 -216v-62l-215 -216h-131l196 199h-522v96h522l-196 199h131z" />
    <glyph glyph-name="arrowdown" unicode="&#x2193;" horiz-adv-x="654" 
d="M574 259l-216 -215h-62l-216 215v131l199 -196v522h96v-522l199 196v-131z" />
    <glyph glyph-name="uni2196" unicode="&#x2196;" horiz-adv-x="692" 
d="M173 368v-280l-93 93v305l44 44h304l93 -93l-280 -1l370 -370l-68 -67z" />
    <glyph glyph-name="uni2197" unicode="&#x2197;" horiz-adv-x="692" 
d="M81 66l370 370l-280 1l93 93h304l44 -44v-305l-93 -93v280l-370 -369z" />
    <glyph glyph-name="arrowdownright" unicode="&#x2198;" horiz-adv-x="692" 
d="M519 162v280l93 -93v-305l-44 -44h-304l-93 93l280 1l-370 370l68 67z" />
    <glyph glyph-name="arrowdownleft" unicode="&#x2199;" horiz-adv-x="692" 
d="M611 464l-370 -370l280 -1l-93 -93h-304l-44 44v305l93 93v-280l370 369z" />
    <glyph glyph-name="partialdiff" unicode="&#x2202;" horiz-adv-x="552" 
d="M93 705h140q126 -86 207.5 -212.5t81.5 -258.5q0 -106 -67.5 -177.5t-178.5 -71.5q-113 0 -179.5 71.5t-66.5 169.5q0 94 65.5 160t169.5 66q56 0 97 -29q-40 86 -113 159t-156 123zM275 359q-59 0 -92.5 -40.5t-33.5 -96.5t34 -96t93 -40t93 40t34 96t-34.5 96.5
t-93.5 40.5z" />
    <glyph glyph-name="product" unicode="&#x220f;" horiz-adv-x="701" 
d="M621 -210h-119v814h-303v-814h-119v915h541v-915z" />
    <glyph glyph-name="summation" unicode="&#x2211;" horiz-adv-x="705" 
d="M625 501h-114v103h-283l242 -305v-104l-242 -305h283v103h114v-204h-545v94l291 364l-291 364v94h545v-204z" />
    <glyph glyph-name="minus" unicode="&#x2212;" horiz-adv-x="678" 
d="M598 311h-518v96h518v-96z" />
    <glyph glyph-name="radical" unicode="&#x221a;" horiz-adv-x="749" 
d="M724 609h-139l-278 -609h-91l-206 454h116l136 -295l249 546h213v-96z" />
    <glyph glyph-name="infinity" unicode="&#x221e;" horiz-adv-x="729" 
d="M493 540q60 0 108 -44t48 -137t-48 -137t-108 -44q-83 0 -129 70q-20 -31 -54 -50.5t-75 -19.5q-59 0 -107 44t-48 137t48 137t107 44q41 0 75 -19.5t54 -50.5q46 70 129 70zM240 446q-32 0 -57 -22.5t-25 -64.5t25 -64.5t57 -22.5t57 22.5t25 64.5t-25 64.5t-57 22.5z
M490 446q-33 0 -57.5 -22t-24.5 -65t24.5 -65t57.5 -22q32 0 57 22.5t25 64.5t-25 64.5t-57 22.5z" />
    <glyph glyph-name="integral" unicode="&#x222b;" horiz-adv-x="407" 
d="M387 691l-35 -93l-32 11q-42 15 -69 -4.5t-27 -58.5v-619q0 -103 -71.5 -146t-166.5 -8l-39 15l35 93l32 -12q42 -15 69 4.5t27 59.5v619q0 103 71.5 145.5t166.5 7.5z" />
    <glyph glyph-name="approxequal" unicode="&#x2248;" horiz-adv-x="709" 
d="M226 572q33 0 63 -13t52.5 -31t43 -36.5t44.5 -31.5t48 -13q32 0 50 19t18 43.5t-6 48.5h86q17 -91 -26 -145.5t-119 -54.5q-43 0 -80.5 19.5t-60 43t-52.5 43t-59 19.5q-44 0 -59 -34t-3 -77h-81q-18 94 25.5 147t115.5 53zM226 339q33 0 63 -13t52.5 -31.5t43 -37
t44.5 -31.5t48 -13q32 0 50 19t18 43.5t-6 48.5h86q17 -91 -26 -145.5t-119 -54.5q-43 0 -80.5 19.5t-60 43t-52.5 43t-59 19.5q-44 0 -59 -34t-3 -76h-81q-18 94 25.5 147t115.5 53z" />
    <glyph glyph-name="notequal" unicode="&#x2260;" horiz-adv-x="683" 
d="M417 432l-57 -146h243v-97h-282l-47 -120h-92l48 120h-150v97h188l58 146h-246v97h284l48 120h91l-47 -120h147v-97h-186z" />
    <glyph glyph-name="lessequal" unicode="&#x2264;" horiz-adv-x="661" 
d="M579 508l-343 -127l343 -127v-101l-480 177v102l480 177v-101zM581 91v-91h-484v91h484z" />
    <glyph glyph-name="greaterequal" unicode="&#x2265;" horiz-adv-x="644" 
d="M562 432v-102l-480 -177v101l343 127l-343 127v101zM564 0h-484v91h484v-91z" />
    <glyph glyph-name="lozenge" unicode="&#x25ca;" horiz-adv-x="549" 
d="M539 352l-222 -352h-86l-221 352l221 353h86zM130 352l145 -234l144 234l-144 235z" />
    <glyph glyph-name="uni263F" unicode="&#x263f;" horiz-adv-x="767" 
 />
    <glyph glyph-name="venus" unicode="&#x2640;" horiz-adv-x="722" 
 />
    <glyph glyph-name="earth" unicode="&#x2641;" horiz-adv-x="826" 
 />
    <glyph glyph-name="mars" unicode="&#x2642;" horiz-adv-x="1135" 
 />
    <glyph glyph-name="uni2643" unicode="&#x2643;" horiz-adv-x="776" 
 />
    <glyph glyph-name="uni2644" unicode="&#x2644;" horiz-adv-x="974" 
 />
    <glyph glyph-name="uni2645" unicode="&#x2645;" horiz-adv-x="884" 
 />
    <glyph glyph-name="uni2646" unicode="&#x2646;" horiz-adv-x="835" 
 />
    <glyph glyph-name="uni2647" unicode="&#x2647;" horiz-adv-x="732" 
 />
    <glyph glyph-name="uni2648" unicode="&#x2648;" horiz-adv-x="732" 
 />
    <glyph glyph-name="a.alt" horiz-adv-x="551" 
d="M264 469q105 0 164 -52.5t59 -148.5v-268h-86l-20 72q-70 -87 -188 -87q-73 0 -118 36t-45 88q0 60 44 95.5t124 55.5l175 38q0 39 -25.5 64t-80.5 25q-46 0 -81 -26t-43 -72l-99 28q18 73 79 112.5t141 39.5zM374 226l-154 -33q-75 -15 -75 -65q0 -25 21 -40t52 -15
q65 0 110.5 39.5t45.5 90.5v23z" />
    <glyph glyph-name="aacute.alt" horiz-adv-x="551" 
d="M303 519h-81l65 174h124zM264 469q105 0 164 -52.5t59 -148.5v-268h-86l-20 72q-70 -87 -188 -87q-73 0 -118 36t-45 88q0 60 44 95.5t124 55.5l175 38q0 39 -25.5 64t-80.5 25q-46 0 -81 -26t-43 -72l-99 28q18 73 79 112.5t141 39.5zM374 226l-154 -33q-75 -15 -75 -65
q0 -25 21 -40t52 -15q65 0 110.5 39.5t45.5 90.5v23z" />
    <glyph glyph-name="abreve.alt" horiz-adv-x="551" 
d="M346 691h91q2 -70 -45 -121t-126 -51t-126 51t-45 121h91q-3 -36 17 -64.5t63 -28.5t63 28.5t17 64.5zM264 469q105 0 164 -52.5t59 -148.5v-268h-86l-20 72q-70 -87 -188 -87q-73 0 -118 36t-45 88q0 60 44 95.5t124 55.5l175 38q0 39 -25.5 64t-80.5 25q-46 0 -81 -26
t-43 -72l-99 28q18 73 79 112.5t141 39.5zM374 226l-154 -33q-75 -15 -75 -65q0 -25 21 -40t52 -15q65 0 110.5 39.5t45.5 90.5v23z" />
    <glyph glyph-name="acircumflex.alt" horiz-adv-x="551" 
d="M348 519l-79 108l-78 -108h-82l99 174h123l99 -174h-82zM264 469q105 0 164 -52.5t59 -148.5v-268h-86l-20 72q-70 -87 -188 -87q-73 0 -118 36t-45 88q0 60 44 95.5t124 55.5l175 38q0 39 -25.5 64t-80.5 25q-46 0 -81 -26t-43 -72l-99 28q18 73 79 112.5t141 39.5z
M374 226l-154 -33q-75 -15 -75 -65q0 -25 21 -40t52 -15q65 0 110.5 39.5t45.5 90.5v23z" />
    <glyph glyph-name="adieresis.alt" horiz-adv-x="551" 
d="M169 668q28 0 48 -20t20 -48t-20 -47.5t-48 -19.5t-48 19.5t-20 47.5t20 48t48 20zM375 668q28 0 48 -20t20 -48t-20 -47.5t-48 -19.5t-48 19.5t-20 47.5t20 48t48 20zM264 469q105 0 164 -52.5t59 -148.5v-268h-86l-20 72q-70 -87 -188 -87q-73 0 -118 36t-45 88
q0 60 44 95.5t124 55.5l175 38q0 39 -25.5 64t-80.5 25q-46 0 -81 -26t-43 -72l-99 28q18 73 79 112.5t141 39.5zM374 226l-154 -33q-75 -15 -75 -65q0 -25 21 -40t52 -15q65 0 110.5 39.5t45.5 90.5v23z" />
    <glyph glyph-name="agrave.alt" horiz-adv-x="551" 
d="M257 693l65 -174h-81l-108 174h124zM264 469q105 0 164 -52.5t59 -148.5v-268h-86l-20 72q-70 -87 -188 -87q-73 0 -118 36t-45 88q0 60 44 95.5t124 55.5l175 38q0 39 -25.5 64t-80.5 25q-46 0 -81 -26t-43 -72l-99 28q18 73 79 112.5t141 39.5zM374 226l-154 -33
q-75 -15 -75 -65q0 -25 21 -40t52 -15q65 0 110.5 39.5t45.5 90.5v23z" />
    <glyph glyph-name="amacron.alt" horiz-adv-x="551" 
d="M453 556h-360v83h360v-83zM264 469q105 0 164 -52.5t59 -148.5v-268h-86l-20 72q-70 -87 -188 -87q-73 0 -118 36t-45 88q0 60 44 95.5t124 55.5l175 38q0 39 -25.5 64t-80.5 25q-46 0 -81 -26t-43 -72l-99 28q18 73 79 112.5t141 39.5zM374 226l-154 -33
q-75 -15 -75 -65q0 -25 21 -40t52 -15q65 0 110.5 39.5t45.5 90.5v23z" />
    <glyph glyph-name="aring.alt" horiz-adv-x="551" 
d="M269 770q55 0 93 -37.5t38 -92.5t-38 -93t-93 -38t-93 37.5t-38 93.5q0 55 38 92.5t93 37.5zM269 698q-25 0 -41.5 -17t-16.5 -41q0 -25 16.5 -42t41.5 -17t41.5 17t16.5 42q0 24 -16.5 41t-41.5 17zM264 469q105 0 164 -52.5t59 -148.5v-268h-86l-20 72
q-70 -87 -188 -87q-73 0 -118 36t-45 88q0 60 44 95.5t124 55.5l175 38q0 39 -25.5 64t-80.5 25q-46 0 -81 -26t-43 -72l-99 28q18 73 79 112.5t141 39.5zM374 226l-154 -33q-75 -15 -75 -65q0 -25 21 -40t52 -15q65 0 110.5 39.5t45.5 90.5v23z" />
    <glyph glyph-name="atilde.alt" horiz-adv-x="551" 
d="M184 684q30 0 57 -14t43 -30t37 -30t40 -14q52 0 43 72h65q10 -67 -21 -107.5t-85 -40.5q-39 0 -71 22t-57 44t-47 22q-28 0 -38.5 -21.5t-4.5 -49.5h-66q-9 67 21.5 107t83.5 40zM264 469q105 0 164 -52.5t59 -148.5v-268h-86l-20 72q-70 -87 -188 -87q-73 0 -118 36
t-45 88q0 60 44 95.5t124 55.5l175 38q0 39 -25.5 64t-80.5 25q-46 0 -81 -26t-43 -72l-99 28q18 73 79 112.5t141 39.5zM374 226l-154 -33q-75 -15 -75 -65q0 -25 21 -40t52 -15q65 0 110.5 39.5t45.5 90.5v23z" />
    <glyph glyph-name="aogonek.alt" horiz-adv-x="531" 
d="M495 -138l28 -65q-43 -30 -100 -30q-51 0 -86 27t-35 73q0 78 97 140l-18 65q-70 -87 -188 -87q-73 0 -118 36t-45 88q0 60 44 95.5t124 55.5l175 38q0 39 -25.5 64t-80.5 25q-46 0 -81 -26t-43 -72l-99 28q18 73 79 112.5t141 39.5q105 0 164 -52.5t59 -148.5v-268h2
q-91 -55 -91 -108q0 -21 13.5 -33.5t35.5 -12.5q20 0 48 16zM374 226l-154 -33q-75 -15 -75 -65q0 -25 21 -40t52 -15q65 0 110.5 39.5t45.5 90.5v23z" />
    <glyph glyph-name="i.loclTRK" horiz-adv-x="273" 
d="M138 657q28 0 48 -19.5t20 -48.5t-19.5 -48.5t-48.5 -19.5t-48.5 19.5t-19.5 48.5t19.5 48.5t48.5 19.5zM196 0h-114v454h114v-454z" />
    <glyph glyph-name="germandbls.calt" horiz-adv-x="709" 
d="M353 720q165 0 256 -144l-149 -162q99 -9 155 -68.5t56 -138.5q0 -89 -64 -155.5t-182 -66.5q-97 0 -171 42l42 97q54 -34 120 -34q64 0 100 34.5t36 84.5q0 54 -38 84t-99 30q-32 0 -62 -8l-39 81l151 167q-40 52 -115 52q-66 0 -108.5 -43t-42.5 -115v-457h-119v446
q0 122 72 198t201 76z" />
    <glyph glyph-name="uni0066_i.loclTRK.liga" horiz-adv-x="652" 
d="M585 454v-454h-114v358h-235v-358h-114v358h-112v96h112v96q0 104 73.5 147.5t164.5 6.5l39 -16l-35 -92l-32 12q-41 15 -68.5 -3.5t-27.5 -56.5v-94h349z" />
    <glyph glyph-name="uni00660066_i.loclTRK.liga" horiz-adv-x="992" 
d="M925 454v-454h-114v358h-235v-358h-114v358h-226v-358h-114v358h-112v96h112v96q0 104 73.5 147.5t164.5 6.5l39 -16l-35 -92l-32 12q-41 15 -68.5 -3.5t-27.5 -56.5v-94h226v96q0 104 73.5 147.5t164.5 6.5l39 -16l-35 -92l-32 12q-41 15 -68.5 -3.5t-27.5 -56.5v-94
h349z" />
    <glyph glyph-name="iacute_j.loclNLD" horiz-adv-x="513" 
d="M171 519h-81l65 174h124zM427 519h-81l65 174h124zM188 0h-114v454h114v-454zM443 454v-527q0 -103 -71.5 -146t-166.5 -8l-39 15l35 93l32 -12q42 -15 69 4.5t27 59.5v521h114z" />
    <glyph glyph-name="zero.tf" horiz-adv-x="583" 
d="M292 720q76 0 131 -34t84 -90.5t42 -117t13 -126.5q0 -52 -7.5 -100.5t-27 -98t-49 -86t-77.5 -59.5t-109 -23t-109.5 23t-78 59.5t-49 86t-27 98t-7.5 100.5q0 66 13 126.5t42 117t84.5 90.5t131.5 34zM292 619q-40 0 -70 -22.5t-47 -61.5t-25 -84.5t-8 -98.5
q0 -52 8 -97.5t25 -84.5t47 -61.5t70 -22.5q53 0 87.5 40.5t48 97.5t13.5 128q0 72 -13.5 129t-48 97.5t-87.5 40.5z" />
    <glyph glyph-name="one.tf" horiz-adv-x="583" 
d="M498 101v-101h-413v101h133v468l-125 -83v123l144 96h100v-604h161z" />
    <glyph glyph-name="two.tf" horiz-adv-x="583" 
d="M295 720q115 0 175 -62t60 -143q0 -38 -12 -69.5t-41 -62.5t-47.5 -46.5t-62.5 -49.5q-6 -4 -25.5 -18.5t-26 -19.5t-23.5 -18t-24.5 -20t-20 -19.5t-18.5 -21.5t-13.5 -21t-11 -24t-4.5 -24h335v-101h-482q-5 50 5 93.5t30.5 77.5t51 65t65 58.5t72.5 56.5l4.5 3t4 3
t4.5 3q70 52 95.5 82.5t25.5 72.5q0 44 -31.5 74t-85.5 30q-71 0 -101.5 -51t-8.5 -109l-118 -22q-32 117 35.5 200t193.5 83z" />
    <glyph glyph-name="three.tf" horiz-adv-x="583" 
d="M521 623l-178 -187q94 -15 147 -76.5t53 -141.5q0 -41 -15.5 -81t-45.5 -74.5t-81 -56t-114 -21.5q-109 0 -177.5 64t-76.5 153l115 24q2 -62 40 -101t100 -39q63 0 99.5 38.5t36.5 93.5q0 57 -38 94t-101 37q-26 0 -45 -5l-39 80l171 180h-302v101h451v-82z" />
    <glyph glyph-name="four.tf" horiz-adv-x="583" 
d="M474 256h97v-101h-97v-155h-113v155h-332v99l314 451h131v-449zM149 256h211v301z" />
    <glyph glyph-name="five.tf" horiz-adv-x="583" 
d="M503 604h-311l-25 -190q62 48 149 48q104 0 168 -67t64 -166q0 -100 -69.5 -172t-189.5 -72q-108 0 -175 60.5t-79 146.5l113 27q3 -56 41 -94.5t100 -38.5q63 0 101.5 40t38.5 100q0 61 -36.5 100.5t-98.5 39.5q-82 0 -130 -68l-109 44l47 363h401v-101z" />
    <glyph glyph-name="six.tf" horiz-adv-x="583" 
d="M388 705l-140 -264q28 13 67 13q107 0 171 -68t64 -160q0 -96 -68 -168.5t-184 -72.5q-115 0 -184 71t-69 163q0 52 15.5 94.5t47.5 102.5l153 289h127zM299 359q-61 0 -98 -41t-37 -96t36.5 -95.5t97.5 -40.5q60 0 96.5 40.5t36.5 95.5q0 56 -36 96.5t-96 40.5z" />
    <glyph glyph-name="seven.tf" horiz-adv-x="583" 
d="M538 618l-244 -618h-124l239 604h-249v-85h-114v186h492v-87z" />
    <glyph glyph-name="eight.tf" horiz-adv-x="583" 
d="M292 720q113 0 173.5 -56t60.5 -130q0 -94 -95 -159q122 -61 122 -180q0 -86 -66.5 -148t-194.5 -62q-129 0 -195.5 62t-66.5 148q0 119 122 180q-95 65 -95 159q0 74 61 130t174 56zM292 619q-52 0 -84.5 -27t-32.5 -69q0 -41 32 -71.5t85 -30.5q52 0 84 30.5t32 71.5
q0 42 -32.5 69t-83.5 27zM292 324q-64 0 -103.5 -33t-39.5 -86t38 -86t105 -33q66 0 104 33t38 86t-39 86t-103 33z" />
    <glyph glyph-name="nine.tf" horiz-adv-x="583" 
d="M288 720q114 0 183 -71t69 -163q0 -51 -15.5 -95t-47.5 -102l-156 -289h-128l141 260q-26 -11 -58 -11q-110 0 -175.5 68t-65.5 162q0 96 68 168.5t185 72.5zM288 619q-61 0 -97.5 -40.5t-36.5 -95.5q0 -56 36 -96.5t96 -40.5q61 0 98 41t37 96t-36.5 95.5t-96.5 40.5z
" />
    <glyph glyph-name="xxldash" horiz-adv-x="1714" 
d="M1634 213h-1554v85h1554v-85z" />
    <glyph glyph-name="hyphen.cap" horiz-adv-x="492" 
d="M412 324h-332v93h332v-93z" />
    <glyph glyph-name="endash.cap" horiz-adv-x="615" 
d="M535 324h-455v93h455v-93z" />
    <glyph glyph-name="emdash.cap" horiz-adv-x="1058" 
d="M978 324h-898v93h898v-93z" />
    <glyph glyph-name="xxldash.cap" horiz-adv-x="1714" 
d="M1634 324h-1554v93h1554v-93z" />
    <glyph glyph-name="caron.alt" horiz-adv-x="239" 
d="M127 491h-77l25 214h114z" />
    <glyph glyph-name="acute.cap" horiz-adv-x="297" 
d="M131 747h-81l68 162h129z" />
    <glyph glyph-name="breve.cap" horiz-adv-x="442" 
d="M301 905h91q-2 -66 -48 -113.5t-123 -47.5t-123.5 48t-47.5 113h91q0 -32 20 -57t60 -25q39 0 59.5 25t20.5 57z" />
    <glyph glyph-name="caron.cap" horiz-adv-x="421" 
d="M272 747h-123l-99 162h82l78 -96l79 96h82z" />
    <glyph glyph-name="circumflex.cap" horiz-adv-x="421" 
d="M289 747l-79 96l-78 -96h-82l99 162h123l99 -162h-82z" />
    <glyph glyph-name="dieresis.cap" horiz-adv-x="464" 
d="M123 899q30 0 51.5 -21t21.5 -51q0 -29 -22 -50t-51 -21q-30 0 -51.5 21t-21.5 50q0 30 21.5 51t51.5 21zM342 899q29 0 50.5 -21t21.5 -51q0 -29 -21.5 -50t-50.5 -21q-30 0 -51.5 21t-21.5 50q0 30 21.5 51t51.5 21z" />
    <glyph glyph-name="dotaccent.cap" horiz-adv-x="255" 
d="M127 911q32 0 55 -22.5t23 -53.5q0 -32 -23 -54t-55 -22t-54.5 22t-22.5 54q0 31 22.5 53.5t54.5 22.5z" />
    <glyph glyph-name="grave.cap" horiz-adv-x="297" 
d="M179 909l68 -162h-81l-116 162h129z" />
    <glyph glyph-name="hungarumlaut.cap" horiz-adv-x="467" 
d="M134 747h-84l59 162h117zM325 747h-84l59 162h117z" />
    <glyph glyph-name="macron.cap" horiz-adv-x="460" 
d="M410 776h-360v83h360v-83z" />
    <glyph glyph-name="ring.cap" horiz-adv-x="362" 
d="M181 965q55 0 93 -37.5t38 -92.5t-38 -93t-93 -38t-93 38t-38 93t38 92.5t93 37.5zM181 893q-25 0 -41.5 -17t-16.5 -42q0 -24 16.5 -41t41.5 -17t41.5 17t16.5 41q0 25 -16.5 42t-41.5 17z" />
    <glyph glyph-name="tilde.cap" horiz-adv-x="494" 
d="M157 920q30 0 57 -14t43 -30t37 -30t40 -14q52 0 43 72h65q10 -67 -21 -107.5t-85 -40.5q-39 0 -71 22t-57 44t-47 22q-28 0 -38.5 -21.5t-4.5 -49.5h-66q-9 67 21.5 107t83.5 40z" />
    <glyph glyph-name="g.alt" horiz-adv-x="709" 
 />
    <glyph glyph-name="t.alt" horiz-adv-x="372" 
d="M232 454h130v-96h-130v-358h-114v358h-105v96h105v164h114v-164z" />
    <glyph glyph-name="one.superior" horiz-adv-x="275" 
d="M204 285h-91v314l-81 -52v94l100 64h72v-420z" />
    <glyph glyph-name="two.superior" horiz-adv-x="356" 
d="M180 710q73 0 109.5 -38t36.5 -86q0 -34 -17 -61t-42 -44.5t-51 -33t-46 -37t-24 -47.5h183v-78h-297q-6 72 24.5 122t99.5 96q6 4 18.5 11.5l17.5 10.5t14 9.5t12.5 11t8 10.5t6 12.5t1.5 14.5q0 23 -15 36t-40 13q-35 0 -49.5 -24t-2.5 -54l-87 -15q-22 72 26 126
q42 45 114 45z" />
    <glyph glyph-name="three.superior" horiz-adv-x="368" 
d="M322 651l-94 -104q47 -12 76.5 -45.5t29.5 -81.5q0 -59 -44 -99.5t-111 -40.5q-62 0 -103 34.5t-51 85.5l84 22q3 -27 21.5 -45.5t47.5 -18.5q31 0 49 18.5t18 45.5t-17.5 45t-48.5 18q-16 0 -32 -7l-26 56l86 93h-163v78h278v-54z" />
    <glyph glyph-name="onesuperior.sups" horiz-adv-x="275" 
d="M204 285h-91v314l-81 -52v94l100 64h72v-420z" />
    <glyph glyph-name="twosuperior.sups" horiz-adv-x="356" 
d="M180 710q73 0 109.5 -38t36.5 -86q0 -34 -17 -61t-42 -44.5t-51 -33t-46 -37t-24 -47.5h183v-78h-297q-6 72 24.5 122t99.5 96q6 4 18.5 11.5l17.5 10.5t14 9.5t12.5 11t8 10.5t6 12.5t1.5 14.5q0 23 -15 36t-40 13q-35 0 -49.5 -24t-2.5 -54l-87 -15q-22 72 26 126
q42 45 114 45z" />
    <glyph glyph-name="threesuperior.sups" horiz-adv-x="368" 
d="M322 651l-94 -104q47 -12 76.5 -45.5t29.5 -81.5q0 -59 -44 -99.5t-111 -40.5q-62 0 -103 34.5t-51 85.5l84 22q3 -27 21.5 -45.5t47.5 -18.5q31 0 49 18.5t18 45.5t-17.5 45t-48.5 18q-16 0 -32 -7l-26 56l86 93h-163v78h278v-54z" />
    <glyph glyph-name="arrowdown.cap" horiz-adv-x="654" 
d="M574 259l-216 -215h-62l-216 215v131l199 -196v522h96v-522l199 196v-131z" />
    <glyph glyph-name="arrowdownleft.cap" horiz-adv-x="692" 
d="M611 464l-370 -370l280 -1l-93 -93h-304l-44 44v305l93 93v-280l370 369z" />
    <glyph glyph-name="arrowdownright.cap" horiz-adv-x="692" 
d="M519 162v280l93 -93v-305l-44 -44h-304l-93 93l280 1l-370 370l68 67z" />
    <glyph glyph-name="arrowleft.cap" horiz-adv-x="832" 
d="M230 366h522v-96h-522l196 -199h-131l-215 216v62l215 216h131z" />
    <glyph glyph-name="arrowright.cap" horiz-adv-x="832" 
d="M537 565l215 -216v-62l-215 -216h-131l196 199h-522v96h522l-196 199h131z" />
    <glyph glyph-name="arrowup.cap" horiz-adv-x="654" 
d="M375 511v-522h-96v522l-199 -196v131l216 215h62l216 -215v-131z" />
    <glyph glyph-name="arrowupleft.cap" horiz-adv-x="675" 
d="M156 543v-280l-93 93v305l44 44h304l93 -93l-280 -1l370 -370l-68 -67z" />
    <glyph glyph-name="arrowupright.cap" horiz-adv-x="692" 
d="M81 241l370 370l-280 1l93 93h304l44 -44v-305l-93 -93v280l-370 -369z" />
    <glyph glyph-name="arrowdown.ss01" horiz-adv-x="895" 
d="M80 408q0 152 107.5 260t259.5 108t260 -108t108 -260t-108 -259.5t-260 -107.5t-259.5 107.5t-107.5 259.5zM215 304l203 -202h58l203 202v122l-187 -186v474h-89v-474l-188 186v-122z" />
    <glyph glyph-name="arrowleft.ss01" horiz-adv-x="895" 
d="M447 720q152 0 260 -107.5t108 -259.5t-108 -260t-260 -108t-259.5 108t-107.5 260t107.5 259.5t259.5 107.5zM343 585l-202 -203v-58l202 -203h122l-186 187h474v89h-474l186 188h-122z" />
    <glyph glyph-name="arrowright.ss01" horiz-adv-x="895" 
d="M448 720q152 0 259.5 -107.5t107.5 -259.5t-107.5 -260t-259.5 -108t-260 108t-108 260t108 259.5t260 107.5zM616 397h-474v-89h474l-186 -187h122l202 203v58l-202 203h-122z" />
    <glyph glyph-name="arrowup.ss01" horiz-adv-x="895" 
d="M815 298q0 -152 -107.5 -260t-259.5 -108t-260 108t-108 260t108 259.5t260 107.5t259.5 -107.5t107.5 -259.5zM680 402l-203 202h-58l-203 -202v-122l187 186v-474h89v474l188 -186v122z" />
    <glyph glyph-name="ampersand.case" horiz-adv-x="618" 
d="M270 720q86 0 144.5 -48t75.5 -136l-112 -24q-5 45 -31.5 76t-73.5 31q-48 0 -77 -28.5t-29 -69.5q0 -51 38 -80t96 -27v-101q-60 4 -102 -26t-42 -86q0 -51 35.5 -83t90.5 -32q57 0 92 34.5t35 88.5v200h198v-101h-79v-84q0 -103 -65.5 -171t-181.5 -68t-180 64.5
t-64 142.5q0 116 116 173q-46 24 -76 65.5t-30 99.5q0 74 58 132t164 58z" />
    </font>
</defs>
</svg>
