<?xml version="1.0" encoding="UTF-8"?>
<svg width="8px" height="16px" viewBox="0 0 8 16" version="1.1" xmlns="http://www.w3.org/2000/svg" xmlns:xlink="http://www.w3.org/1999/xlink">
    <!-- Generator: Sketch 48.2 (47327) - http://www.bohemiancoding.com/sketch -->
    <title>Path</title>
    <desc>Created with Sketch.</desc>
    <defs></defs>
    <g id="Home-/-Desktop" stroke="none" stroke-width="1" fill="none" fill-rule="evenodd" transform="translate(-1209.000000, -3272.000000)">
        <path d="M1211.33333,3288 L1214.18182,3288 L1214.18182,3280.84375 L1216.39394,3280.84375 L1216.75758,3278 L1214.18182,3278 L1214.18182,3276.03125 C1214.18182,3275.57292 1214.26263,3275.23958 1214.42424,3275.03125 C1214.62626,3274.78125 1215,3274.65625 1215.54545,3274.65625 L1217,3274.65625 L1217,3272.125 C1216.45455,3272.04167 1215.74747,3272 1214.87879,3272 C1213.80808,3272 1212.94949,3272.32812 1212.30303,3272.98438 C1211.65657,3273.64062 1211.33333,3274.5625 1211.33333,3275.75 L1211.33333,3278 L1209,3278 L1209,3280.84375 L1211.33333,3280.84375 L1211.33333,3288 Z" id="Path" fill="#000000"></path>
    </g>
</svg>