<?xml version="1.0" encoding="UTF-8"?>
<svg width="142px" height="27px" viewBox="0 0 142 27" version="1.1" xmlns="http://www.w3.org/2000/svg" xmlns:xlink="http://www.w3.org/1999/xlink">
    <!-- Generator: Sketch 48.2 (47327) - http://www.bohemiancoding.com/sketch -->
    <title>Page 1</title>
    <desc>Created with Sketch.</desc>
    <defs>
        <polygon id="path-1" points="0.451 0.324870968 54.3213175 0.324870968 54.3213175 26.9998258 0.451 26.9998258 0.451 0.324870968"></polygon>
        <polygon id="path-3" points="27 16.6800421 27 0.292936842 0.551409677 0.292936842 0.551409677 16.6800421"></polygon>
    </defs>
    <g id="Home-/-Desktop" stroke="none" stroke-width="1" fill="none" fill-rule="evenodd" transform="translate(-32.000000, -36.000000)">
        <g id="Page-1" transform="translate(32.000000, 36.000000)">
            <path d="M16.7794111,22.9612086 L16.7794111,14.0529948 C16.7794111,11.1866542 15.1725875,9.70253249 12.6778731,9.70253249 C10.5598657,9.70253249 8.50909668,10.9453973 7.07381698,12.499196 L7.07381698,0.103644647 L6.80055351,0 L0,1.89957122 L0,2.24447273 C1.29821696,2.17566662 2.42575201,2.69301889 2.42575201,4.83384698 L2.42575201,22.9612086 C2.42575201,24.9983921 1.33269815,25.5854214 0.238782269,25.6890661 L0.238782269,26 L8.8849417,26 L8.8849417,25.7230336 C7.82550701,25.6202599 7.07381698,25.0332306 7.07381698,22.8924025 L7.07381698,13.3274822 C7.92808856,12.4303899 9.02114242,11.808522 10.0124767,11.808522 C11.3796561,11.808522 12.1313461,12.7413239 12.1313461,14.9857966 L12.1313461,22.8924025 C12.1313461,24.929586 11.4477565,25.6202599 10.3202214,25.7230336 L10.3202214,26 L19,26 L19,25.6890661 C17.872465,25.5854214 16.7794111,24.9983921 16.7794111,22.9612086" id="Fill-1" fill="#000000"></path>
            <path d="M23.4499427,16.2009097 C23.6291714,12.7177857 25.064812,10.6273841 26.8236075,10.6273841 C28.3307586,10.6273841 29.3355259,12.1606967 29.3708286,16.2009097 L23.4499427,16.2009097 Z M27.0743468,10 C22.947559,10 19,13.6579831 19,18.8132527 C19,23.4808497 22.4089675,27 26.8236075,27 C30.1248567,27 32.7807012,25.0484313 33.8569791,21.3570579 L33.4976163,21.2164677 C32.492849,22.8886132 30.8779796,23.7251253 29.012371,23.7251253 C25.7826323,23.7251253 23.5214531,21.1119037 23.4499427,16.8977102 L34,16.8977102 C33.8569791,12.5780741 30.8064691,10 27.0743468,10 Z" id="Fill-3" fill="#000000"></path>
            <path d="M44.7676091,10 C43.1442847,10 41.1490373,11.6363061 40,14.5518734 L40,10.3920317 L39.7287351,10.2843799 L33,12.3118206 L33,12.6320844 C34.3520595,12.5603166 35.4686815,13.1649604 35.4686815,15.3350396 L35.4686815,23.9050132 C35.4686815,26.0042216 34.3520595,26.5729815 33.2362905,26.6797361 L33.2362905,27 L42.1641482,27 L42.1641482,26.714723 C41.0142579,26.6088654 40.0673897,25.897467 40.0673897,23.7991557 L40.0673897,15.6902902 C40.5408238,14.1966227 41.1490373,13.271715 41.961126,13.271715 C42.9421155,13.271715 43.4488179,14.6945119 44.8691202,14.6945119 C46.1205216,14.6945119 47,13.6628496 47,12.3477045 C47,11.0666491 46.1887643,10 44.7676091,10" id="Fill-5" fill="#000000"></path>
            <g id="Group-9" transform="translate(46.000000, 0.000000)">
                <mask id="mask-2" fill="white">
                    <use xlink:href="#path-1"></use>
                </mask>
                <g id="Clip-8"></g>
                <path d="M25.1233016,24.7858258 C21.958619,24.7858258 20.1759206,22.3540839 20.1759206,18.8702129 C20.1759206,16.8382452 21.3946508,14.9865677 22.9590952,13.4266645 L29.7066349,22.9350194 C28.1788571,24.241471 26.687746,24.7858258 25.1233016,24.7858258 M25.9055238,0.869051613 C27.3966349,0.869051613 28.4521111,2.42982581 28.4521111,5.11501935 C28.4521111,6.71237419 28.0522698,8.38114839 26.632746,9.86963226 C24.4144127,7.00240645 23.6138571,5.36934194 23.6138571,3.7719871 C23.6138571,1.92118065 24.7417937,0.869051613 25.9055238,0.869051613 M7.99560317,10.7362452 C9.4491746,10.7362452 10.4182222,12.2560839 10.4522698,16.2607935 L4.74187302,16.2607935 C4.91560317,12.8091484 6.29933333,10.7362452 7.99560317,10.7362452 M52.0366349,23.3739871 L52.0366349,14.4666 C52.0366349,11.6002452 50.4110794,10.1152452 47.8836984,10.1152452 C45.7037778,10.1152452 43.5919524,11.4277935 42.139254,13.0155677 L42.139254,10.2876968 L41.8625079,10.1840516 L34.9752857,12.1524387 L34.9752857,12.4633742 C36.3249683,12.3936968 37.5009206,12.9467613 37.5009206,15.0876 L37.5009206,23.3739871 C37.5009206,23.6326645 37.4825873,23.8669548 37.4485397,24.0812129 C37.081873,23.6823097 36.6767937,23.2093742 36.2184603,22.6449871 L27.1425873,10.5228581 C30.4163968,8.49001935 32.0175079,6.85695484 32.0175079,4.75182581 C32.0175079,2.03005161 29.3617937,0.324696774 26.0146508,0.324696774 C22.3767937,0.324696774 19.2487778,2.42982581 19.2487778,5.80482581 C19.2487778,7.51018065 20.0126667,9.50643871 22.4134603,12.6636968 C19.2487778,14.5519548 15.4834603,16.9471161 15.4834603,20.7210194 C15.4834603,20.7985355 15.4913175,20.8743097 15.4939365,20.9518258 C14.4157619,22.5012774 11.8220317,23.7188903 10.1065556,23.7188903 C6.99163492,23.7188903 4.81171429,21.1295032 4.74187302,16.951471 L14.917746,16.951471 C14.7789365,12.6697935 11.836873,10.1152452 8.23830159,10.1152452 C4.25822222,10.1152452 0.451,13.7410839 0.451,18.8510516 C0.451,23.4776323 3.73877778,26.9649871 7.99560317,26.9649871 C10.8617143,26.9649871 14.198381,24.9809226 15.5943333,21.9168581 C16.1390952,24.8459226 18.709254,26.9998258 22.7583016,26.9998258 C25.4140159,26.9998258 27.8514762,26.0199871 30.2522698,23.6248258 L32.3623492,26.3823097 L35.2520317,26.3823097 L35.2520317,26.4127935 L44.0424286,26.4127935 L44.0424286,26.1358258 C42.9354444,26.0330516 42.2082222,25.3423742 42.2082222,23.3051806 L42.2082222,13.7410839 C43.074254,12.8431161 44.1812381,12.2221161 45.1843333,12.2221161 C46.5689365,12.2221161 47.3302063,13.1540516 47.3302063,15.3985355 L47.3302063,23.3051806 C47.3302063,25.3423742 46.6728254,26.0330516 45.496,26.1358258 L45.496,26.4127935 L54.3213175,26.4127935 L54.3213175,26.1018581 C53.1453651,25.9982129 52.0366349,25.4111806 52.0366349,23.3739871" id="Fill-7" fill="#000000" mask="url(#mask-2)"></path>
            </g>
            <path d="M108.482096,26.4428535 C106.458926,26.4428535 105.217272,23.2379426 105.217272,18.430137 C105.217272,12.4034634 106.743602,10.5571465 108.339758,10.5571465 C110.433649,10.5571465 111.711111,13.6574826 111.711111,18.569863 C111.711111,24.7362626 110.11406,26.4428535 108.482096,26.4428535 M108.482096,10 C103.833281,10 100,13.8666322 100,18.569863 C100,23.308245 103.584413,27 108.482096,27 C113.343971,27 117,23.0982166 117,18.4652882 C117,13.7269062 113.55703,10 108.482096,10" id="Fill-10" fill="#000000"></path>
            <g id="Group-14" transform="translate(115.000000, 10.000000)">
                <mask id="mask-4" fill="white">
                    <use xlink:href="#path-3"></use>
                </mask>
                <g id="Clip-13"></g>
                <path d="M20.4739258,0.292936842 L20.4739258,0.612357895 C22.6496032,0.895989474 23.3063129,3.06035789 21.9249581,6.64198947 L20.3023452,10.8633579 L17.6772484,3.48535789 C17.0214097,1.74688421 17.2983774,0.718831579 18.7485387,0.612357895 L18.7485387,0.292936842 L10.1851839,0.292936842 L10.1851839,0.612357895 C11.1171194,0.789515789 11.9462806,1.53483158 12.9121839,4.05351579 L13.2927968,5.00998947 L11.0831516,10.9349368 L8.21679677,4.05351579 C7.31882903,1.88914737 7.62976452,0.718831579 8.76986129,0.612357895 L8.76986129,0.292936842 L0.551409677,0.292936842 L0.551409677,0.612357895 C1.62182903,0.895989474 2.20886129,1.81846316 3.17650645,4.05351579 L8.5617,16.6800421 L9.70179677,16.6800421 L13.6716677,6.07472632 L17.6772484,16.6800421 L18.7825065,16.6800421 L22.9596677,6.07472632 C24.5491839,1.99562105 25.7223774,0.753726316 27.0000871,0.612357895 L27.0000871,0.292936842 L20.4739258,0.292936842 Z" id="Fill-12" fill="#000000" mask="url(#mask-4)"></path>
            </g>
        </g>
    </g>
</svg>