<?xml version="1.0" encoding="UTF-8"?>
<svg width="52px" height="36px" viewBox="0 0 52 36" version="1.1" xmlns="http://www.w3.org/2000/svg" xmlns:xlink="http://www.w3.org/1999/xlink">
    <!-- Generator: Sketch 48.2 (47327) - http://www.bohemiancoding.com/sketch -->
    <title>Page 1</title>
    <desc>Created with Sketch.</desc>
    <defs>
        <polygon id="path-1" points="6.41487109e-16 36 6.41487109e-16 0 52 0 52 36"></polygon>
    </defs>
    <g id="Home-/-Desktop" stroke="none" stroke-width="1" fill="none" fill-rule="evenodd" transform="translate(-901.000000, -3262.000000)">
        <g id="Page-1" transform="translate(901.000000, 3262.000000)">
            <mask id="mask-2" fill="white">
                <use xlink:href="#path-1"></use>
            </mask>
            <g id="Clip-2"></g>
            <path d="M43.6603556,26.3025767 L43.6603556,26.562283 L52,26.562283 L52,26.2698984 C50.8883556,26.1730102 49.842,25.6214925 49.842,23.7066599 L49.842,15.3347135 C49.842,12.6407619 48.3045333,11.2453419 45.9171556,11.2453419 C43.8568,11.2453419 41.8617333,12.4790904 40.4883556,13.9713985 L40.4883556,11.40816 L40.2266222,11.3101252 L33.7185333,13.1601745 L33.7185333,13.4519859 C34.9936889,13.3872026 36.1059111,13.906042 36.1059111,15.9189094 L36.1059111,23.7066599 C36.1059111,24.0793069 36.0643111,24.3992101 35.9903556,24.6755422 L27.8806667,13.8917094 C32.0660889,11.1645062 34.6949778,8.9727681 34.6949778,6.14867663 C34.6949778,2.49730866 31.2999556,0 27.0215111,0 C22.3715556,0 19.1487111,3.03220053 19.1487111,7.56129567 C19.1487111,9.84992197 20.1257333,12.5278211 23.1948889,16.7645316 C20.5059111,18.4477498 17.6719111,20.4325254 16.0726222,23.0605472 L16.0726222,15.3083416 C16.0726222,12.6120967 14.534,11.2155301 12.1443111,11.2155301 C10.1151556,11.2155301 8.15071111,12.3850686 6.77617778,13.8464184 L6.77617778,2.18600503 L6.51386667,2.08854349 L0,3.87495621 L0,4.20001911 C1.24395556,4.13523585 2.3244,4.62197025 2.3244,6.63598433 L2.3244,23.6877409 C2.3244,25.6042934 1.27688889,26.1563844 0.229377778,26.2538459 L0.229377778,26.5462305 L8.51124444,26.5462305 L8.51124444,26.2865242 C7.49608889,26.1890626 6.77617778,25.6369717 6.77617778,23.6229576 L6.77617778,14.6261108 C7.59431111,13.7810619 8.64182222,13.1968659 9.59111111,13.1968659 C10.9009333,13.1968659 11.6208444,14.0740198 11.6208444,16.1854954 L11.6208444,23.6229576 C11.6208444,25.5395101 10.9662222,26.1890626 9.88577778,26.2865242 L9.88577778,26.5462305 L14.8344444,26.5462305 C14.7945778,26.8810396 14.7708889,27.2233016 14.7708889,27.5753097 C14.7708889,32.2987547 18.2121333,36 24.0719556,36 C27.4669778,36 30.7764889,34.6848425 33.8456444,31.4714782 L36.5432889,35.1721502 L45.1354222,35.1721502 L45.1354222,34.7335733 C43.7395111,34.2949963 42.4845778,33.224066 40.1122222,30.1563207 L37.4093778,26.562283 L42.2869778,26.562283 L42.2869778,26.3025767 C41.2406222,26.2056884 40.5536444,25.5561359 40.5536444,23.6418766 L40.5536444,14.653056 C41.3712,13.8091537 42.4181333,13.2249578 43.3662667,13.2249578 C44.6743556,13.2249578 45.3936889,14.1009651 45.3936889,16.2107208 L45.3936889,23.6418766 C45.3936889,25.5561359 44.7725778,26.2056884 43.6603556,26.3025767 M26.8816889,0.938497309 C28.7889333,0.938497309 30.5263111,3.03220053 30.5263111,6.63541103 C30.5263111,8.77899162 29.0431556,11.0188872 27.2295111,13.0151288 C24.3926222,9.16826448 23.3693778,6.97709972 23.3693778,4.83409243 C23.3693778,2.35054305 25.3939111,0.938497309 26.8816889,0.938497309 M26.1230667,33.0291429 C22.0774667,33.0291429 19.3272444,29.1530401 19.7987111,25.0917604 C20.1136,22.3829028 21.8925778,19.8810077 23.8928444,17.7873045 L33.1482667,30.5461668 C31.1953778,32.2987547 28.1227556,33.0291429 26.1230667,33.0291429" id="Fill-1" fill="#000000" mask="url(#mask-2)"></path>
        </g>
    </g>
</svg>