<?xml version="1.0" encoding="UTF-8"?>
<svg width="49px" height="38px" viewBox="0 0 49 38" version="1.1" xmlns="http://www.w3.org/2000/svg" xmlns:xlink="http://www.w3.org/1999/xlink">
    <!-- Generator: Sketch 49.3 (51167) - http://www.bohemiancoding.com/sketch -->
    <title>Page 1</title>
    <desc>Created with Sketch.</desc>
    <defs>
        <polygon id="path-1" points="24.5 38 0 38 0 0 24.5 0 49 0 49 38 24.5 38"></polygon>
    </defs>
    <g id="Responsive-Mockups" stroke="none" stroke-width="1" fill="none" fill-rule="evenodd">
        <g id="Home---Desktop" transform="translate(-1091.000000, -4482.000000)">
            <g id="Page-1" transform="translate(1091.000000, 4482.000000)">
                <mask id="mask-2" fill="white">
                    <use xlink:href="#path-1"></use>
                </mask>
                <g id="Clip-2"></g>
                <path d="M46.327297,33.7005714 C46.327297,34.5745714 45.6283852,35.2843571 44.7677748,35.2843571 L37.3657239,35.2843571 L37.3657239,8.59614286 L44.7677748,8.59614286 C45.6283852,8.59614286 46.327297,9.30592857 46.327297,10.1785714 L46.327297,33.7005714 Z M2.67270298,33.7019286 L2.67270298,10.1812857 C2.67270298,9.30728571 3.37295115,8.59614286 4.23222516,8.59614286 L11.5834947,8.59614286 L11.5834947,35.2857143 L4.23222516,35.2857143 C3.37295115,35.2857143 2.67270298,34.5759286 2.67270298,33.7019286 Z M20.0452723,4.29671429 C20.0452723,3.42407143 20.7455205,2.71428571 21.6047945,2.71428571 L27.3965418,2.71428571 C28.2571522,2.71428571 28.956064,3.42407143 28.956064,4.29671429 L28.956064,5.88185714 L20.0452723,5.88185714 L20.0452723,4.29671429 Z M34.693021,8.59614286 L34.693021,35.2843571 L14.2561977,35.2857143 L14.2561977,8.59614286 L34.693021,8.59614286 Z M44.7677748,5.88185714 L31.628767,5.88185714 L31.628767,4.29671429 C31.628767,1.92714286 29.7298115,0 27.3965418,0 L21.6047945,0 C19.2715248,0 17.3725693,1.92714286 17.3725693,4.29671429 L17.3725693,5.88185714 L4.23222516,5.88185714 C1.89895546,5.88185714 0,7.81035714 0,10.1812857 L0,33.7019286 C0,36.0715 1.89895546,38 4.23222516,38 L44.7677748,37.9986429 C47.1010445,37.9986429 49,36.0701429 49,33.7005714 L49,10.1785714 C49,7.809 47.1010445,5.88185714 44.7677748,5.88185714 Z" id="Fill-1" fill="#000000" mask="url(#mask-2)"></path>
            </g>
        </g>
    </g>
</svg>