<?xml version="1.0" encoding="UTF-8"?>
<svg width="38px" height="45px" viewBox="0 0 38 45" version="1.1" xmlns="http://www.w3.org/2000/svg" xmlns:xlink="http://www.w3.org/1999/xlink">
    <!-- Generator: Sketch 49.3 (51167) - http://www.bohemiancoding.com/sketch -->
    <title>Page 1</title>
    <desc>Created with Sketch.</desc>
    <defs>
        <polygon id="path-1" points="37.6451307 32 0 32 0 0.0502 37.6451307 0.0502 37.6451307 32"></polygon>
    </defs>
    <g id="Responsive-Mockups" stroke="none" stroke-width="1" fill="none" fill-rule="evenodd">
        <g id="Home---Desktop" transform="translate(-569.000000, -4478.000000)">
            <g id="Page-1" transform="translate(569.000000, 4478.000000)">
                <g id="Group-3" transform="translate(0.000000, 12.950000)">
                    <mask id="mask-2" fill="white">
                        <use xlink:href="#path-1"></use>
                    </mask>
                    <g id="Clip-2"></g>
                    <path d="M22.4451307,24.7502 L28.424304,9.7502 L34.4531307,9.7502 L22.4451307,24.7502 Z M9.27179733,9.7502 L15.250464,24.7502 L3.29313067,9.7502 L9.27179733,9.7502 Z M5.52297067,3.1997 L8.15713067,7.6997 L2.88779733,7.6997 L5.52297067,3.1997 Z M34.8077973,7.6502 L29.538464,7.6502 L32.1731307,3.1502 L34.8077973,7.6502 Z M19.8611307,9.7502 L26.144304,9.7502 L19.9117973,25.5002 L19.8611307,9.7502 Z M17.7331307,9.7502 L17.7837973,25.4497 L11.5517973,9.7502 L17.7331307,9.7502 Z M9.98113067,6.6002 L7.346464,2.1002 L12.616304,2.1002 L9.98113067,6.6002 Z M18.8477973,6.5502 L16.2637973,2.1502 L21.4317973,2.1502 L18.8477973,6.5502 Z M25.0797973,2.1502 L30.3496373,2.1502 L27.714464,6.6502 L25.0797973,2.1502 Z M11.8051307,7.6502 L14.4397973,3.1502 L17.074464,7.6502 L11.8051307,7.6502 Z M20.6211307,7.6502 L23.256304,3.1502 L25.8909707,7.6502 L20.6211307,7.6502 Z M37.6451307,8.9002 L37.6451307,8.7502 L37.6451307,8.6502 L37.6451307,8.5002 C37.6451307,8.4497 37.6451307,8.4002 37.594464,8.4002 C37.594464,8.3502 37.594464,8.3002 37.544304,8.3002 L37.4931307,8.2502 L37.4931307,8.1997 L33.0851307,0.5502 C32.8829707,0.2502 32.5277973,0.0502 32.1731307,0.0502 L5.52297067,0.0502 C5.16779733,0.0502 4.81313067,0.2502 4.610464,0.5502 L0.151797333,8.1502 C0.151797333,8.1502 0.151797333,8.1997 0.101130667,8.1997 C0.101130667,8.2502 0.101130667,8.3002 0.050464,8.3002 C0.050464,8.3502 -0.000202666667,8.3502 -0.000202666667,8.4002 L-0.000202666667,8.5502 L-0.000202666667,8.6502 L-0.000202666667,8.8002 C-0.000202666667,8.8502 -0.000202666667,8.8502 0.050464,8.9002 C0.050464,8.9497 0.101130667,9.0002 0.101130667,9.0502 L0.101130667,9.1002 L0.151797333,9.1502 C0.151797333,9.1997 0.202970667,9.1997 0.202970667,9.2502 L17.986464,31.5502 L18.0371307,31.5997 C18.0877973,31.6502 18.138464,31.6997 18.2397973,31.7502 L18.290464,31.8002 C18.3411307,31.8497 18.3917973,31.8497 18.4931307,31.9002 C18.5437973,31.9002 18.5437973,31.9002 18.594464,31.9497 C18.696304,31.9497 18.7971307,32.0002 18.898464,32.0002 L19.1011307,32.0002 L19.1517973,32.0002 C19.2029707,32.0002 19.2531307,31.9497 19.3037973,31.9497 C19.3037973,31.9497 19.354464,31.9497 19.354464,31.9002 C19.4051307,31.9002 19.456304,31.8497 19.506464,31.8002 C19.506464,31.8002 19.5576373,31.8002 19.5576373,31.7502 C19.6077973,31.6997 19.658464,31.6502 19.7096373,31.5997 L37.4931307,9.3002 L37.544304,9.2502 L37.594464,9.1997 L37.594464,9.1502 C37.594464,9.1002 37.6451307,9.0502 37.6451307,9.0002 L37.6451307,8.9002 Z" id="Fill-1" fill="#000000" mask="url(#mask-2)"></path>
                </g>
                <path d="M18.8987173,10.25 C19.5067173,10.25 19.9627173,9.8 19.9627173,9.2 L19.9627173,1.05 C19.9627173,0.45 19.5067173,0 18.8987173,0 C18.2907173,0 17.8347173,0.45 17.8347173,1.05 L17.8347173,9.2 C17.8347173,9.8 18.2907173,10.25 18.8987173,10.25" id="Fill-4" fill="#000000"></path>
                <path d="M26.6508693,10.1499 C26.8028693,10.1999 26.9548693,10.2499 27.1063627,10.2499 C27.511696,10.2499 27.8663627,10.0499 28.069536,9.6499 L30.8050293,4.1999 C31.0583627,3.6999 30.8562027,3.0499 30.2983627,2.7999 C29.791696,2.5499 29.1330293,2.7499 28.879696,3.2999 L26.1442027,8.7499 C25.8908693,9.2499 26.0930293,9.8999 26.6508693,10.1499" id="Fill-6" fill="#000000"></path>
                <path d="M9.62656533,9.69995 C9.829232,10.04995 10.1838987,10.29995 10.589232,10.29995 C10.741232,10.29995 10.893232,10.24995 11.045232,10.19995 C11.5518987,9.94995 11.805232,9.29995 11.5518987,8.79995 L8.81589867,3.34995 C8.56256533,2.84995 7.90389867,2.59995 7.397232,2.84995 C6.89056533,3.09995 6.637232,3.74995 6.89056533,4.24995 L9.62656533,9.69995 Z" id="Fill-8" fill="#000000"></path>
            </g>
        </g>
    </g>
</svg>