<?xml version="1.0" encoding="UTF-8"?>
<svg width="43px" height="39px" viewBox="0 0 43 39" version="1.1" xmlns="http://www.w3.org/2000/svg" xmlns:xlink="http://www.w3.org/1999/xlink">
    <!-- Generator: Sketch 49.3 (51167) - http://www.bohemiancoding.com/sketch -->
    <title>Page 1</title>
    <desc>Created with Sketch.</desc>
    <defs>
        <polygon id="path-1" points="42.8882 5e-05 42.8882 38.972 7.32643021e-05 38.972 7.32643021e-05 5e-05"></polygon>
    </defs>
    <g id="Responsive-Mockups" stroke="none" stroke-width="1" fill="none" fill-rule="evenodd">
        <g id="Home---Desktop" transform="translate(-303.000000, -4481.000000)">
            <g id="Page-1" transform="translate(303.000000, 4481.000000)">
                <mask id="mask-2" fill="white">
                    <use xlink:href="#path-1"></use>
                </mask>
                <g id="Clip-2"></g>
                <path d="M26.3183776,35.82305 C25.84386,36.30805 25.2013894,36.57555 24.5073188,36.57555 L4.94990706,36.57555 C4.25583647,36.57555 3.61134235,36.30755 3.13429529,35.82155 C2.65724824,35.33455 2.40582471,34.69005 2.42707176,34.00505 C2.42757765,33.99355 2.46703647,32.84755 2.76398941,31.40055 C3.48891882,27.87105 5.00808353,27.12555 8.34134235,25.49105 L8.98583647,25.16655 C10.4984247,26.54655 12.5123424,27.39855 14.7286129,27.39855 C16.9448835,27.39855 18.9593071,26.54655 20.4724012,25.16655 L21.1214482,25.49355 C24.2386953,27.02355 25.7694953,27.77355 26.5470365,30.76305 L26.5546247,30.79305 C26.6026835,30.97905 26.6472012,31.17255 26.6881776,31.37455 C26.9674247,32.70905 27.0164953,33.99655 27.0170012,34.01105 C27.0402718,34.69455 26.7923894,35.33805 26.3183776,35.82305 M14.7281071,13.02805 C18.0684482,13.02805 20.7860482,15.71305 20.7860482,19.01405 C20.7860482,22.31605 18.0684482,25.00105 14.7281071,25.00105 C11.3882718,25.00105 8.67117765,22.31605 8.67117765,19.01405 C8.67117765,15.71305 11.3882718,13.02805 14.7281071,13.02805 M28.17446,14.36955 C24.8336129,14.36955 22.1160129,11.68405 22.1160129,8.38305 C22.1160129,5.08155 24.8336129,2.39705 28.17446,2.39705 C31.5137894,2.39705 34.2308835,5.08255 34.2308835,8.38355 C34.2308835,11.68455 31.5137894,14.36955 28.17446,14.36955 M42.5996953,20.70105 L42.5425306,20.42005 C42.4990247,20.20205 42.2976835,19.35655 42.2976835,19.35655 L42.2885776,19.35855 C41.2009306,15.44455 38.8354247,14.27955 35.64786,12.71655 L35.4748482,12.62905 C36.2200129,11.38205 36.6565894,9.93305 36.6565894,8.38255 C36.6565894,3.76005 32.8518482,5e-05 28.17446,5e-05 C23.4970718,5e-05 19.6923306,3.76005 19.6923306,8.38255 C19.6923306,13.00505 23.4970718,16.76605 28.17446,16.76605 C30.3907306,16.76605 32.4046482,15.91455 33.9172365,14.53355 L34.5657776,14.86105 C37.6825188,16.39055 39.2138247,17.14155 39.9903541,20.12755 L40.0014835,20.17155 C40.0485306,20.35605 40.1517306,20.82905 40.1598247,20.86955 L40.16286,20.88555 C40.4168129,22.16855 40.4618365,23.36405 40.4623424,23.37705 C40.4856129,24.06255 40.2382365,24.70755 39.7632129,25.19205 C39.2892012,25.67755 38.6467306,25.94405 37.9531659,25.94405 L26.4822835,25.94405 C25.3268482,24.88555 23.8790129,24.17055 22.2030247,23.34905 L22.0279894,23.26055 C22.7741659,22.01355 23.2092247,20.56405 23.2092247,19.01405 C23.2092247,14.39155 19.4049894,10.63155 14.7270953,10.63155 C10.0507188,10.63155 6.24597765,14.39155 6.24597765,19.01405 C6.24597765,20.56555 6.68204824,22.01355 7.42721294,23.26055 L7.25622471,23.34705 C4.13189529,24.88005 1.80129529,26.03555 0.683295294,29.76105 L0.626636471,29.75005 L0.385836471,30.92455 C0.385836471,30.92455 0.00591882353,33.80655 0.00237764706,33.93305 C-0.0380929412,35.27205 0.455648235,36.53605 1.39355412,37.49105 C2.33196588,38.44605 3.59464824,38.97205 4.94990706,38.97205 L24.5073188,38.97205 C25.8640953,38.97205 27.1267776,38.44455 28.0611424,37.48805 C28.9965188,36.53205 29.4857071,35.26805 29.4396718,33.92205 C29.4295541,33.67605 29.3759306,32.58555 29.1498012,31.33305 L29.1538482,31.33205 C29.1538482,31.33205 29.0051188,30.61155 28.9525071,30.39455 L28.6666835,29.23005 L28.6105306,29.24355 C28.4956953,28.92055 28.3692247,28.62305 28.2356718,28.33955 L37.9536718,28.33955 C39.3099424,28.33955 40.5721188,27.81255 41.5059776,26.85655 C42.44186,25.90105 42.9310482,24.63705 42.8855188,23.28905 C42.8743894,23.04305 42.5996953,20.70105 42.5996953,20.70105" id="Fill-1" fill="#FFFFFF" mask="url(#mask-2)"></path>
            </g>
        </g>
    </g>
</svg>
