<?xml version="1.0" encoding="UTF-8"?>
<svg width="42px" height="37px" viewBox="0 0 42 37" version="1.1" xmlns="http://www.w3.org/2000/svg" xmlns:xlink="http://www.w3.org/1999/xlink">
    <!-- Generator: Sketch 49.3 (51167) - http://www.bohemiancoding.com/sketch -->
    <title>Group 3</title>
    <desc>Created with Sketch.</desc>
    <defs></defs>
    <g id="Responsive-Mockups" stroke="none" stroke-width="1" fill="none" fill-rule="evenodd">
        <g id="Home---Desktop" transform="translate(-830.000000, -4481.000000)" fill="#FFFFFF">
            <g id="Group-3" transform="translate(830.000000, 4481.000000)">
                <path d="M21.8727971,36.0218433 L38.7530912,19.16896 C43.0784735,14.8504433 43.0815618,7.84942667 38.7592676,3.53399333 C34.4419147,-0.776506667 27.4229735,-0.77589 23.0994441,3.54077667 L21.0000618,5.64854333 L18.8994441,3.54077667 C14.5765324,-0.77589 7.55697353,-0.776506667 3.24023824,3.53399333 C-1.08267353,7.84942667 -1.07958529,14.8504433 3.24579706,19.16896 L20.1260912,36.0218433 C20.6084735,36.50346 21.3904147,36.50346 21.8727971,36.0218433 Z M4.99312059,17.42441 C1.63188529,14.0691267 1.62941471,8.63012667 4.98694412,5.27854333 C8.33953235,1.93127667 13.7939735,1.93127667 17.1521206,5.28471 L20.1260912,8.25334333 C20.6084735,8.73496 21.3904147,8.73496 21.8727971,8.25334333 L24.84615,5.28471 C28.2055324,1.93127667 33.6599735,1.93127667 37.0125618,5.27854333 C40.3694735,8.63012667 40.3670029,14.0691267 37.0063853,17.42441 L21.0000618,33.41581 L4.99312059,17.42441 Z" id="Fill-1"></path>
            </g>
        </g>
    </g>
</svg>
