<?xml version="1.0" encoding="UTF-8"?>
<svg width="14px" height="14px" viewBox="0 0 14 14" version="1.1" xmlns="http://www.w3.org/2000/svg" xmlns:xlink="http://www.w3.org/1999/xlink">
    <!-- Generator: Sketch 48.2 (47327) - http://www.bohemiancoding.com/sketch -->
    <title>  </title>
    <desc>Created with Sketch.</desc>
    <defs></defs>
    <g id="Home-/-Desktop" stroke="none" stroke-width="1" fill="none" fill-rule="evenodd" transform="translate(-1393.000000, -3273.000000)">
        <path d="M1400,3276.40625 C1400.64583,3276.40625 1401.24479,3276.56771 1401.79688,3276.89062 C1402.34896,3277.21354 1402.78646,3277.65104 1403.10938,3278.20312 C1403.43229,3278.75521 1403.59375,3279.35417 1403.59375,3280 C1403.59375,3280.64583 1403.43229,3281.24479 1403.10938,3281.79688 C1402.78646,3282.34896 1402.34896,3282.78646 1401.79688,3283.10938 C1401.24479,3283.43229 1400.64583,3283.59375 1400,3283.59375 C1399.35417,3283.59375 1398.75521,3283.43229 1398.20312,3283.10938 C1397.65104,3282.78646 1397.21354,3282.34896 1396.89062,3281.79688 C1396.56771,3281.24479 1396.40625,3280.64583 1396.40625,3280 C1396.40625,3279.35417 1396.56771,3278.75521 1396.89062,3278.20312 C1397.21354,3277.65104 1397.65104,3277.21354 1398.20312,3276.89062 C1398.75521,3276.56771 1399.35417,3276.40625 1400,3276.40625 Z M1400,3282.34375 C1400.64583,3282.34375 1401.19792,3282.11458 1401.65625,3281.65625 C1402.11458,3281.19792 1402.34375,3280.64583 1402.34375,3280 C1402.34375,3279.35417 1402.11458,3278.80208 1401.65625,3278.34375 C1401.19792,3277.88542 1400.64583,3277.65625 1400,3277.65625 C1399.35417,3277.65625 1398.80208,3277.88542 1398.34375,3278.34375 C1397.88542,3278.80208 1397.65625,3279.35417 1397.65625,3280 C1397.65625,3280.64583 1397.88542,3281.19792 1398.34375,3281.65625 C1398.80208,3282.11458 1399.35417,3282.34375 1400,3282.34375 Z M1404.59375,3276.25 C1404.57292,3276.47917 1404.48438,3276.67708 1404.32812,3276.84375 C1404.17188,3277.01042 1403.97917,3277.09375 1403.75,3277.09375 C1403.52083,3277.09375 1403.32292,3277.01042 1403.15625,3276.84375 C1402.98958,3276.67708 1402.90625,3276.47917 1402.90625,3276.25 C1402.90625,3276.02083 1402.98958,3275.82292 1403.15625,3275.65625 C1403.32292,3275.48958 1403.52083,3275.40625 1403.75,3275.40625 C1403.97917,3275.40625 1404.17708,3275.48958 1404.34375,3275.65625 C1404.51042,3275.82292 1404.59375,3276.02083 1404.59375,3276.25 Z M1406.96875,3277.09375 C1406.98958,3277.67708 1407,3278.64583 1407,3280 C1407,3281.35417 1406.98438,3282.32812 1406.95312,3282.92188 C1406.92188,3283.51562 1406.83333,3284.03125 1406.6875,3284.46875 C1406.5,3284.98958 1406.21354,3285.44271 1405.82812,3285.82812 C1405.44271,3286.21354 1404.98958,3286.5 1404.46875,3286.6875 C1404.03125,3286.83333 1403.51562,3286.92188 1402.92188,3286.95312 C1402.32812,3286.98438 1401.35417,3287 1400,3287 C1398.64583,3287 1397.67188,3286.98438 1397.07812,3286.95312 C1396.48438,3286.92188 1395.96875,3286.82292 1395.53125,3286.65625 C1395.01042,3286.48958 1394.55729,3286.21354 1394.17188,3285.82812 C1393.78646,3285.44271 1393.5,3284.98958 1393.3125,3284.46875 C1393.16667,3284.03125 1393.07812,3283.51562 1393.04688,3282.92188 C1393.01562,3282.32812 1393,3281.35417 1393,3280 C1393,3278.64583 1393.01562,3277.67188 1393.04688,3277.07812 C1393.07812,3276.48438 1393.16667,3275.96875 1393.3125,3275.53125 C1393.5,3275.01042 1393.78646,3274.55729 1394.17188,3274.17188 C1394.55729,3273.78646 1395.01042,3273.5 1395.53125,3273.3125 C1395.96875,3273.16667 1396.48438,3273.07812 1397.07812,3273.04688 C1397.67188,3273.01562 1398.64583,3273 1400,3273 C1401.35417,3273 1402.32812,3273.01562 1402.92188,3273.04688 C1403.51562,3273.07812 1404.03125,3273.16667 1404.46875,3273.3125 C1404.98958,3273.5 1405.44271,3273.78646 1405.82812,3274.17188 C1406.21354,3274.55729 1406.5,3275.01042 1406.6875,3275.53125 C1406.83333,3275.96875 1406.92708,3276.48958 1406.96875,3277.09375 Z M1405.46875,3284.125 C1405.59375,3283.77083 1405.67708,3283.20833 1405.71875,3282.4375 C1405.73958,3281.97917 1405.75,3281.33333 1405.75,3280.5 L1405.75,3279.5 C1405.75,3278.64583 1405.73958,3278 1405.71875,3277.5625 C1405.67708,3276.77083 1405.59375,3276.20833 1405.46875,3275.875 C1405.21875,3275.22917 1404.77083,3274.78125 1404.125,3274.53125 C1403.79167,3274.40625 1403.22917,3274.32292 1402.4375,3274.28125 C1401.97917,3274.26042 1401.33333,3274.25 1400.5,3274.25 L1399.5,3274.25 C1398.66667,3274.25 1398.02083,3274.26042 1397.5625,3274.28125 C1396.79167,3274.32292 1396.22917,3274.40625 1395.875,3274.53125 C1395.22917,3274.78125 1394.78125,3275.22917 1394.53125,3275.875 C1394.40625,3276.20833 1394.32292,3276.77083 1394.28125,3277.5625 C1394.26042,3278.02083 1394.25,3278.66667 1394.25,3279.5 L1394.25,3280.5 C1394.25,3281.33333 1394.26042,3281.97917 1394.28125,3282.4375 C1394.32292,3283.20833 1394.40625,3283.77083 1394.53125,3284.125 C1394.80208,3284.77083 1395.25,3285.21875 1395.875,3285.46875 C1396.22917,3285.59375 1396.79167,3285.67708 1397.5625,3285.71875 C1398.02083,3285.73958 1398.66667,3285.75 1399.5,3285.75 L1400.5,3285.75 C1401.35417,3285.75 1402,3285.73958 1402.4375,3285.71875 C1403.22917,3285.67708 1403.79167,3285.59375 1404.125,3285.46875 C1404.77083,3285.19792 1405.21875,3284.75 1405.46875,3284.125 Z" id="--" fill="#000000"></path>
    </g>
</svg>