<?xml version="1.0" encoding="UTF-8"?>
<svg width="9px" height="14px" viewBox="0 0 9 14" version="1.1" xmlns="http://www.w3.org/2000/svg" xmlns:xlink="http://www.w3.org/1999/xlink">
    <!-- Generator: Sketch 48.2 (47327) - http://www.bohemiancoding.com/sketch -->
    <title></title>
    <desc>Created with Sketch.</desc>
    <defs></defs>
    <g id="Home-/-Desktop" stroke="none" stroke-width="1" fill="none" fill-rule="evenodd" transform="translate(-1120.000000, -3273.000000)">
        <path d="M1126.09082,3279.31641 C1126.53028,3278.86067 1126.75,3278.31077 1126.75,3277.66667 C1126.75,3277.02257 1126.53028,3276.47266 1126.09082,3276.01693 C1125.65136,3275.5612 1125.1211,3275.33333 1124.5,3275.33333 C1123.8789,3275.33333 1123.34864,3275.5612 1122.90918,3276.01693 C1122.46972,3276.47266 1122.25,3277.02257 1122.25,3277.66667 C1122.25,3278.31077 1122.46972,3278.86067 1122.90918,3279.31641 C1123.34864,3279.77214 1123.8789,3280 1124.5,3280 C1125.1211,3280 1125.65136,3279.77214 1126.09082,3279.31641 Z M1129,3277.66667 C1129,3278.329 1128.90332,3278.87283 1128.70996,3279.29818 L1125.51074,3286.35286 C1125.41699,3286.55339 1125.27783,3286.71137 1125.09326,3286.82682 C1124.90869,3286.94227 1124.71094,3287 1124.5,3287 C1124.28906,3287 1124.09131,3286.94227 1123.90674,3286.82682 C1123.72217,3286.71137 1123.58594,3286.55339 1123.49805,3286.35286 L1120.29004,3279.29818 C1120.09668,3278.87283 1120,3278.329 1120,3277.66667 C1120,3276.37847 1120.43945,3275.27865 1121.31836,3274.36719 C1122.19727,3273.45572 1123.25781,3273 1124.5,3273 C1125.74219,3273 1126.80273,3273.45572 1127.68164,3274.36719 C1128.56055,3275.27865 1129,3276.37847 1129,3277.66667 Z" id="" fill="#000000"></path>
    </g>
</svg>