<?xml version="1.0" encoding="UTF-8"?>
<svg width="16px" height="13px" viewBox="0 0 16 13" version="1.1" xmlns="http://www.w3.org/2000/svg" xmlns:xlink="http://www.w3.org/1999/xlink">
    <!-- Generator: Sketch 48.2 (47327) - http://www.bohemiancoding.com/sketch -->
    <title>Path</title>
    <desc>Created with Sketch.</desc>
    <defs></defs>
    <g id="Home-/-Desktop" stroke="none" stroke-width="1" fill="none" fill-rule="evenodd" transform="translate(-1297.000000, -3274.000000)">
        <path d="M1311.34375,3277.25 C1311.98958,3276.77083 1312.54167,3276.19792 1313,3275.53125 C1312.375,3275.80208 1311.75,3275.97917 1311.125,3276.0625 C1311.83333,3275.625 1312.3125,3275.02083 1312.5625,3274.25 C1311.91667,3274.625 1311.21875,3274.88542 1310.46875,3275.03125 C1310.15625,3274.71875 1309.79688,3274.46875 1309.39062,3274.28125 C1308.98438,3274.09375 1308.54167,3274 1308.0625,3274 C1307.47917,3274 1306.9375,3274.14583 1306.4375,3274.4375 C1305.9375,3274.72917 1305.54167,3275.13021 1305.25,3275.64062 C1304.95833,3276.15104 1304.8125,3276.69792 1304.8125,3277.28125 C1304.8125,3277.53125 1304.83333,3277.78125 1304.875,3278.03125 C1303.54167,3277.96875 1302.28646,3277.63542 1301.10938,3277.03125 C1299.93229,3276.42708 1298.9375,3275.61458 1298.125,3274.59375 C1297.8125,3275.11458 1297.65625,3275.66146 1297.65625,3276.23438 C1297.65625,3276.80729 1297.79167,3277.33333 1298.0625,3277.8125 C1298.33333,3278.29167 1298.6875,3278.6875 1299.125,3279 C1298.60417,3278.97917 1298.11458,3278.83333 1297.65625,3278.5625 L1297.65625,3278.625 C1297.65625,3279.39583 1297.90625,3280.08333 1298.40625,3280.6875 C1298.90625,3281.29167 1299.53125,3281.67708 1300.28125,3281.84375 C1299.98958,3281.90625 1299.69792,3281.9375 1299.40625,3281.9375 C1299.21875,3281.9375 1299.02083,3281.92708 1298.8125,3281.90625 C1299.02083,3282.55208 1299.40104,3283.08854 1299.95312,3283.51562 C1300.50521,3283.94271 1301.14583,3284.15625 1301.875,3284.15625 C1300.66667,3285.09375 1299.30208,3285.5625 1297.78125,3285.5625 C1297.48958,3285.5625 1297.22917,3285.55208 1297,3285.53125 C1298.52083,3286.51042 1300.19792,3287 1302.03125,3287 C1303.94792,3287 1305.64583,3286.51042 1307.125,3285.53125 C1308.47917,3284.65625 1309.53125,3283.47917 1310.28125,3282 C1311.01042,3280.60417 1311.375,3279.15625 1311.375,3277.65625 C1311.375,3277.46875 1311.36458,3277.33333 1311.34375,3277.25 Z" id="Path" fill="#000000"></path>
    </g>
</svg>